<?xml version="1.0" encoding="utf-8" standalone="no"?>
<!DOCTYPE svg PUBLIC "-//W3C//DTD SVG 1.1//EN"
  "http://www.w3.org/Graphics/SVG/1.1/DTD/svg11.dtd">
<!-- Created with matplotlib (https://matplotlib.org/) -->
<svg height="824.788672pt" version="1.1" viewBox="0 0 1112.509375 824.788672" width="1112.509375pt" xmlns="http://www.w3.org/2000/svg" xmlns:xlink="http://www.w3.org/1999/xlink">
 <defs>
  <style type="text/css">
*{stroke-linecap:butt;stroke-linejoin:round;}
  </style>
 </defs>
 <g id="figure_1">
  <g id="patch_1">
   <path d="M 0 824.788672 
L 1112.509375 824.788672 
L 1112.509375 0 
L 0 0 
z
" style="fill:#ffffff;"/>
  </g>
  <g id="axes_1">
   <g id="patch_2">
    <path d="M 98.059375 758.198047 
L 1101.809375 758.198047 
L 1101.809375 16.698047 
L 98.059375 16.698047 
z
" style="fill:#ffffff;"/>
   </g>
   <g id="PolyCollection_1">
    <path clip-path="url(#p9404b11890)" d="M 191.655169 288.70493 
L 178.668127 288.70493 
L 178.640012 288.477455 
L 178.624614 288.24998 
L 178.621152 288.022505 
L 178.628655 287.79503 
L 178.645973 287.567554 
L 178.671776 287.340079 
L 178.70457 287.112604 
L 178.742705 286.885129 
L 178.784394 286.657654 
L 178.827723 286.430179 
L 178.870671 286.202704 
L 178.911128 285.975229 
L 178.946917 285.747754 
L 178.97581 285.520279 
L 178.99555 285.292804 
L 179.003875 285.065329 
L 178.998534 284.837854 
L 178.977312 284.610379 
L 178.938046 284.382904 
L 178.878646 284.155429 
L 178.797112 283.927954 
L 178.691552 283.700479 
L 178.560196 283.473004 
L 178.401408 283.245529 
L 178.213704 283.018054 
L 177.995755 282.790579 
L 177.746401 282.563104 
L 177.464656 282.335629 
L 177.149714 282.108154 
L 176.800952 281.880679 
L 176.417932 281.653204 
L 176.000402 281.425729 
L 175.548298 281.198254 
L 175.061735 280.970779 
L 174.541012 280.743304 
L 173.986602 280.515829 
L 173.399149 280.288354 
L 172.779463 280.060879 
L 172.128514 279.833404 
L 171.447424 279.605929 
L 170.73746 279.378454 
L 170.000028 279.150979 
L 169.236665 278.923504 
L 168.449035 278.696029 
L 167.638915 278.468554 
L 166.808196 278.241079 
L 165.958869 278.013604 
L 165.093024 277.786129 
L 164.212841 277.558654 
L 163.320584 277.331179 
L 162.418593 277.103704 
L 161.509283 276.876229 
L 160.595131 276.648754 
L 159.678677 276.421279 
L 158.762509 276.193804 
L 157.849268 275.966329 
L 156.94163 275.738854 
L 156.042306 275.511379 
L 155.154033 275.283904 
L 154.279565 275.056429 
L 153.421668 274.828954 
L 152.583108 274.601479 
L 151.766644 274.374004 
L 150.975018 274.146529 
L 150.210947 273.919054 
L 149.477112 273.691579 
L 148.776145 273.464104 
L 148.110622 273.236629 
L 147.483053 273.009154 
L 146.895865 272.781679 
L 146.351398 272.554204 
L 145.851889 272.326729 
L 145.399464 272.099254 
L 144.996124 271.871779 
L 144.643737 271.644304 
L 144.344024 271.416829 
L 144.098551 271.189354 
L 143.90872 270.961879 
L 143.775754 270.734404 
L 143.700691 270.506929 
L 143.684375 270.279454 
L 143.727445 270.051979 
L 143.830328 269.824504 
L 143.993231 269.597029 
L 144.216135 269.369554 
L 144.498787 269.142079 
L 144.840696 268.914604 
L 145.241126 268.687129 
L 145.699099 268.459654 
L 146.213388 268.232179 
L 146.782516 268.004704 
L 147.404764 267.777229 
L 148.078165 267.549754 
L 148.800516 267.322279 
L 149.569385 267.094804 
L 150.382115 266.867329 
L 151.235841 266.639854 
L 152.127499 266.412379 
L 153.053847 266.184904 
L 217.269449 266.184904 
L 217.269449 266.184904 
L 218.195797 266.412379 
L 219.087455 266.639854 
L 219.94118 266.867329 
L 220.75391 267.094804 
L 221.522779 267.322279 
L 222.245131 267.549754 
L 222.918532 267.777229 
L 223.540779 268.004704 
L 224.109908 268.232179 
L 224.624196 268.459654 
L 225.082169 268.687129 
L 225.4826 268.914604 
L 225.824508 269.142079 
L 226.10716 269.369554 
L 226.330064 269.597029 
L 226.492967 269.824504 
L 226.595851 270.051979 
L 226.63892 270.279454 
L 226.622604 270.506929 
L 226.547542 270.734404 
L 226.414575 270.961879 
L 226.224744 271.189354 
L 225.979272 271.416829 
L 225.679559 271.644304 
L 225.327171 271.871779 
L 224.923831 272.099254 
L 224.471406 272.326729 
L 223.971898 272.554204 
L 223.427431 272.781679 
L 222.840243 273.009154 
L 222.212673 273.236629 
L 221.547151 273.464104 
L 220.846184 273.691579 
L 220.112348 273.919054 
L 219.348277 274.146529 
L 218.556652 274.374004 
L 217.740188 274.601479 
L 216.901627 274.828954 
L 216.04373 275.056429 
L 215.169263 275.283904 
L 214.28099 275.511379 
L 213.381666 275.738854 
L 212.474027 275.966329 
L 211.560786 276.193804 
L 210.644619 276.421279 
L 209.728164 276.648754 
L 208.814012 276.876229 
L 207.904702 277.103704 
L 207.002712 277.331179 
L 206.110454 277.558654 
L 205.230271 277.786129 
L 204.364427 278.013604 
L 203.5151 278.241079 
L 202.68438 278.468554 
L 201.87426 278.696029 
L 201.08663 278.923504 
L 200.323268 279.150979 
L 199.585836 279.378454 
L 198.875872 279.605929 
L 198.194781 279.833404 
L 197.543832 280.060879 
L 196.924147 280.288354 
L 196.336694 280.515829 
L 195.782283 280.743304 
L 195.26156 280.970779 
L 194.774998 281.198254 
L 194.322893 281.425729 
L 193.905364 281.653204 
L 193.522344 281.880679 
L 193.173581 282.108154 
L 192.858639 282.335629 
L 192.576894 282.563104 
L 192.32754 282.790579 
L 192.109591 283.018054 
L 191.921887 283.245529 
L 191.7631 283.473004 
L 191.631743 283.700479 
L 191.526184 283.927954 
L 191.44465 284.155429 
L 191.38525 284.382904 
L 191.345984 284.610379 
L 191.324762 284.837854 
L 191.319421 285.065329 
L 191.327746 285.292804 
L 191.347486 285.520279 
L 191.376378 285.747754 
L 191.412167 285.975229 
L 191.452625 286.202704 
L 191.495573 286.430179 
L 191.538901 286.657654 
L 191.58059 286.885129 
L 191.618726 287.112604 
L 191.651519 287.340079 
L 191.677322 287.567554 
L 191.69464 287.79503 
L 191.702144 288.022505 
L 191.698681 288.24998 
L 191.683283 288.477455 
L 191.655169 288.70493 
z
" style="fill:#1f77b4;fill-opacity:0.3;"/>
   </g>
   <g id="PolyCollection_2">
    <path clip-path="url(#p9404b11890)" d="M 437.492025 299.487654 
L 406.857245 299.487654 
L 406.342325 299.121898 
L 405.822756 298.756142 
L 405.298662 298.390387 
L 404.770174 298.024631 
L 404.237438 297.658875 
L 403.700619 297.293119 
L 403.159915 296.927364 
L 402.61556 296.561608 
L 402.067835 296.195852 
L 401.517076 295.830096 
L 400.963678 295.464341 
L 400.408103 295.098585 
L 399.850885 294.732829 
L 399.292635 294.367074 
L 398.734042 294.001318 
L 398.175873 293.635562 
L 397.618977 293.269806 
L 397.064278 292.904051 
L 396.512771 292.538295 
L 395.965521 292.172539 
L 395.42365 291.806784 
L 394.88833 291.441028 
L 394.360771 291.075272 
L 393.842208 290.709516 
L 393.333887 290.343761 
L 392.837049 289.978005 
L 392.352914 289.612249 
L 391.882664 289.246493 
L 391.427422 288.880738 
L 390.98824 288.514982 
L 390.566073 288.149226 
L 390.161769 287.783471 
L 389.776046 287.417715 
L 389.409482 287.051959 
L 389.062497 286.686203 
L 388.735342 286.320448 
L 388.428089 285.954692 
L 388.140623 285.588936 
L 387.872637 285.22318 
L 387.623629 284.857425 
L 387.392904 284.491669 
L 387.179579 284.125913 
L 386.982585 283.760158 
L 386.800685 283.394402 
L 386.632481 283.028646 
L 386.476435 282.66289 
L 386.330886 282.297135 
L 386.194076 281.931379 
L 386.06417 281.565623 
L 385.939288 281.199867 
L 385.817532 280.834112 
L 385.697015 280.468356 
L 385.575895 280.1026 
L 385.452405 279.736845 
L 385.324885 279.371089 
L 385.191816 279.005333 
L 385.051844 278.639577 
L 384.903817 278.273822 
L 384.746804 277.908066 
L 384.580125 277.54231 
L 384.403368 277.176554 
L 384.21641 276.810799 
L 384.019427 276.445043 
L 383.812909 276.079287 
L 383.597661 275.713532 
L 383.374809 275.347776 
L 383.145789 274.98202 
L 382.912349 274.616264 
L 382.676526 274.250509 
L 382.440636 273.884753 
L 382.207249 273.518997 
L 381.979166 273.153241 
L 381.759384 272.787486 
L 381.551069 272.42173 
L 381.357518 272.055974 
L 381.182121 271.690219 
L 381.028317 271.324463 
L 380.89956 270.958707 
L 380.79927 270.592951 
L 380.730794 270.227196 
L 380.697362 269.86144 
L 380.702048 269.495684 
L 380.747728 269.129928 
L 380.837045 268.764173 
L 380.972376 268.398417 
L 381.155795 268.032661 
L 381.389052 267.666906 
L 381.673544 267.30115 
L 382.010301 266.935394 
L 382.399968 266.569638 
L 382.842794 266.203883 
L 383.338629 265.838127 
L 383.886925 265.472371 
L 384.486738 265.106615 
L 385.136738 264.74086 
L 385.835221 264.375104 
L 386.580131 264.009348 
L 387.36908 263.643593 
L 388.19937 263.277837 
L 456.1499 263.277837 
L 456.1499 263.277837 
L 456.98019 263.643593 
L 457.769138 264.009348 
L 458.514049 264.375104 
L 459.212532 264.74086 
L 459.862531 265.106615 
L 460.462344 265.472371 
L 461.010641 265.838127 
L 461.506476 266.203883 
L 461.949302 266.569638 
L 462.338968 266.935394 
L 462.675725 267.30115 
L 462.960218 267.666906 
L 463.193474 268.032661 
L 463.376893 268.398417 
L 463.512224 268.764173 
L 463.601542 269.129928 
L 463.647222 269.495684 
L 463.651907 269.86144 
L 463.618476 270.227196 
L 463.549999 270.592951 
L 463.44971 270.958707 
L 463.320953 271.324463 
L 463.167149 271.690219 
L 462.991751 272.055974 
L 462.7982 272.42173 
L 462.589886 272.787486 
L 462.370104 273.153241 
L 462.14202 273.518997 
L 461.908634 273.884753 
L 461.672744 274.250509 
L 461.436921 274.616264 
L 461.20348 274.98202 
L 460.974461 275.347776 
L 460.751608 275.713532 
L 460.536361 276.079287 
L 460.329843 276.445043 
L 460.13286 276.810799 
L 459.945901 277.176554 
L 459.769144 277.54231 
L 459.602465 277.908066 
L 459.445453 278.273822 
L 459.297425 278.639577 
L 459.157454 279.005333 
L 459.024384 279.371089 
L 458.896865 279.736845 
L 458.773374 280.1026 
L 458.652254 280.468356 
L 458.531737 280.834112 
L 458.409981 281.199867 
L 458.285099 281.565623 
L 458.155194 281.931379 
L 458.018383 282.297135 
L 457.872835 282.66289 
L 457.716789 283.028646 
L 457.548585 283.394402 
L 457.366684 283.760158 
L 457.169691 284.125913 
L 456.956365 284.491669 
L 456.725641 284.857425 
L 456.476633 285.22318 
L 456.208647 285.588936 
L 455.92118 285.954692 
L 455.613927 286.320448 
L 455.286772 286.686203 
L 454.939787 287.051959 
L 454.573224 287.417715 
L 454.187501 287.783471 
L 453.783196 288.149226 
L 453.36103 288.514982 
L 452.921847 288.880738 
L 452.466606 289.246493 
L 451.996356 289.612249 
L 451.512221 289.978005 
L 451.015383 290.343761 
L 450.507061 290.709516 
L 449.988498 291.075272 
L 449.460939 291.441028 
L 448.925619 291.806784 
L 448.383748 292.172539 
L 447.836498 292.538295 
L 447.284992 292.904051 
L 446.730292 293.269806 
L 446.173396 293.635562 
L 445.615228 294.001318 
L 445.056634 294.367074 
L 444.498385 294.732829 
L 443.941167 295.098585 
L 443.385592 295.464341 
L 442.832193 295.830096 
L 442.281434 296.195852 
L 441.73371 296.561608 
L 441.189355 296.927364 
L 440.64865 297.293119 
L 440.111832 297.658875 
L 439.579095 298.024631 
L 439.050608 298.390387 
L 438.526514 298.756142 
L 438.006945 299.121898 
L 437.492025 299.487654 
z
" style="fill:#1f77b4;fill-opacity:0.3;"/>
   </g>
   <g id="PolyCollection_3">
    <path clip-path="url(#p9404b11890)" d="M 664.956333 371.181264 
L 653.41891 371.181264 
L 653.385321 370.340571 
L 653.362132 369.499878 
L 653.34884 368.659186 
L 653.344821 367.818493 
L 653.349335 366.977801 
L 653.361536 366.137108 
L 653.380482 365.296415 
L 653.405145 364.455723 
L 653.434425 363.61503 
L 653.467161 362.774337 
L 653.50215 361.933645 
L 653.538157 361.092952 
L 653.573932 360.25226 
L 653.608224 359.411567 
L 653.639794 358.570874 
L 653.667433 357.730182 
L 653.689966 356.889489 
L 653.706271 356.048797 
L 653.715283 355.208104 
L 653.716004 354.367411 
L 653.707507 353.526719 
L 653.688941 352.686026 
L 653.659531 351.845334 
L 653.618577 351.004641 
L 653.565452 350.163948 
L 653.499596 349.323256 
L 653.420506 348.482563 
L 653.327733 347.641871 
L 653.220863 346.801178 
L 653.099513 345.960485 
L 652.963311 345.119793 
L 652.811886 344.2791 
L 652.644852 343.438407 
L 652.461794 342.597715 
L 652.262255 341.757022 
L 652.045723 340.91633 
L 651.81162 340.075637 
L 651.559293 339.234944 
L 651.288005 338.394252 
L 650.996932 337.553559 
L 650.685163 336.712867 
L 650.351698 335.872174 
L 649.995458 335.031481 
L 649.615291 334.190789 
L 649.209985 333.350096 
L 648.778285 332.509404 
L 648.318913 331.668711 
L 647.830593 330.828018 
L 647.312078 329.987326 
L 646.762176 329.146633 
L 646.17979 328.30594 
L 645.563944 327.465248 
L 644.913826 326.624555 
L 644.228821 325.783863 
L 643.508547 324.94317 
L 642.752896 324.102477 
L 641.962062 323.261785 
L 641.136579 322.421092 
L 640.277347 321.5804 
L 639.38566 320.739707 
L 638.463225 319.899014 
L 637.512183 319.058322 
L 636.535113 318.217629 
L 635.53504 317.376937 
L 634.515433 316.536244 
L 633.480198 315.695551 
L 632.433655 314.854859 
L 631.380522 314.014166 
L 630.325881 313.173474 
L 629.275143 312.332781 
L 628.234004 311.492088 
L 627.208394 310.651396 
L 626.204426 309.810703 
L 625.228334 308.97001 
L 624.286411 308.129318 
L 623.384942 307.288625 
L 622.53014 306.447933 
L 621.728073 305.60724 
L 620.984596 304.766547 
L 620.305288 303.925855 
L 619.695381 303.085162 
L 619.159702 302.24447 
L 618.702617 301.403777 
L 618.327973 300.563084 
L 618.039058 299.722392 
L 617.838558 298.881699 
L 617.728523 298.041007 
L 617.710349 297.200314 
L 617.784755 296.359621 
L 617.951778 295.518929 
L 618.210773 294.678236 
L 618.560424 293.837543 
L 618.998754 292.996851 
L 619.523159 292.156158 
L 620.130433 291.315466 
L 620.816809 290.474773 
L 621.578004 289.63408 
L 622.409268 288.793388 
L 623.305442 287.952695 
L 695.069801 287.952695 
L 695.069801 287.952695 
L 695.965975 288.793388 
L 696.79724 289.63408 
L 697.558435 290.474773 
L 698.244811 291.315466 
L 698.852084 292.156158 
L 699.376489 292.996851 
L 699.81482 293.837543 
L 700.16447 294.678236 
L 700.423466 295.518929 
L 700.590489 296.359621 
L 700.664894 297.200314 
L 700.64672 298.041007 
L 700.536686 298.881699 
L 700.336185 299.722392 
L 700.04727 300.563084 
L 699.672626 301.403777 
L 699.215541 302.24447 
L 698.679863 303.085162 
L 698.069956 303.925855 
L 697.390647 304.766547 
L 696.647171 305.60724 
L 695.845103 306.447933 
L 694.990301 307.288625 
L 694.088833 308.129318 
L 693.146909 308.97001 
L 692.170817 309.810703 
L 691.166849 310.651396 
L 690.141239 311.492088 
L 689.1001 312.332781 
L 688.049362 313.173474 
L 686.994722 314.014166 
L 685.941589 314.854859 
L 684.895046 315.695551 
L 683.85981 316.536244 
L 682.840204 317.376937 
L 681.840131 318.217629 
L 680.86306 319.058322 
L 679.912018 319.899014 
L 678.989584 320.739707 
L 678.097897 321.5804 
L 677.238665 322.421092 
L 676.413181 323.261785 
L 675.622347 324.102477 
L 674.866696 324.94317 
L 674.146423 325.783863 
L 673.461417 326.624555 
L 672.811299 327.465248 
L 672.195454 328.30594 
L 671.613067 329.146633 
L 671.063166 329.987326 
L 670.54465 330.828018 
L 670.056331 331.668711 
L 669.596959 332.509404 
L 669.165259 333.350096 
L 668.759952 334.190789 
L 668.379785 335.031481 
L 668.023545 335.872174 
L 667.690081 336.712867 
L 667.378311 337.553559 
L 667.087239 338.394252 
L 666.81595 339.234944 
L 666.563623 340.075637 
L 666.32952 340.91633 
L 666.112989 341.757022 
L 665.91345 342.597715 
L 665.730392 343.438407 
L 665.563357 344.2791 
L 665.411932 345.119793 
L 665.27573 345.960485 
L 665.15438 346.801178 
L 665.047511 347.641871 
L 664.954737 348.482563 
L 664.875648 349.323256 
L 664.809791 350.163948 
L 664.756666 351.004641 
L 664.715713 351.845334 
L 664.686302 352.686026 
L 664.667736 353.526719 
L 664.659239 354.367411 
L 664.65996 355.208104 
L 664.668972 356.048797 
L 664.685277 356.889489 
L 664.707811 357.730182 
L 664.735449 358.570874 
L 664.76702 359.411567 
L 664.801312 360.25226 
L 664.837087 361.092952 
L 664.873094 361.933645 
L 664.908082 362.774337 
L 664.940819 363.61503 
L 664.970098 364.455723 
L 664.994761 365.296415 
L 665.013707 366.137108 
L 665.025908 366.977801 
L 665.030423 367.818493 
L 665.026403 368.659186 
L 665.013111 369.499878 
L 664.989922 370.340571 
L 664.956333 371.181264 
z
" style="fill:#1f77b4;fill-opacity:0.3;"/>
   </g>
   <g id="PolyCollection_4">
    <path clip-path="url(#p9404b11890)" d="M 916.280234 457.610454 
L 876.120984 457.610454 
L 875.235008 456.746066 
L 874.338543 455.881678 
L 873.433195 455.01729 
L 872.520693 454.152903 
L 871.602892 453.288515 
L 870.681781 452.424127 
L 869.759483 451.559739 
L 868.838266 450.695352 
L 867.920537 449.830964 
L 867.008845 448.966576 
L 866.105881 448.102188 
L 865.214474 447.237801 
L 864.337581 446.373413 
L 863.47828 445.509025 
L 862.639756 444.644638 
L 861.82529 443.78025 
L 861.038236 442.915862 
L 860.282001 442.051474 
L 859.560025 441.187087 
L 858.875749 440.322699 
L 858.232589 439.458311 
L 857.633904 438.593923 
L 857.082962 437.729536 
L 856.582911 436.865148 
L 856.136735 436.00076 
L 855.747226 435.136372 
L 855.416946 434.271985 
L 855.148192 433.407597 
L 854.942964 432.543209 
L 854.802934 431.678821 
L 854.729414 430.814434 
L 854.723336 429.950046 
L 854.785225 429.085658 
L 854.915183 428.22127 
L 855.112875 427.356883 
L 855.377522 426.492495 
L 855.707892 425.628107 
L 856.102309 424.763719 
L 856.558651 423.899332 
L 857.074369 423.034944 
L 857.646504 422.170556 
L 858.271704 421.306169 
L 858.946257 420.441781 
L 859.666122 419.577393 
L 860.426964 418.713005 
L 861.224195 417.848618 
L 862.053018 416.98423 
L 862.90847 416.119842 
L 863.785476 415.255454 
L 864.678891 414.391067 
L 865.583557 413.526679 
L 866.494348 412.662291 
L 867.406223 411.797903 
L 868.314273 410.933516 
L 869.213766 410.069128 
L 870.100194 409.20474 
L 870.969309 408.340352 
L 871.817164 407.475965 
L 872.640146 406.611577 
L 873.434999 405.747189 
L 874.198854 404.882801 
L 874.929246 404.018414 
L 875.624124 403.154026 
L 876.281866 402.289638 
L 876.901275 401.425251 
L 877.481582 400.560863 
L 878.022436 399.696475 
L 878.523897 398.832087 
L 878.986415 397.9677 
L 879.410811 397.103312 
L 879.798256 396.238924 
L 880.150241 395.374536 
L 880.468549 394.510149 
L 880.755221 393.645761 
L 881.012524 392.781373 
L 881.242916 391.916985 
L 881.449006 391.052598 
L 881.633523 390.18821 
L 881.799277 389.323822 
L 881.949123 388.459434 
L 882.085928 387.595047 
L 882.212535 386.730659 
L 882.331736 385.866271 
L 882.446238 385.001883 
L 882.558639 384.137496 
L 882.671402 383.273108 
L 882.786834 382.40872 
L 882.907065 381.544333 
L 883.034036 380.679945 
L 883.169478 379.815557 
L 883.314913 378.951169 
L 883.471636 378.086782 
L 883.640717 377.222394 
L 883.822998 376.358006 
L 884.019091 375.493618 
L 884.229388 374.629231 
L 884.454062 373.764843 
L 884.693075 372.900455 
L 884.946192 372.036067 
L 907.455026 372.036067 
L 907.455026 372.036067 
L 907.708143 372.900455 
L 907.947156 373.764843 
L 908.171829 374.629231 
L 908.382126 375.493618 
L 908.57822 376.358006 
L 908.7605 377.222394 
L 908.929581 378.086782 
L 909.086304 378.951169 
L 909.231739 379.815557 
L 909.367182 380.679945 
L 909.494152 381.544333 
L 909.614383 382.40872 
L 909.729815 383.273108 
L 909.842579 384.137496 
L 909.95498 385.001883 
L 910.069482 385.866271 
L 910.188682 386.730659 
L 910.31529 387.595047 
L 910.452094 388.459434 
L 910.60194 389.323822 
L 910.767694 390.18821 
L 910.952212 391.052598 
L 911.158302 391.916985 
L 911.388693 392.781373 
L 911.645997 393.645761 
L 911.932669 394.510149 
L 912.250977 395.374536 
L 912.602962 396.238924 
L 912.990407 397.103312 
L 913.414803 397.9677 
L 913.87732 398.832087 
L 914.378781 399.696475 
L 914.919636 400.560863 
L 915.499943 401.425251 
L 916.119351 402.289638 
L 916.777093 403.154026 
L 917.471972 404.018414 
L 918.202364 404.882801 
L 918.966219 405.747189 
L 919.761072 406.611577 
L 920.584053 407.475965 
L 921.431909 408.340352 
L 922.301024 409.20474 
L 923.187451 410.069128 
L 924.086945 410.933516 
L 924.994994 411.797903 
L 925.90687 412.662291 
L 926.817661 413.526679 
L 927.722326 414.391067 
L 928.615742 415.255454 
L 929.492747 416.119842 
L 930.3482 416.98423 
L 931.177022 417.848618 
L 931.974253 418.713005 
L 932.735095 419.577393 
L 933.454961 420.441781 
L 934.129514 421.306169 
L 934.754714 422.170556 
L 935.326848 423.034944 
L 935.842567 423.899332 
L 936.298909 424.763719 
L 936.693325 425.628107 
L 937.023696 426.492495 
L 937.288342 427.356883 
L 937.486035 428.22127 
L 937.615993 429.085658 
L 937.677881 429.950046 
L 937.671803 430.814434 
L 937.598284 431.678821 
L 937.458253 432.543209 
L 937.253025 433.407597 
L 936.984272 434.271985 
L 936.653992 435.136372 
L 936.264483 436.00076 
L 935.818307 436.865148 
L 935.318255 437.729536 
L 934.767314 438.593923 
L 934.168629 439.458311 
L 933.525468 440.322699 
L 932.841192 441.187087 
L 932.119216 442.051474 
L 931.362982 442.915862 
L 930.575928 443.78025 
L 929.761461 444.644638 
L 928.922938 445.509025 
L 928.063636 446.373413 
L 927.186743 447.237801 
L 926.295336 448.102188 
L 925.392373 448.966576 
L 924.480681 449.830964 
L 923.562951 450.695352 
L 922.641734 451.559739 
L 921.719437 452.424127 
L 920.798326 453.288515 
L 919.880525 454.152903 
L 918.968023 455.01729 
L 918.062675 455.881678 
L 917.16621 456.746066 
L 916.280234 457.610454 
z
" style="fill:#1f77b4;fill-opacity:0.3;"/>
   </g>
   <g id="PolyCollection_5">
    <path clip-path="url(#p9404b11890)" d="M 1030.211256 741.004469 
L 999.202948 741.004469 
L 998.904817 739.462236 
L 998.62134 737.920004 
L 998.352235 736.377771 
L 998.097024 734.835539 
L 997.85504 733.293306 
L 997.625428 731.751073 
L 997.407155 730.208841 
L 997.199019 728.666608 
L 996.999663 727.124376 
L 996.807589 725.582143 
L 996.621174 724.03991 
L 996.438692 722.497678 
L 996.258328 720.955445 
L 996.078203 719.413213 
L 995.896397 717.87098 
L 995.710967 716.328747 
L 995.519975 714.786515 
L 995.321507 713.244282 
L 995.113695 711.70205 
L 994.894742 710.159817 
L 994.662939 708.617585 
L 994.416685 707.075352 
L 994.154506 705.533119 
L 993.87507 703.990887 
L 993.577202 702.448654 
L 993.259896 700.906422 
L 992.922325 699.364189 
L 992.563849 697.821956 
L 992.184023 696.279724 
L 991.782598 694.737491 
L 991.359525 693.195259 
L 990.914957 691.653026 
L 990.449242 690.110793 
L 989.962924 688.568561 
L 989.456737 687.026328 
L 988.931597 685.484096 
L 988.388598 683.941863 
L 987.828999 682.39963 
L 987.254219 680.857398 
L 986.665821 679.315165 
L 986.065509 677.772933 
L 985.455108 676.2307 
L 984.83656 674.688467 
L 984.211906 673.146235 
L 983.583279 671.604002 
L 982.952889 670.06177 
L 982.32301 668.519537 
L 981.695971 666.977305 
L 981.074142 665.435072 
L 980.459921 663.892839 
L 979.855725 662.350607 
L 979.263975 660.808374 
L 978.687085 659.266142 
L 978.127453 657.723909 
L 977.587445 656.181676 
L 977.069385 654.639444 
L 976.575546 653.097211 
L 976.108135 651.554979 
L 975.669283 650.012746 
L 975.261036 648.470513 
L 974.885341 646.928281 
L 974.544039 645.386048 
L 974.238853 643.843816 
L 973.971379 642.301583 
L 973.743078 640.75935 
L 973.555265 639.217118 
L 973.409108 637.674885 
L 973.305614 636.132653 
L 973.245628 634.59042 
L 973.22983 633.048187 
L 973.258724 631.505955 
L 973.332646 629.963722 
L 973.451753 628.42149 
L 973.616032 626.879257 
L 973.825292 625.337025 
L 974.079174 623.794792 
L 974.37715 622.252559 
L 974.718528 620.710327 
L 975.102458 619.168094 
L 975.527939 617.625862 
L 975.993823 616.083629 
L 976.498828 614.541396 
L 977.041541 612.999164 
L 977.620429 611.456931 
L 978.233849 609.914699 
L 978.880058 608.372466 
L 979.557221 606.830233 
L 980.263422 605.288001 
L 980.996675 603.745768 
L 981.754931 602.203536 
L 982.536092 600.661303 
L 983.338016 599.11907 
L 984.158532 597.576838 
L 984.995443 596.034605 
L 985.846543 594.492373 
L 986.709616 592.95014 
L 987.582456 591.407907 
L 988.462864 589.865675 
L 989.348664 588.323442 
L 1040.065541 588.323442 
L 1040.065541 588.323442 
L 1040.951341 589.865675 
L 1041.831749 591.407907 
L 1042.704588 592.95014 
L 1043.567662 594.492373 
L 1044.418761 596.034605 
L 1045.255673 597.576838 
L 1046.076188 599.11907 
L 1046.878113 600.661303 
L 1047.659273 602.203536 
L 1048.417529 603.745768 
L 1049.150782 605.288001 
L 1049.856983 606.830233 
L 1050.534147 608.372466 
L 1051.180356 609.914699 
L 1051.793776 611.456931 
L 1052.372664 612.999164 
L 1052.915376 614.541396 
L 1053.420381 616.083629 
L 1053.886266 617.625862 
L 1054.311747 619.168094 
L 1054.695677 620.710327 
L 1055.037055 622.252559 
L 1055.33503 623.794792 
L 1055.588912 625.337025 
L 1055.798173 626.879257 
L 1055.962451 628.42149 
L 1056.081559 629.963722 
L 1056.15548 631.505955 
L 1056.184375 633.048187 
L 1056.168576 634.59042 
L 1056.108591 636.132653 
L 1056.005097 637.674885 
L 1055.858939 639.217118 
L 1055.671127 640.75935 
L 1055.442825 642.301583 
L 1055.175351 643.843816 
L 1054.870165 645.386048 
L 1054.528864 646.928281 
L 1054.153169 648.470513 
L 1053.744922 650.012746 
L 1053.30607 651.554979 
L 1052.838659 653.097211 
L 1052.344819 654.639444 
L 1051.82676 656.181676 
L 1051.286751 657.723909 
L 1050.727119 659.266142 
L 1050.15023 660.808374 
L 1049.55848 662.350607 
L 1048.954284 663.892839 
L 1048.340063 665.435072 
L 1047.718234 666.977305 
L 1047.091195 668.519537 
L 1046.461316 670.06177 
L 1045.830926 671.604002 
L 1045.202299 673.146235 
L 1044.577645 674.688467 
L 1043.959097 676.2307 
L 1043.348696 677.772933 
L 1042.748383 679.315165 
L 1042.159986 680.857398 
L 1041.585205 682.39963 
L 1041.025607 683.941863 
L 1040.482607 685.484096 
L 1039.957468 687.026328 
L 1039.451281 688.568561 
L 1038.964963 690.110793 
L 1038.499248 691.653026 
L 1038.054679 693.195259 
L 1037.631607 694.737491 
L 1037.230182 696.279724 
L 1036.850356 697.821956 
L 1036.49188 699.364189 
L 1036.154309 700.906422 
L 1035.837003 702.448654 
L 1035.539135 703.990887 
L 1035.259699 705.533119 
L 1034.99752 707.075352 
L 1034.751266 708.617585 
L 1034.519462 710.159817 
L 1034.300509 711.70205 
L 1034.092698 713.244282 
L 1033.894229 714.786515 
L 1033.703237 716.328747 
L 1033.517808 717.87098 
L 1033.336002 719.413213 
L 1033.155877 720.955445 
L 1032.975513 722.497678 
L 1032.79303 724.03991 
L 1032.606616 725.582143 
L 1032.414542 727.124376 
L 1032.215186 728.666608 
L 1032.00705 730.208841 
L 1031.788776 731.751073 
L 1031.559164 733.293306 
L 1031.31718 734.835539 
L 1031.06197 736.377771 
L 1030.792865 737.920004 
L 1030.509388 739.462236 
L 1030.211256 741.004469 
z
" style="fill:#1f77b4;fill-opacity:0.3;"/>
   </g>
   <g id="matplotlib.axis_1">
    <g id="xtick_1">
     <g id="line2d_1">
      <path clip-path="url(#p9404b11890)" d="M 185.161648 758.198047 
L 185.161648 16.698047 
" style="fill:none;stroke:#b0b0b0;stroke-linecap:square;stroke-width:0.8;"/>
     </g>
     <g id="line2d_2">
      <defs>
       <path d="M 0 0 
L 0 3.5 
" id="meb0183bf63" style="stroke:#000000;stroke-width:0.8;"/>
      </defs>
      <g>
       <use style="stroke:#000000;stroke-width:0.8;" x="185.161648" xlink:href="#meb0183bf63" y="758.198047"/>
      </g>
     </g>
     <g id="text_1">
      <!-- 1.0 -->
      <defs>
       <path d="M 12.40625 8.296875 
L 28.515625 8.296875 
L 28.515625 63.921875 
L 10.984375 60.40625 
L 10.984375 69.390625 
L 28.421875 72.90625 
L 38.28125 72.90625 
L 38.28125 8.296875 
L 54.390625 8.296875 
L 54.390625 0 
L 12.40625 0 
z
" id="DejaVuSans-49"/>
       <path d="M 10.6875 12.40625 
L 21 12.40625 
L 21 0 
L 10.6875 0 
z
" id="DejaVuSans-46"/>
       <path d="M 31.78125 66.40625 
Q 24.171875 66.40625 20.328125 58.90625 
Q 16.5 51.421875 16.5 36.375 
Q 16.5 21.390625 20.328125 13.890625 
Q 24.171875 6.390625 31.78125 6.390625 
Q 39.453125 6.390625 43.28125 13.890625 
Q 47.125 21.390625 47.125 36.375 
Q 47.125 51.421875 43.28125 58.90625 
Q 39.453125 66.40625 31.78125 66.40625 
z
M 31.78125 74.21875 
Q 44.046875 74.21875 50.515625 64.515625 
Q 56.984375 54.828125 56.984375 36.375 
Q 56.984375 17.96875 50.515625 8.265625 
Q 44.046875 -1.421875 31.78125 -1.421875 
Q 19.53125 -1.421875 13.0625 8.265625 
Q 6.59375 17.96875 6.59375 36.375 
Q 6.59375 54.828125 13.0625 64.515625 
Q 19.53125 74.21875 31.78125 74.21875 
z
" id="DejaVuSans-48"/>
      </defs>
      <g transform="translate(165.282741 784.194141)scale(0.25 -0.25)">
       <use xlink:href="#DejaVuSans-49"/>
       <use x="63.623047" xlink:href="#DejaVuSans-46"/>
       <use x="95.410156" xlink:href="#DejaVuSans-48"/>
      </g>
     </g>
    </g>
    <g id="xtick_2">
     <g id="line2d_3">
      <path clip-path="url(#p9404b11890)" d="M 422.174635 758.198047 
L 422.174635 16.698047 
" style="fill:none;stroke:#b0b0b0;stroke-linecap:square;stroke-width:0.8;"/>
     </g>
     <g id="line2d_4">
      <g>
       <use style="stroke:#000000;stroke-width:0.8;" x="422.174635" xlink:href="#meb0183bf63" y="758.198047"/>
      </g>
     </g>
     <g id="text_2">
      <!-- 0.75 -->
      <defs>
       <path d="M 8.203125 72.90625 
L 55.078125 72.90625 
L 55.078125 68.703125 
L 28.609375 0 
L 18.3125 0 
L 43.21875 64.59375 
L 8.203125 64.59375 
z
" id="DejaVuSans-55"/>
       <path d="M 10.796875 72.90625 
L 49.515625 72.90625 
L 49.515625 64.59375 
L 19.828125 64.59375 
L 19.828125 46.734375 
Q 21.96875 47.46875 24.109375 47.828125 
Q 26.265625 48.1875 28.421875 48.1875 
Q 40.625 48.1875 47.75 41.5 
Q 54.890625 34.8125 54.890625 23.390625 
Q 54.890625 11.625 47.5625 5.09375 
Q 40.234375 -1.421875 26.90625 -1.421875 
Q 22.3125 -1.421875 17.546875 -0.640625 
Q 12.796875 0.140625 7.71875 1.703125 
L 7.71875 11.625 
Q 12.109375 9.234375 16.796875 8.0625 
Q 21.484375 6.890625 26.703125 6.890625 
Q 35.15625 6.890625 40.078125 11.328125 
Q 45.015625 15.765625 45.015625 23.390625 
Q 45.015625 31 40.078125 35.4375 
Q 35.15625 39.890625 26.703125 39.890625 
Q 22.75 39.890625 18.8125 39.015625 
Q 14.890625 38.140625 10.796875 36.28125 
z
" id="DejaVuSans-53"/>
      </defs>
      <g transform="translate(394.342603 784.194141)scale(0.25 -0.25)">
       <use xlink:href="#DejaVuSans-48"/>
       <use x="63.623047" xlink:href="#DejaVuSans-46"/>
       <use x="95.410156" xlink:href="#DejaVuSans-55"/>
       <use x="159.033203" xlink:href="#DejaVuSans-53"/>
      </g>
     </g>
    </g>
    <g id="xtick_3">
     <g id="line2d_5">
      <path clip-path="url(#p9404b11890)" d="M 659.187622 758.198047 
L 659.187622 16.698047 
" style="fill:none;stroke:#b0b0b0;stroke-linecap:square;stroke-width:0.8;"/>
     </g>
     <g id="line2d_6">
      <g>
       <use style="stroke:#000000;stroke-width:0.8;" x="659.187622" xlink:href="#meb0183bf63" y="758.198047"/>
      </g>
     </g>
     <g id="text_3">
      <!-- 0.5 -->
      <g transform="translate(639.308716 784.194141)scale(0.25 -0.25)">
       <use xlink:href="#DejaVuSans-48"/>
       <use x="63.623047" xlink:href="#DejaVuSans-46"/>
       <use x="95.410156" xlink:href="#DejaVuSans-53"/>
      </g>
     </g>
    </g>
    <g id="xtick_4">
     <g id="line2d_7">
      <path clip-path="url(#p9404b11890)" d="M 896.200609 758.198047 
L 896.200609 16.698047 
" style="fill:none;stroke:#b0b0b0;stroke-linecap:square;stroke-width:0.8;"/>
     </g>
     <g id="line2d_8">
      <g>
       <use style="stroke:#000000;stroke-width:0.8;" x="896.200609" xlink:href="#meb0183bf63" y="758.198047"/>
      </g>
     </g>
     <g id="text_4">
      <!-- 0.25 -->
      <defs>
       <path d="M 19.1875 8.296875 
L 53.609375 8.296875 
L 53.609375 0 
L 7.328125 0 
L 7.328125 8.296875 
Q 12.9375 14.109375 22.625 23.890625 
Q 32.328125 33.6875 34.8125 36.53125 
Q 39.546875 41.84375 41.421875 45.53125 
Q 43.3125 49.21875 43.3125 52.78125 
Q 43.3125 58.59375 39.234375 62.25 
Q 35.15625 65.921875 28.609375 65.921875 
Q 23.96875 65.921875 18.8125 64.3125 
Q 13.671875 62.703125 7.8125 59.421875 
L 7.8125 69.390625 
Q 13.765625 71.78125 18.9375 73 
Q 24.125 74.21875 28.421875 74.21875 
Q 39.75 74.21875 46.484375 68.546875 
Q 53.21875 62.890625 53.21875 53.421875 
Q 53.21875 48.921875 51.53125 44.890625 
Q 49.859375 40.875 45.40625 35.40625 
Q 44.1875 33.984375 37.640625 27.21875 
Q 31.109375 20.453125 19.1875 8.296875 
z
" id="DejaVuSans-50"/>
      </defs>
      <g transform="translate(868.368578 784.194141)scale(0.25 -0.25)">
       <use xlink:href="#DejaVuSans-48"/>
       <use x="63.623047" xlink:href="#DejaVuSans-46"/>
       <use x="95.410156" xlink:href="#DejaVuSans-50"/>
       <use x="159.033203" xlink:href="#DejaVuSans-53"/>
      </g>
     </g>
    </g>
    <g id="xtick_5">
     <g id="line2d_9">
      <path clip-path="url(#p9404b11890)" d="M 1014.707102 758.198047 
L 1014.707102 16.698047 
" style="fill:none;stroke:#b0b0b0;stroke-linecap:square;stroke-width:0.8;"/>
     </g>
     <g id="line2d_10">
      <g>
       <use style="stroke:#000000;stroke-width:0.8;" x="1014.707102" xlink:href="#meb0183bf63" y="758.198047"/>
      </g>
     </g>
     <g id="text_5">
      <!-- 0.125 -->
      <g transform="translate(978.921946 784.194141)scale(0.25 -0.25)">
       <use xlink:href="#DejaVuSans-48"/>
       <use x="63.623047" xlink:href="#DejaVuSans-46"/>
       <use x="95.410156" xlink:href="#DejaVuSans-49"/>
       <use x="159.033203" xlink:href="#DejaVuSans-50"/>
       <use x="222.65625" xlink:href="#DejaVuSans-53"/>
      </g>
     </g>
    </g>
    <g id="text_6">
     <!-- Amount of training data -->
     <defs>
      <path d="M 34.1875 63.1875 
L 20.796875 26.90625 
L 47.609375 26.90625 
z
M 28.609375 72.90625 
L 39.796875 72.90625 
L 67.578125 0 
L 57.328125 0 
L 50.6875 18.703125 
L 17.828125 18.703125 
L 11.1875 0 
L 0.78125 0 
z
" id="DejaVuSans-65"/>
      <path d="M 52 44.1875 
Q 55.375 50.25 60.0625 53.125 
Q 64.75 56 71.09375 56 
Q 79.640625 56 84.28125 50.015625 
Q 88.921875 44.046875 88.921875 33.015625 
L 88.921875 0 
L 79.890625 0 
L 79.890625 32.71875 
Q 79.890625 40.578125 77.09375 44.375 
Q 74.3125 48.1875 68.609375 48.1875 
Q 61.625 48.1875 57.5625 43.546875 
Q 53.515625 38.921875 53.515625 30.90625 
L 53.515625 0 
L 44.484375 0 
L 44.484375 32.71875 
Q 44.484375 40.625 41.703125 44.40625 
Q 38.921875 48.1875 33.109375 48.1875 
Q 26.21875 48.1875 22.15625 43.53125 
Q 18.109375 38.875 18.109375 30.90625 
L 18.109375 0 
L 9.078125 0 
L 9.078125 54.6875 
L 18.109375 54.6875 
L 18.109375 46.1875 
Q 21.1875 51.21875 25.484375 53.609375 
Q 29.78125 56 35.6875 56 
Q 41.65625 56 45.828125 52.96875 
Q 50 49.953125 52 44.1875 
z
" id="DejaVuSans-109"/>
      <path d="M 30.609375 48.390625 
Q 23.390625 48.390625 19.1875 42.75 
Q 14.984375 37.109375 14.984375 27.296875 
Q 14.984375 17.484375 19.15625 11.84375 
Q 23.34375 6.203125 30.609375 6.203125 
Q 37.796875 6.203125 41.984375 11.859375 
Q 46.1875 17.53125 46.1875 27.296875 
Q 46.1875 37.015625 41.984375 42.703125 
Q 37.796875 48.390625 30.609375 48.390625 
z
M 30.609375 56 
Q 42.328125 56 49.015625 48.375 
Q 55.71875 40.765625 55.71875 27.296875 
Q 55.71875 13.875 49.015625 6.21875 
Q 42.328125 -1.421875 30.609375 -1.421875 
Q 18.84375 -1.421875 12.171875 6.21875 
Q 5.515625 13.875 5.515625 27.296875 
Q 5.515625 40.765625 12.171875 48.375 
Q 18.84375 56 30.609375 56 
z
" id="DejaVuSans-111"/>
      <path d="M 8.5 21.578125 
L 8.5 54.6875 
L 17.484375 54.6875 
L 17.484375 21.921875 
Q 17.484375 14.15625 20.5 10.265625 
Q 23.53125 6.390625 29.59375 6.390625 
Q 36.859375 6.390625 41.078125 11.03125 
Q 45.3125 15.671875 45.3125 23.6875 
L 45.3125 54.6875 
L 54.296875 54.6875 
L 54.296875 0 
L 45.3125 0 
L 45.3125 8.40625 
Q 42.046875 3.421875 37.71875 1 
Q 33.40625 -1.421875 27.6875 -1.421875 
Q 18.265625 -1.421875 13.375 4.4375 
Q 8.5 10.296875 8.5 21.578125 
z
M 31.109375 56 
z
" id="DejaVuSans-117"/>
      <path d="M 54.890625 33.015625 
L 54.890625 0 
L 45.90625 0 
L 45.90625 32.71875 
Q 45.90625 40.484375 42.875 44.328125 
Q 39.84375 48.1875 33.796875 48.1875 
Q 26.515625 48.1875 22.3125 43.546875 
Q 18.109375 38.921875 18.109375 30.90625 
L 18.109375 0 
L 9.078125 0 
L 9.078125 54.6875 
L 18.109375 54.6875 
L 18.109375 46.1875 
Q 21.34375 51.125 25.703125 53.5625 
Q 30.078125 56 35.796875 56 
Q 45.21875 56 50.046875 50.171875 
Q 54.890625 44.34375 54.890625 33.015625 
z
" id="DejaVuSans-110"/>
      <path d="M 18.3125 70.21875 
L 18.3125 54.6875 
L 36.8125 54.6875 
L 36.8125 47.703125 
L 18.3125 47.703125 
L 18.3125 18.015625 
Q 18.3125 11.328125 20.140625 9.421875 
Q 21.96875 7.515625 27.59375 7.515625 
L 36.8125 7.515625 
L 36.8125 0 
L 27.59375 0 
Q 17.1875 0 13.234375 3.875 
Q 9.28125 7.765625 9.28125 18.015625 
L 9.28125 47.703125 
L 2.6875 47.703125 
L 2.6875 54.6875 
L 9.28125 54.6875 
L 9.28125 70.21875 
z
" id="DejaVuSans-116"/>
      <path id="DejaVuSans-32"/>
      <path d="M 37.109375 75.984375 
L 37.109375 68.5 
L 28.515625 68.5 
Q 23.6875 68.5 21.796875 66.546875 
Q 19.921875 64.59375 19.921875 59.515625 
L 19.921875 54.6875 
L 34.71875 54.6875 
L 34.71875 47.703125 
L 19.921875 47.703125 
L 19.921875 0 
L 10.890625 0 
L 10.890625 47.703125 
L 2.296875 47.703125 
L 2.296875 54.6875 
L 10.890625 54.6875 
L 10.890625 58.5 
Q 10.890625 67.625 15.140625 71.796875 
Q 19.390625 75.984375 28.609375 75.984375 
z
" id="DejaVuSans-102"/>
      <path d="M 41.109375 46.296875 
Q 39.59375 47.171875 37.8125 47.578125 
Q 36.03125 48 33.890625 48 
Q 26.265625 48 22.1875 43.046875 
Q 18.109375 38.09375 18.109375 28.8125 
L 18.109375 0 
L 9.078125 0 
L 9.078125 54.6875 
L 18.109375 54.6875 
L 18.109375 46.1875 
Q 20.953125 51.171875 25.484375 53.578125 
Q 30.03125 56 36.53125 56 
Q 37.453125 56 38.578125 55.875 
Q 39.703125 55.765625 41.0625 55.515625 
z
" id="DejaVuSans-114"/>
      <path d="M 34.28125 27.484375 
Q 23.390625 27.484375 19.1875 25 
Q 14.984375 22.515625 14.984375 16.5 
Q 14.984375 11.71875 18.140625 8.90625 
Q 21.296875 6.109375 26.703125 6.109375 
Q 34.1875 6.109375 38.703125 11.40625 
Q 43.21875 16.703125 43.21875 25.484375 
L 43.21875 27.484375 
z
M 52.203125 31.203125 
L 52.203125 0 
L 43.21875 0 
L 43.21875 8.296875 
Q 40.140625 3.328125 35.546875 0.953125 
Q 30.953125 -1.421875 24.3125 -1.421875 
Q 15.921875 -1.421875 10.953125 3.296875 
Q 6 8.015625 6 15.921875 
Q 6 25.140625 12.171875 29.828125 
Q 18.359375 34.515625 30.609375 34.515625 
L 43.21875 34.515625 
L 43.21875 35.40625 
Q 43.21875 41.609375 39.140625 45 
Q 35.0625 48.390625 27.6875 48.390625 
Q 23 48.390625 18.546875 47.265625 
Q 14.109375 46.140625 10.015625 43.890625 
L 10.015625 52.203125 
Q 14.9375 54.109375 19.578125 55.046875 
Q 24.21875 56 28.609375 56 
Q 40.484375 56 46.34375 49.84375 
Q 52.203125 43.703125 52.203125 31.203125 
z
" id="DejaVuSans-97"/>
      <path d="M 9.421875 54.6875 
L 18.40625 54.6875 
L 18.40625 0 
L 9.421875 0 
z
M 9.421875 75.984375 
L 18.40625 75.984375 
L 18.40625 64.59375 
L 9.421875 64.59375 
z
" id="DejaVuSans-105"/>
      <path d="M 45.40625 27.984375 
Q 45.40625 37.75 41.375 43.109375 
Q 37.359375 48.484375 30.078125 48.484375 
Q 22.859375 48.484375 18.828125 43.109375 
Q 14.796875 37.75 14.796875 27.984375 
Q 14.796875 18.265625 18.828125 12.890625 
Q 22.859375 7.515625 30.078125 7.515625 
Q 37.359375 7.515625 41.375 12.890625 
Q 45.40625 18.265625 45.40625 27.984375 
z
M 54.390625 6.78125 
Q 54.390625 -7.171875 48.1875 -13.984375 
Q 42 -20.796875 29.203125 -20.796875 
Q 24.46875 -20.796875 20.265625 -20.09375 
Q 16.0625 -19.390625 12.109375 -17.921875 
L 12.109375 -9.1875 
Q 16.0625 -11.328125 19.921875 -12.34375 
Q 23.78125 -13.375 27.78125 -13.375 
Q 36.625 -13.375 41.015625 -8.765625 
Q 45.40625 -4.15625 45.40625 5.171875 
L 45.40625 9.625 
Q 42.625 4.78125 38.28125 2.390625 
Q 33.9375 0 27.875 0 
Q 17.828125 0 11.671875 7.65625 
Q 5.515625 15.328125 5.515625 27.984375 
Q 5.515625 40.671875 11.671875 48.328125 
Q 17.828125 56 27.875 56 
Q 33.9375 56 38.28125 53.609375 
Q 42.625 51.21875 45.40625 46.390625 
L 45.40625 54.6875 
L 54.390625 54.6875 
z
" id="DejaVuSans-103"/>
      <path d="M 45.40625 46.390625 
L 45.40625 75.984375 
L 54.390625 75.984375 
L 54.390625 0 
L 45.40625 0 
L 45.40625 8.203125 
Q 42.578125 3.328125 38.25 0.953125 
Q 33.9375 -1.421875 27.875 -1.421875 
Q 17.96875 -1.421875 11.734375 6.484375 
Q 5.515625 14.40625 5.515625 27.296875 
Q 5.515625 40.1875 11.734375 48.09375 
Q 17.96875 56 27.875 56 
Q 33.9375 56 38.25 53.625 
Q 42.578125 51.265625 45.40625 46.390625 
z
M 14.796875 27.296875 
Q 14.796875 17.390625 18.875 11.75 
Q 22.953125 6.109375 30.078125 6.109375 
Q 37.203125 6.109375 41.296875 11.75 
Q 45.40625 17.390625 45.40625 27.296875 
Q 45.40625 37.203125 41.296875 42.84375 
Q 37.203125 48.484375 30.078125 48.484375 
Q 22.953125 48.484375 18.875 42.84375 
Q 14.796875 37.203125 14.796875 27.296875 
z
" id="DejaVuSans-100"/>
     </defs>
     <g transform="translate(450.268359 812.389453)scale(0.25 -0.25)">
      <use xlink:href="#DejaVuSans-65"/>
      <use x="68.408203" xlink:href="#DejaVuSans-109"/>
      <use x="165.820312" xlink:href="#DejaVuSans-111"/>
      <use x="227.001953" xlink:href="#DejaVuSans-117"/>
      <use x="290.380859" xlink:href="#DejaVuSans-110"/>
      <use x="353.759766" xlink:href="#DejaVuSans-116"/>
      <use x="392.96875" xlink:href="#DejaVuSans-32"/>
      <use x="424.755859" xlink:href="#DejaVuSans-111"/>
      <use x="485.9375" xlink:href="#DejaVuSans-102"/>
      <use x="521.142578" xlink:href="#DejaVuSans-32"/>
      <use x="552.929688" xlink:href="#DejaVuSans-116"/>
      <use x="592.138672" xlink:href="#DejaVuSans-114"/>
      <use x="633.251953" xlink:href="#DejaVuSans-97"/>
      <use x="694.53125" xlink:href="#DejaVuSans-105"/>
      <use x="722.314453" xlink:href="#DejaVuSans-110"/>
      <use x="785.693359" xlink:href="#DejaVuSans-105"/>
      <use x="813.476562" xlink:href="#DejaVuSans-110"/>
      <use x="876.855469" xlink:href="#DejaVuSans-103"/>
      <use x="940.332031" xlink:href="#DejaVuSans-32"/>
      <use x="972.119141" xlink:href="#DejaVuSans-100"/>
      <use x="1035.595703" xlink:href="#DejaVuSans-97"/>
      <use x="1096.875" xlink:href="#DejaVuSans-116"/>
      <use x="1136.083984" xlink:href="#DejaVuSans-97"/>
     </g>
    </g>
   </g>
   <g id="matplotlib.axis_2">
    <g id="ytick_1">
     <g id="line2d_11">
      <path clip-path="url(#p9404b11890)" d="M 98.059375 758.198047 
L 1101.809375 758.198047 
" style="fill:none;stroke:#b0b0b0;stroke-linecap:square;stroke-width:0.8;"/>
     </g>
     <g id="line2d_12">
      <defs>
       <path d="M 0 0 
L -3.5 0 
" id="m47507ee546" style="stroke:#000000;stroke-width:0.8;"/>
      </defs>
      <g>
       <use style="stroke:#000000;stroke-width:0.8;" x="98.059375" xlink:href="#m47507ee546" y="758.198047"/>
      </g>
     </g>
     <g id="text_7">
      <!-- 0.65 -->
      <defs>
       <path d="M 33.015625 40.375 
Q 26.375 40.375 22.484375 35.828125 
Q 18.609375 31.296875 18.609375 23.390625 
Q 18.609375 15.53125 22.484375 10.953125 
Q 26.375 6.390625 33.015625 6.390625 
Q 39.65625 6.390625 43.53125 10.953125 
Q 47.40625 15.53125 47.40625 23.390625 
Q 47.40625 31.296875 43.53125 35.828125 
Q 39.65625 40.375 33.015625 40.375 
z
M 52.59375 71.296875 
L 52.59375 62.3125 
Q 48.875 64.0625 45.09375 64.984375 
Q 41.3125 65.921875 37.59375 65.921875 
Q 27.828125 65.921875 22.671875 59.328125 
Q 17.53125 52.734375 16.796875 39.40625 
Q 19.671875 43.65625 24.015625 45.921875 
Q 28.375 48.1875 33.59375 48.1875 
Q 44.578125 48.1875 50.953125 41.515625 
Q 57.328125 34.859375 57.328125 23.390625 
Q 57.328125 12.15625 50.6875 5.359375 
Q 44.046875 -1.421875 33.015625 -1.421875 
Q 20.359375 -1.421875 13.671875 8.265625 
Q 6.984375 17.96875 6.984375 36.375 
Q 6.984375 53.65625 15.1875 63.9375 
Q 23.390625 74.21875 37.203125 74.21875 
Q 40.921875 74.21875 44.703125 73.484375 
Q 48.484375 72.75 52.59375 71.296875 
z
" id="DejaVuSans-54"/>
      </defs>
      <g transform="translate(35.395313 767.696094)scale(0.25 -0.25)">
       <use xlink:href="#DejaVuSans-48"/>
       <use x="63.623047" xlink:href="#DejaVuSans-46"/>
       <use x="95.410156" xlink:href="#DejaVuSans-54"/>
       <use x="159.033203" xlink:href="#DejaVuSans-53"/>
      </g>
     </g>
    </g>
    <g id="ytick_2">
     <g id="line2d_13">
      <path clip-path="url(#p9404b11890)" d="M 98.059375 652.269475 
L 1101.809375 652.269475 
" style="fill:none;stroke:#b0b0b0;stroke-linecap:square;stroke-width:0.8;"/>
     </g>
     <g id="line2d_14">
      <g>
       <use style="stroke:#000000;stroke-width:0.8;" x="98.059375" xlink:href="#m47507ee546" y="652.269475"/>
      </g>
     </g>
     <g id="text_8">
      <!-- 0.70 -->
      <g transform="translate(35.395313 661.767522)scale(0.25 -0.25)">
       <use xlink:href="#DejaVuSans-48"/>
       <use x="63.623047" xlink:href="#DejaVuSans-46"/>
       <use x="95.410156" xlink:href="#DejaVuSans-55"/>
       <use x="159.033203" xlink:href="#DejaVuSans-48"/>
      </g>
     </g>
    </g>
    <g id="ytick_3">
     <g id="line2d_15">
      <path clip-path="url(#p9404b11890)" d="M 98.059375 546.340904 
L 1101.809375 546.340904 
" style="fill:none;stroke:#b0b0b0;stroke-linecap:square;stroke-width:0.8;"/>
     </g>
     <g id="line2d_16">
      <g>
       <use style="stroke:#000000;stroke-width:0.8;" x="98.059375" xlink:href="#m47507ee546" y="546.340904"/>
      </g>
     </g>
     <g id="text_9">
      <!-- 0.75 -->
      <g transform="translate(35.395313 555.838951)scale(0.25 -0.25)">
       <use xlink:href="#DejaVuSans-48"/>
       <use x="63.623047" xlink:href="#DejaVuSans-46"/>
       <use x="95.410156" xlink:href="#DejaVuSans-55"/>
       <use x="159.033203" xlink:href="#DejaVuSans-53"/>
      </g>
     </g>
    </g>
    <g id="ytick_4">
     <g id="line2d_17">
      <path clip-path="url(#p9404b11890)" d="M 98.059375 440.412333 
L 1101.809375 440.412333 
" style="fill:none;stroke:#b0b0b0;stroke-linecap:square;stroke-width:0.8;"/>
     </g>
     <g id="line2d_18">
      <g>
       <use style="stroke:#000000;stroke-width:0.8;" x="98.059375" xlink:href="#m47507ee546" y="440.412333"/>
      </g>
     </g>
     <g id="text_10">
      <!-- 0.80 -->
      <defs>
       <path d="M 31.78125 34.625 
Q 24.75 34.625 20.71875 30.859375 
Q 16.703125 27.09375 16.703125 20.515625 
Q 16.703125 13.921875 20.71875 10.15625 
Q 24.75 6.390625 31.78125 6.390625 
Q 38.8125 6.390625 42.859375 10.171875 
Q 46.921875 13.96875 46.921875 20.515625 
Q 46.921875 27.09375 42.890625 30.859375 
Q 38.875 34.625 31.78125 34.625 
z
M 21.921875 38.8125 
Q 15.578125 40.375 12.03125 44.71875 
Q 8.5 49.078125 8.5 55.328125 
Q 8.5 64.0625 14.71875 69.140625 
Q 20.953125 74.21875 31.78125 74.21875 
Q 42.671875 74.21875 48.875 69.140625 
Q 55.078125 64.0625 55.078125 55.328125 
Q 55.078125 49.078125 51.53125 44.71875 
Q 48 40.375 41.703125 38.8125 
Q 48.828125 37.15625 52.796875 32.3125 
Q 56.78125 27.484375 56.78125 20.515625 
Q 56.78125 9.90625 50.3125 4.234375 
Q 43.84375 -1.421875 31.78125 -1.421875 
Q 19.734375 -1.421875 13.25 4.234375 
Q 6.78125 9.90625 6.78125 20.515625 
Q 6.78125 27.484375 10.78125 32.3125 
Q 14.796875 37.15625 21.921875 38.8125 
z
M 18.3125 54.390625 
Q 18.3125 48.734375 21.84375 45.5625 
Q 25.390625 42.390625 31.78125 42.390625 
Q 38.140625 42.390625 41.71875 45.5625 
Q 45.3125 48.734375 45.3125 54.390625 
Q 45.3125 60.0625 41.71875 63.234375 
Q 38.140625 66.40625 31.78125 66.40625 
Q 25.390625 66.40625 21.84375 63.234375 
Q 18.3125 60.0625 18.3125 54.390625 
z
" id="DejaVuSans-56"/>
      </defs>
      <g transform="translate(35.395313 449.910379)scale(0.25 -0.25)">
       <use xlink:href="#DejaVuSans-48"/>
       <use x="63.623047" xlink:href="#DejaVuSans-46"/>
       <use x="95.410156" xlink:href="#DejaVuSans-56"/>
       <use x="159.033203" xlink:href="#DejaVuSans-48"/>
      </g>
     </g>
    </g>
    <g id="ytick_5">
     <g id="line2d_19">
      <path clip-path="url(#p9404b11890)" d="M 98.059375 334.483761 
L 1101.809375 334.483761 
" style="fill:none;stroke:#b0b0b0;stroke-linecap:square;stroke-width:0.8;"/>
     </g>
     <g id="line2d_20">
      <g>
       <use style="stroke:#000000;stroke-width:0.8;" x="98.059375" xlink:href="#m47507ee546" y="334.483761"/>
      </g>
     </g>
     <g id="text_11">
      <!-- 0.85 -->
      <g transform="translate(35.395313 343.981808)scale(0.25 -0.25)">
       <use xlink:href="#DejaVuSans-48"/>
       <use x="63.623047" xlink:href="#DejaVuSans-46"/>
       <use x="95.410156" xlink:href="#DejaVuSans-56"/>
       <use x="159.033203" xlink:href="#DejaVuSans-53"/>
      </g>
     </g>
    </g>
    <g id="ytick_6">
     <g id="line2d_21">
      <path clip-path="url(#p9404b11890)" d="M 98.059375 228.55519 
L 1101.809375 228.55519 
" style="fill:none;stroke:#b0b0b0;stroke-linecap:square;stroke-width:0.8;"/>
     </g>
     <g id="line2d_22">
      <g>
       <use style="stroke:#000000;stroke-width:0.8;" x="98.059375" xlink:href="#m47507ee546" y="228.55519"/>
      </g>
     </g>
     <g id="text_12">
      <!-- 0.90 -->
      <defs>
       <path d="M 10.984375 1.515625 
L 10.984375 10.5 
Q 14.703125 8.734375 18.5 7.8125 
Q 22.3125 6.890625 25.984375 6.890625 
Q 35.75 6.890625 40.890625 13.453125 
Q 46.046875 20.015625 46.78125 33.40625 
Q 43.953125 29.203125 39.59375 26.953125 
Q 35.25 24.703125 29.984375 24.703125 
Q 19.046875 24.703125 12.671875 31.3125 
Q 6.296875 37.9375 6.296875 49.421875 
Q 6.296875 60.640625 12.9375 67.421875 
Q 19.578125 74.21875 30.609375 74.21875 
Q 43.265625 74.21875 49.921875 64.515625 
Q 56.59375 54.828125 56.59375 36.375 
Q 56.59375 19.140625 48.40625 8.859375 
Q 40.234375 -1.421875 26.421875 -1.421875 
Q 22.703125 -1.421875 18.890625 -0.6875 
Q 15.09375 0.046875 10.984375 1.515625 
z
M 30.609375 32.421875 
Q 37.25 32.421875 41.125 36.953125 
Q 45.015625 41.5 45.015625 49.421875 
Q 45.015625 57.28125 41.125 61.84375 
Q 37.25 66.40625 30.609375 66.40625 
Q 23.96875 66.40625 20.09375 61.84375 
Q 16.21875 57.28125 16.21875 49.421875 
Q 16.21875 41.5 20.09375 36.953125 
Q 23.96875 32.421875 30.609375 32.421875 
z
" id="DejaVuSans-57"/>
      </defs>
      <g transform="translate(35.395313 238.053237)scale(0.25 -0.25)">
       <use xlink:href="#DejaVuSans-48"/>
       <use x="63.623047" xlink:href="#DejaVuSans-46"/>
       <use x="95.410156" xlink:href="#DejaVuSans-57"/>
       <use x="159.033203" xlink:href="#DejaVuSans-48"/>
      </g>
     </g>
    </g>
    <g id="ytick_7">
     <g id="line2d_23">
      <path clip-path="url(#p9404b11890)" d="M 98.059375 122.626618 
L 1101.809375 122.626618 
" style="fill:none;stroke:#b0b0b0;stroke-linecap:square;stroke-width:0.8;"/>
     </g>
     <g id="line2d_24">
      <g>
       <use style="stroke:#000000;stroke-width:0.8;" x="98.059375" xlink:href="#m47507ee546" y="122.626618"/>
      </g>
     </g>
     <g id="text_13">
      <!-- 0.95 -->
      <g transform="translate(35.395313 132.124665)scale(0.25 -0.25)">
       <use xlink:href="#DejaVuSans-48"/>
       <use x="63.623047" xlink:href="#DejaVuSans-46"/>
       <use x="95.410156" xlink:href="#DejaVuSans-57"/>
       <use x="159.033203" xlink:href="#DejaVuSans-53"/>
      </g>
     </g>
    </g>
    <g id="ytick_8">
     <g id="line2d_25">
      <path clip-path="url(#p9404b11890)" d="M 98.059375 16.698047 
L 1101.809375 16.698047 
" style="fill:none;stroke:#b0b0b0;stroke-linecap:square;stroke-width:0.8;"/>
     </g>
     <g id="line2d_26">
      <g>
       <use style="stroke:#000000;stroke-width:0.8;" x="98.059375" xlink:href="#m47507ee546" y="16.698047"/>
      </g>
     </g>
     <g id="text_14">
      <!-- 1.00 -->
      <g transform="translate(35.395313 26.196094)scale(0.25 -0.25)">
       <use xlink:href="#DejaVuSans-49"/>
       <use x="63.623047" xlink:href="#DejaVuSans-46"/>
       <use x="95.410156" xlink:href="#DejaVuSans-48"/>
       <use x="159.033203" xlink:href="#DejaVuSans-48"/>
      </g>
     </g>
    </g>
    <g id="text_15">
     <!-- Accuracy of the trained model -->
     <defs>
      <path d="M 48.78125 52.59375 
L 48.78125 44.1875 
Q 44.96875 46.296875 41.140625 47.34375 
Q 37.3125 48.390625 33.40625 48.390625 
Q 24.65625 48.390625 19.8125 42.84375 
Q 14.984375 37.3125 14.984375 27.296875 
Q 14.984375 17.28125 19.8125 11.734375 
Q 24.65625 6.203125 33.40625 6.203125 
Q 37.3125 6.203125 41.140625 7.25 
Q 44.96875 8.296875 48.78125 10.40625 
L 48.78125 2.09375 
Q 45.015625 0.34375 40.984375 -0.53125 
Q 36.96875 -1.421875 32.421875 -1.421875 
Q 20.0625 -1.421875 12.78125 6.34375 
Q 5.515625 14.109375 5.515625 27.296875 
Q 5.515625 40.671875 12.859375 48.328125 
Q 20.21875 56 33.015625 56 
Q 37.15625 56 41.109375 55.140625 
Q 45.0625 54.296875 48.78125 52.59375 
z
" id="DejaVuSans-99"/>
      <path d="M 32.171875 -5.078125 
Q 28.375 -14.84375 24.75 -17.8125 
Q 21.140625 -20.796875 15.09375 -20.796875 
L 7.90625 -20.796875 
L 7.90625 -13.28125 
L 13.1875 -13.28125 
Q 16.890625 -13.28125 18.9375 -11.515625 
Q 21 -9.765625 23.484375 -3.21875 
L 25.09375 0.875 
L 2.984375 54.6875 
L 12.5 54.6875 
L 29.59375 11.921875 
L 46.6875 54.6875 
L 56.203125 54.6875 
z
" id="DejaVuSans-121"/>
      <path d="M 54.890625 33.015625 
L 54.890625 0 
L 45.90625 0 
L 45.90625 32.71875 
Q 45.90625 40.484375 42.875 44.328125 
Q 39.84375 48.1875 33.796875 48.1875 
Q 26.515625 48.1875 22.3125 43.546875 
Q 18.109375 38.921875 18.109375 30.90625 
L 18.109375 0 
L 9.078125 0 
L 9.078125 75.984375 
L 18.109375 75.984375 
L 18.109375 46.1875 
Q 21.34375 51.125 25.703125 53.5625 
Q 30.078125 56 35.796875 56 
Q 45.21875 56 50.046875 50.171875 
Q 54.890625 44.34375 54.890625 33.015625 
z
" id="DejaVuSans-104"/>
      <path d="M 56.203125 29.59375 
L 56.203125 25.203125 
L 14.890625 25.203125 
Q 15.484375 15.921875 20.484375 11.0625 
Q 25.484375 6.203125 34.421875 6.203125 
Q 39.59375 6.203125 44.453125 7.46875 
Q 49.3125 8.734375 54.109375 11.28125 
L 54.109375 2.78125 
Q 49.265625 0.734375 44.1875 -0.34375 
Q 39.109375 -1.421875 33.890625 -1.421875 
Q 20.796875 -1.421875 13.15625 6.1875 
Q 5.515625 13.8125 5.515625 26.8125 
Q 5.515625 40.234375 12.765625 48.109375 
Q 20.015625 56 32.328125 56 
Q 43.359375 56 49.78125 48.890625 
Q 56.203125 41.796875 56.203125 29.59375 
z
M 47.21875 32.234375 
Q 47.125 39.59375 43.09375 43.984375 
Q 39.0625 48.390625 32.421875 48.390625 
Q 24.90625 48.390625 20.390625 44.140625 
Q 15.875 39.890625 15.1875 32.171875 
z
" id="DejaVuSans-101"/>
      <path d="M 9.421875 75.984375 
L 18.40625 75.984375 
L 18.40625 0 
L 9.421875 0 
z
" id="DejaVuSans-108"/>
     </defs>
     <g transform="translate(26.196094 576.832813)rotate(-90)scale(0.25 -0.25)">
      <use xlink:href="#DejaVuSans-65"/>
      <use x="68.392578" xlink:href="#DejaVuSans-99"/>
      <use x="123.373047" xlink:href="#DejaVuSans-99"/>
      <use x="178.353516" xlink:href="#DejaVuSans-117"/>
      <use x="241.732422" xlink:href="#DejaVuSans-114"/>
      <use x="282.845703" xlink:href="#DejaVuSans-97"/>
      <use x="344.125" xlink:href="#DejaVuSans-99"/>
      <use x="399.105469" xlink:href="#DejaVuSans-121"/>
      <use x="458.285156" xlink:href="#DejaVuSans-32"/>
      <use x="490.072266" xlink:href="#DejaVuSans-111"/>
      <use x="551.253906" xlink:href="#DejaVuSans-102"/>
      <use x="586.458984" xlink:href="#DejaVuSans-32"/>
      <use x="618.246094" xlink:href="#DejaVuSans-116"/>
      <use x="657.455078" xlink:href="#DejaVuSans-104"/>
      <use x="720.833984" xlink:href="#DejaVuSans-101"/>
      <use x="782.357422" xlink:href="#DejaVuSans-32"/>
      <use x="814.144531" xlink:href="#DejaVuSans-116"/>
      <use x="853.353516" xlink:href="#DejaVuSans-114"/>
      <use x="894.466797" xlink:href="#DejaVuSans-97"/>
      <use x="955.746094" xlink:href="#DejaVuSans-105"/>
      <use x="983.529297" xlink:href="#DejaVuSans-110"/>
      <use x="1046.908203" xlink:href="#DejaVuSans-101"/>
      <use x="1108.431641" xlink:href="#DejaVuSans-100"/>
      <use x="1171.908203" xlink:href="#DejaVuSans-32"/>
      <use x="1203.695312" xlink:href="#DejaVuSans-109"/>
      <use x="1301.107422" xlink:href="#DejaVuSans-111"/>
      <use x="1362.289062" xlink:href="#DejaVuSans-100"/>
      <use x="1425.765625" xlink:href="#DejaVuSans-101"/>
      <use x="1487.289062" xlink:href="#DejaVuSans-108"/>
     </g>
    </g>
   </g>
   <g id="LineCollection_1">
    <path clip-path="url(#p9404b11890)" d="M 164.423011 272.57395 
L 205.900284 272.57395 
" style="fill:none;stroke:#1f77b4;stroke-width:1.5;"/>
    <path clip-path="url(#p9404b11890)" d="M 401.435998 277.818028 
L 442.913271 277.818028 
" style="fill:none;stroke:#1f77b4;stroke-width:1.5;"/>
    <path clip-path="url(#p9404b11890)" d="M 638.448985 307.819579 
L 679.926258 307.819579 
" style="fill:none;stroke:#1f77b4;stroke-width:1.5;"/>
    <path clip-path="url(#p9404b11890)" d="M 875.461972 422.40552 
L 916.939245 422.40552 
" style="fill:none;stroke:#1f77b4;stroke-width:1.5;"/>
    <path clip-path="url(#p9404b11890)" d="M 993.968466 653.679011 
L 1035.445739 653.679011 
" style="fill:none;stroke:#1f77b4;stroke-width:1.5;"/>
   </g>
   <g id="LineCollection_2">
    <path clip-path="url(#p9404b11890)" d="M 164.423011 266.184904 
L 205.900284 266.184904 
" style="fill:none;stroke:#1f77b4;stroke-width:1.5;"/>
    <path clip-path="url(#p9404b11890)" d="M 401.435998 263.277837 
L 442.913271 263.277837 
" style="fill:none;stroke:#1f77b4;stroke-width:1.5;"/>
    <path clip-path="url(#p9404b11890)" d="M 638.448985 287.952695 
L 679.926258 287.952695 
" style="fill:none;stroke:#1f77b4;stroke-width:1.5;"/>
    <path clip-path="url(#p9404b11890)" d="M 875.461972 372.036067 
L 916.939245 372.036067 
" style="fill:none;stroke:#1f77b4;stroke-width:1.5;"/>
    <path clip-path="url(#p9404b11890)" d="M 993.968466 588.323442 
L 1035.445739 588.323442 
" style="fill:none;stroke:#1f77b4;stroke-width:1.5;"/>
   </g>
   <g id="LineCollection_3">
    <path clip-path="url(#p9404b11890)" d="M 164.423011 288.70493 
L 205.900284 288.70493 
" style="fill:none;stroke:#1f77b4;stroke-width:1.5;"/>
    <path clip-path="url(#p9404b11890)" d="M 401.435998 299.487654 
L 442.913271 299.487654 
" style="fill:none;stroke:#1f77b4;stroke-width:1.5;"/>
    <path clip-path="url(#p9404b11890)" d="M 638.448985 371.181264 
L 679.926258 371.181264 
" style="fill:none;stroke:#1f77b4;stroke-width:1.5;"/>
    <path clip-path="url(#p9404b11890)" d="M 875.461972 457.610454 
L 916.939245 457.610454 
" style="fill:none;stroke:#1f77b4;stroke-width:1.5;"/>
    <path clip-path="url(#p9404b11890)" d="M 993.968466 741.004469 
L 1035.445739 741.004469 
" style="fill:none;stroke:#1f77b4;stroke-width:1.5;"/>
   </g>
   <g id="LineCollection_4">
    <path clip-path="url(#p9404b11890)" d="M 185.161648 288.70493 
L 185.161648 266.184904 
" style="fill:none;stroke:#1f77b4;stroke-width:1.5;"/>
    <path clip-path="url(#p9404b11890)" d="M 422.174635 299.487654 
L 422.174635 263.277837 
" style="fill:none;stroke:#1f77b4;stroke-width:1.5;"/>
    <path clip-path="url(#p9404b11890)" d="M 659.187622 371.181264 
L 659.187622 287.952695 
" style="fill:none;stroke:#1f77b4;stroke-width:1.5;"/>
    <path clip-path="url(#p9404b11890)" d="M 896.200609 457.610454 
L 896.200609 372.036067 
" style="fill:none;stroke:#1f77b4;stroke-width:1.5;"/>
    <path clip-path="url(#p9404b11890)" d="M 1014.707102 741.004469 
L 1014.707102 588.323442 
" style="fill:none;stroke:#1f77b4;stroke-width:1.5;"/>
   </g>
   <g id="patch_3">
    <path d="M 98.059375 758.198047 
L 98.059375 16.698047 
" style="fill:none;stroke:#000000;stroke-linecap:square;stroke-linejoin:miter;stroke-width:0.8;"/>
   </g>
   <g id="patch_4">
    <path d="M 1101.809375 758.198047 
L 1101.809375 16.698047 
" style="fill:none;stroke:#000000;stroke-linecap:square;stroke-linejoin:miter;stroke-width:0.8;"/>
   </g>
   <g id="patch_5">
    <path d="M 98.059375 758.198047 
L 1101.809375 758.198047 
" style="fill:none;stroke:#000000;stroke-linecap:square;stroke-linejoin:miter;stroke-width:0.8;"/>
   </g>
   <g id="patch_6">
    <path d="M 98.059375 16.698047 
L 1101.809375 16.698047 
" style="fill:none;stroke:#000000;stroke-linecap:square;stroke-linejoin:miter;stroke-width:0.8;"/>
   </g>
  </g>
 </g>
 <defs>
  <clipPath id="p9404b11890">
   <rect height="741.5" width="1003.75" x="98.059375" y="16.698047"/>
  </clipPath>
 </defs>
</svg>
