<?xml version="1.0" encoding="utf-8" standalone="no"?>
<!DOCTYPE svg PUBLIC "-//W3C//DTD SVG 1.1//EN"
  "http://www.w3.org/Graphics/SVG/1.1/DTD/svg11.dtd">
<!-- Created with matplotlib (https://matplotlib.org/) -->
<svg height="757.069687pt" version="1.1" viewBox="0 0 1084.461563 757.069687" width="1084.461563pt" xmlns="http://www.w3.org/2000/svg" xmlns:xlink="http://www.w3.org/1999/xlink">
 <defs>
  <style type="text/css">
*{stroke-linecap:butt;stroke-linejoin:round;}
  </style>
 </defs>
 <g id="figure_1">
  <g id="patch_1">
   <path d="M 0 757.069687 
L 1084.461563 757.069687 
L 1084.461563 -0 
L 0 -0 
z
" style="fill:#ffffff;"/>
  </g>
  <g id="axes_1">
   <g id="patch_2">
    <path d="M 69.361563 499.94 
L 1073.761563 499.94 
L 1073.761563 10.7 
L 69.361563 10.7 
z
" style="fill:#ffffff;"/>
   </g>
   <g id="patch_3">
    <path clip-path="url(#p10549a16bb)" d="M 115.016108 413.255032 
L 124.239248 413.255032 
L 124.239248 392.126318 
L 115.016108 392.126318 
z
" style="fill:#008000;"/>
   </g>
   <g id="patch_4">
    <path clip-path="url(#p10549a16bb)" d="M 161.13181 413.255032 
L 170.354951 413.255032 
L 170.354951 434.04699 
L 161.13181 434.04699 
z
" style="fill:#008000;"/>
   </g>
   <g id="patch_5">
    <path clip-path="url(#p10549a16bb)" d="M 207.247513 413.255032 
L 216.470653 413.255032 
L 216.470653 379.041531 
L 207.247513 379.041531 
z
" style="fill:#008000;"/>
   </g>
   <g id="patch_6">
    <path clip-path="url(#p10549a16bb)" d="M 253.363215 413.255032 
L 262.586356 413.255032 
L 262.586356 430.449062 
L 253.363215 430.449062 
z
" style="fill:#008000;"/>
   </g>
   <g id="patch_7">
    <path clip-path="url(#p10549a16bb)" d="M 299.478918 413.255032 
L 308.702058 413.255032 
L 308.702058 371.239075 
L 299.478918 371.239075 
z
" style="fill:#008000;"/>
   </g>
   <g id="patch_8">
    <path clip-path="url(#p10549a16bb)" d="M 345.59462 413.255032 
L 354.817761 413.255032 
L 354.817761 389.18339 
L 345.59462 389.18339 
z
" style="fill:#008000;"/>
   </g>
   <g id="patch_9">
    <path clip-path="url(#p10549a16bb)" d="M 391.710323 413.255032 
L 400.933463 413.255032 
L 400.933463 378.690623 
L 391.710323 378.690623 
z
" style="fill:#008000;"/>
   </g>
   <g id="patch_10">
    <path clip-path="url(#p10549a16bb)" d="M 437.826025 413.255032 
L 447.049166 413.255032 
L 447.049166 426.905786 
L 437.826025 426.905786 
z
" style="fill:#008000;"/>
   </g>
   <g id="patch_11">
    <path clip-path="url(#p10549a16bb)" d="M 483.941728 413.255032 
L 493.164868 413.255032 
L 493.164868 382.77235 
L 483.941728 382.77235 
z
" style="fill:#008000;"/>
   </g>
   <g id="patch_12">
    <path clip-path="url(#p10549a16bb)" d="M 530.05743 413.255032 
L 539.280571 413.255032 
L 539.280571 413.255032 
L 530.05743 413.255032 
z
" style="fill:#008000;"/>
   </g>
   <g id="patch_13">
    <path clip-path="url(#p10549a16bb)" d="M 576.173133 413.255032 
L 585.396273 413.255032 
L 585.396273 409.876556 
L 576.173133 409.876556 
z
" style="fill:#008000;"/>
   </g>
   <g id="patch_14">
    <path clip-path="url(#p10549a16bb)" d="M 622.288835 413.255032 
L 631.511976 413.255032 
L 631.511976 440.487596 
L 622.288835 440.487596 
z
" style="fill:#008000;"/>
   </g>
   <g id="patch_15">
    <path clip-path="url(#p10549a16bb)" d="M 668.404538 413.255032 
L 677.627678 413.255032 
L 677.627678 444.125534 
L 668.404538 444.125534 
z
" style="fill:#008000;"/>
   </g>
   <g id="patch_16">
    <path clip-path="url(#p10549a16bb)" d="M 714.52024 413.255032 
L 723.743381 413.255032 
L 723.743381 396.234679 
L 714.52024 396.234679 
z
" style="fill:#008000;"/>
   </g>
   <g id="patch_17">
    <path clip-path="url(#p10549a16bb)" d="M 760.635943 413.255032 
L 769.859083 413.255032 
L 769.859083 440.625833 
L 760.635943 440.625833 
z
" style="fill:#008000;"/>
   </g>
   <g id="patch_18">
    <path clip-path="url(#p10549a16bb)" d="M 806.751645 413.255032 
L 815.974786 413.255032 
L 815.974786 399.707173 
L 806.751645 399.707173 
z
" style="fill:#008000;"/>
   </g>
   <g id="patch_19">
    <path clip-path="url(#p10549a16bb)" d="M 852.867348 413.255032 
L 862.090488 413.255032 
L 862.090488 413.255032 
L 852.867348 413.255032 
z
" style="fill:#008000;"/>
   </g>
   <g id="patch_20">
    <path clip-path="url(#p10549a16bb)" d="M 898.98305 413.255032 
L 908.206191 413.255032 
L 908.206191 359.47796 
L 898.98305 359.47796 
z
" style="fill:#008000;"/>
   </g>
   <g id="patch_21">
    <path clip-path="url(#p10549a16bb)" d="M 945.098753 413.255032 
L 954.321893 413.255032 
L 954.321893 430.648734 
L 945.098753 430.648734 
z
" style="fill:#008000;"/>
   </g>
   <g id="patch_22">
    <path clip-path="url(#p10549a16bb)" d="M 991.214455 413.255032 
L 1000.437596 413.255032 
L 1000.437596 445.478425 
L 991.214455 445.478425 
z
" style="fill:#008000;"/>
   </g>
   <g id="patch_23">
    <path clip-path="url(#p10549a16bb)" d="M 124.239248 413.255032 
L 133.462389 413.255032 
L 133.462389 362.546119 
L 124.239248 362.546119 
z
" style="fill:#ff0000;"/>
   </g>
   <g id="patch_24">
    <path clip-path="url(#p10549a16bb)" d="M 170.354951 413.255032 
L 179.578091 413.255032 
L 179.578091 437.512316 
L 170.354951 437.512316 
z
" style="fill:#ff0000;"/>
   </g>
   <g id="patch_25">
    <path clip-path="url(#p10549a16bb)" d="M 216.470653 413.255032 
L 225.693794 413.255032 
L 225.693794 402.990982 
L 216.470653 402.990982 
z
" style="fill:#ff0000;"/>
   </g>
   <g id="patch_26">
    <path clip-path="url(#p10549a16bb)" d="M 262.586356 413.255032 
L 271.809496 413.255032 
L 271.809496 399.499808 
L 262.586356 399.499808 
z
" style="fill:#ff0000;"/>
   </g>
   <g id="patch_27">
    <path clip-path="url(#p10549a16bb)" d="M 308.702058 413.255032 
L 317.925199 413.255032 
L 317.925199 374.740405 
L 308.702058 374.740405 
z
" style="fill:#ff0000;"/>
   </g>
   <g id="patch_28">
    <path clip-path="url(#p10549a16bb)" d="M 354.817761 413.255032 
L 364.040901 413.255032 
L 364.040901 347.917718 
L 354.817761 347.917718 
z
" style="fill:#ff0000;"/>
   </g>
   <g id="patch_29">
    <path clip-path="url(#p10549a16bb)" d="M 400.933463 413.255032 
L 410.156604 413.255032 
L 410.156604 364.864859 
L 400.933463 364.864859 
z
" style="fill:#ff0000;"/>
   </g>
   <g id="patch_30">
    <path clip-path="url(#p10549a16bb)" d="M 447.049166 413.255032 
L 456.272306 413.255032 
L 456.272306 396.19159 
L 447.049166 396.19159 
z
" style="fill:#ff0000;"/>
   </g>
   <g id="patch_31">
    <path clip-path="url(#p10549a16bb)" d="M 493.164868 413.255032 
L 502.388009 413.255032 
L 502.388009 386.159314 
L 493.164868 386.159314 
z
" style="fill:#ff0000;"/>
   </g>
   <g id="patch_32">
    <path clip-path="url(#p10549a16bb)" d="M 539.280571 413.255032 
L 548.503711 413.255032 
L 548.503711 409.859536 
L 539.280571 409.859536 
z
" style="fill:#ff0000;"/>
   </g>
   <g id="patch_33">
    <path clip-path="url(#p10549a16bb)" d="M 585.396273 413.255032 
L 594.619414 413.255032 
L 594.619414 413.255032 
L 585.396273 413.255032 
z
" style="fill:#ff0000;"/>
   </g>
   <g id="patch_34">
    <path clip-path="url(#p10549a16bb)" d="M 631.511976 413.255032 
L 640.735116 413.255032 
L 640.735116 437.083526 
L 631.511976 437.083526 
z
" style="fill:#ff0000;"/>
   </g>
   <g id="patch_35">
    <path clip-path="url(#p10549a16bb)" d="M 677.627678 413.255032 
L 686.850819 413.255032 
L 686.850819 399.534809 
L 677.627678 399.534809 
z
" style="fill:#ff0000;"/>
   </g>
   <g id="patch_36">
    <path clip-path="url(#p10549a16bb)" d="M 723.743381 413.255032 
L 732.966521 413.255032 
L 732.966521 389.426538 
L 723.743381 389.426538 
z
" style="fill:#ff0000;"/>
   </g>
   <g id="patch_37">
    <path clip-path="url(#p10549a16bb)" d="M 769.859083 413.255032 
L 779.082224 413.255032 
L 779.082224 420.097732 
L 769.859083 420.097732 
z
" style="fill:#ff0000;"/>
   </g>
   <g id="patch_38">
    <path clip-path="url(#p10549a16bb)" d="M 815.974786 413.255032 
L 825.197926 413.255032 
L 825.197926 389.546279 
L 815.974786 389.546279 
z
" style="fill:#ff0000;"/>
   </g>
   <g id="patch_39">
    <path clip-path="url(#p10549a16bb)" d="M 862.090488 413.255032 
L 871.313629 413.255032 
L 871.313629 354.00176 
L 862.090488 354.00176 
z
" style="fill:#ff0000;"/>
   </g>
   <g id="patch_40">
    <path clip-path="url(#p10549a16bb)" d="M 908.206191 413.255032 
L 917.429331 413.255032 
L 917.429331 388.159065 
L 908.206191 388.159065 
z
" style="fill:#ff0000;"/>
   </g>
   <g id="patch_41">
    <path clip-path="url(#p10549a16bb)" d="M 954.321893 413.255032 
L 963.545034 413.255032 
L 963.545034 434.99716 
L 954.321893 434.99716 
z
" style="fill:#ff0000;"/>
   </g>
   <g id="patch_42">
    <path clip-path="url(#p10549a16bb)" d="M 1000.437596 413.255032 
L 1009.660736 413.255032 
L 1009.660736 386.402204 
L 1000.437596 386.402204 
z
" style="fill:#ff0000;"/>
   </g>
   <g id="patch_43">
    <path clip-path="url(#p10549a16bb)" d="M 133.462389 413.255032 
L 142.685529 413.255032 
L 142.685529 172.387694 
L 133.462389 172.387694 
z
" style="fill:#00bfbf;"/>
   </g>
   <g id="patch_44">
    <path clip-path="url(#p10549a16bb)" d="M 179.578091 413.255032 
L 188.801232 413.255032 
L 188.801232 399.393727 
L 179.578091 399.393727 
z
" style="fill:#00bfbf;"/>
   </g>
   <g id="patch_45">
    <path clip-path="url(#p10549a16bb)" d="M 225.693794 413.255032 
L 234.916934 413.255032 
L 234.916934 399.569631 
L 225.693794 399.569631 
z
" style="fill:#00bfbf;"/>
   </g>
   <g id="patch_46">
    <path clip-path="url(#p10549a16bb)" d="M 271.809496 413.255032 
L 281.032637 413.255032 
L 281.032637 475.15354 
L 271.809496 475.15354 
z
" style="fill:#00bfbf;"/>
   </g>
   <g id="patch_47">
    <path clip-path="url(#p10549a16bb)" d="M 317.925199 413.255032 
L 327.148339 413.255032 
L 327.148339 245.191205 
L 317.925199 245.191205 
z
" style="fill:#00bfbf;"/>
   </g>
   <g id="patch_48">
    <path clip-path="url(#p10549a16bb)" d="M 364.040901 413.255032 
L 373.264042 413.255032 
L 373.264042 306.652046 
L 364.040901 306.652046 
z
" style="fill:#00bfbf;"/>
   </g>
   <g id="patch_49">
    <path clip-path="url(#p10549a16bb)" d="M 410.156604 413.255032 
L 419.379744 413.255032 
L 419.379744 230.063665 
L 410.156604 230.063665 
z
" style="fill:#00bfbf;"/>
   </g>
   <g id="patch_50">
    <path clip-path="url(#p10549a16bb)" d="M 456.272306 413.255032 
L 465.495447 413.255032 
L 465.495447 416.66772 
L 456.272306 416.66772 
z
" style="fill:#00bfbf;"/>
   </g>
   <g id="patch_51">
    <path clip-path="url(#p10549a16bb)" d="M 502.388009 413.255032 
L 511.611149 413.255032 
L 511.611149 342.128773 
L 502.388009 342.128773 
z
" style="fill:#00bfbf;"/>
   </g>
   <g id="patch_52">
    <path clip-path="url(#p10549a16bb)" d="M 548.503711 413.255032 
L 557.726852 413.255032 
L 557.726852 413.255032 
L 548.503711 413.255032 
z
" style="fill:#00bfbf;"/>
   </g>
   <g id="patch_53">
    <path clip-path="url(#p10549a16bb)" d="M 594.619414 413.255032 
L 603.842554 413.255032 
L 603.842554 409.876556 
L 594.619414 409.876556 
z
" style="fill:#00bfbf;"/>
   </g>
   <g id="patch_54">
    <path clip-path="url(#p10549a16bb)" d="M 640.735116 413.255032 
L 649.958257 413.255032 
L 649.958257 440.487596 
L 640.735116 440.487596 
z
" style="fill:#00bfbf;"/>
   </g>
   <g id="patch_55">
    <path clip-path="url(#p10549a16bb)" d="M 686.850819 413.255032 
L 696.073959 413.255032 
L 696.073959 252.042407 
L 686.850819 252.042407 
z
" style="fill:#00bfbf;"/>
   </g>
   <g id="patch_56">
    <path clip-path="url(#p10549a16bb)" d="M 732.966521 413.255032 
L 742.189662 413.255032 
L 742.189662 294.112562 
L 732.966521 294.112562 
z
" style="fill:#00bfbf;"/>
   </g>
   <g id="patch_57">
    <path clip-path="url(#p10549a16bb)" d="M 779.082224 413.255032 
L 788.305364 413.255032 
L 788.305364 355.09208 
L 779.082224 355.09208 
z
" style="fill:#00bfbf;"/>
   </g>
   <g id="patch_58">
    <path clip-path="url(#p10549a16bb)" d="M 825.197926 413.255032 
L 834.421067 413.255032 
L 834.421067 325.19395 
L 825.197926 325.19395 
z
" style="fill:#00bfbf;"/>
   </g>
   <g id="patch_59">
    <path clip-path="url(#p10549a16bb)" d="M 871.313629 413.255032 
L 880.536769 413.255032 
L 880.536769 313.265135 
L 871.313629 313.265135 
z
" style="fill:#00bfbf;"/>
   </g>
   <g id="patch_60">
    <path clip-path="url(#p10549a16bb)" d="M 917.429331 413.255032 
L 926.652472 413.255032 
L 926.652472 398.914479 
L 917.429331 398.914479 
z
" style="fill:#00bfbf;"/>
   </g>
   <g id="patch_61">
    <path clip-path="url(#p10549a16bb)" d="M 963.545034 413.255032 
L 972.768174 413.255032 
L 972.768174 452.390863 
L 963.545034 452.390863 
z
" style="fill:#00bfbf;"/>
   </g>
   <g id="patch_62">
    <path clip-path="url(#p10549a16bb)" d="M 1009.660736 413.255032 
L 1018.883877 413.255032 
L 1018.883877 477.701818 
L 1009.660736 477.701818 
z
" style="fill:#00bfbf;"/>
   </g>
   <g id="patch_63">
    <path clip-path="url(#p10549a16bb)" d="M 142.685529 413.255032 
L 151.90867 413.255032 
L 151.90867 32.938182 
L 142.685529 32.938182 
z
" style="fill:#bf00bf;"/>
   </g>
   <g id="patch_64">
    <path clip-path="url(#p10549a16bb)" d="M 188.801232 413.255032 
L 198.024372 413.255032 
L 198.024372 420.185685 
L 188.801232 420.185685 
z
" style="fill:#bf00bf;"/>
   </g>
   <g id="patch_65">
    <path clip-path="url(#p10549a16bb)" d="M 234.916934 413.255032 
L 244.140075 413.255032 
L 244.140075 444.047183 
L 234.916934 444.047183 
z
" style="fill:#bf00bf;"/>
   </g>
   <g id="patch_66">
    <path clip-path="url(#p10549a16bb)" d="M 281.032637 413.255032 
L 290.255777 413.255032 
L 290.255777 457.95951 
L 281.032637 457.95951 
z
" style="fill:#bf00bf;"/>
   </g>
   <g id="patch_67">
    <path clip-path="url(#p10549a16bb)" d="M 327.148339 413.255032 
L 336.37148 413.255032 
L 336.37148 157.657962 
L 327.148339 157.657962 
z
" style="fill:#bf00bf;"/>
   </g>
   <g id="patch_68">
    <path clip-path="url(#p10549a16bb)" d="M 373.264042 413.255032 
L 382.487182 413.255032 
L 382.487182 203.487867 
L 373.264042 203.487867 
z
" style="fill:#bf00bf;"/>
   </g>
   <g id="patch_69">
    <path clip-path="url(#p10549a16bb)" d="M 419.379744 413.255032 
L 428.602885 413.255032 
L 428.602885 154.021965 
L 419.379744 154.021965 
z
" style="fill:#bf00bf;"/>
   </g>
   <g id="patch_70">
    <path clip-path="url(#p10549a16bb)" d="M 465.495447 413.255032 
L 474.718587 413.255032 
L 474.718587 372.30277 
L 465.495447 372.30277 
z
" style="fill:#bf00bf;"/>
   </g>
   <g id="patch_71">
    <path clip-path="url(#p10549a16bb)" d="M 511.611149 413.255032 
L 520.83429 413.255032 
L 520.83429 274.38948 
L 511.611149 274.38948 
z
" style="fill:#bf00bf;"/>
   </g>
   <g id="patch_72">
    <path clip-path="url(#p10549a16bb)" d="M 557.726852 413.255032 
L 566.949992 413.255032 
L 566.949992 409.859536 
L 557.726852 409.859536 
z
" style="fill:#bf00bf;"/>
   </g>
   <g id="patch_73">
    <path clip-path="url(#p10549a16bb)" d="M 603.842554 413.255032 
L 613.065695 413.255032 
L 613.065695 403.119604 
L 603.842554 403.119604 
z
" style="fill:#bf00bf;"/>
   </g>
   <g id="patch_74">
    <path clip-path="url(#p10549a16bb)" d="M 649.958257 413.255032 
L 659.181397 413.255032 
L 659.181397 440.487596 
L 649.958257 440.487596 
z
" style="fill:#bf00bf;"/>
   </g>
   <g id="patch_75">
    <path clip-path="url(#p10549a16bb)" d="M 696.073959 413.255032 
L 705.2971 413.255032 
L 705.2971 169.721067 
L 696.073959 169.721067 
z
" style="fill:#bf00bf;"/>
   </g>
   <g id="patch_76">
    <path clip-path="url(#p10549a16bb)" d="M 742.189662 413.255032 
L 751.412802 413.255032 
L 751.412802 246.455574 
L 742.189662 246.455574 
z
" style="fill:#bf00bf;"/>
   </g>
   <g id="patch_77">
    <path clip-path="url(#p10549a16bb)" d="M 788.305364 413.255032 
L 797.528505 413.255032 
L 797.528505 290.086428 
L 788.305364 290.086428 
z
" style="fill:#bf00bf;"/>
   </g>
   <g id="patch_78">
    <path clip-path="url(#p10549a16bb)" d="M 834.421067 413.255032 
L 843.644207 413.255032 
L 843.644207 199.876256 
L 834.421067 199.876256 
z
" style="fill:#bf00bf;"/>
   </g>
   <g id="patch_79">
    <path clip-path="url(#p10549a16bb)" d="M 880.536769 413.255032 
L 889.75991 413.255032 
L 889.75991 294.748487 
L 880.536769 294.748487 
z
" style="fill:#bf00bf;"/>
   </g>
   <g id="patch_80">
    <path clip-path="url(#p10549a16bb)" d="M 926.652472 413.255032 
L 935.875612 413.255032 
L 935.875612 416.84017 
L 926.652472 416.84017 
z
" style="fill:#bf00bf;"/>
   </g>
   <g id="patch_81">
    <path clip-path="url(#p10549a16bb)" d="M 972.768174 413.255032 
L 981.991315 413.255032 
L 981.991315 413.255032 
L 972.768174 413.255032 
z
" style="fill:#bf00bf;"/>
   </g>
   <g id="patch_82">
    <path clip-path="url(#p10549a16bb)" d="M 1018.883877 413.255032 
L 1028.107017 413.255032 
L 1028.107017 423.996163 
L 1018.883877 423.996163 
z
" style="fill:#bf00bf;"/>
   </g>
   <g id="matplotlib.axis_1">
    <g id="xtick_1">
     <g id="line2d_1">
      <defs>
       <path d="M 0 0 
L 0 3.5 
" id="ma0f0abf69b" style="stroke:#000000;stroke-width:0.8;"/>
      </defs>
      <g>
       <use style="stroke:#000000;stroke-width:0.8;" x="142.685529" xlink:href="#ma0f0abf69b" y="499.94"/>
      </g>
     </g>
     <g id="text_1">
      <!-- alt.atheism -->
      <defs>
       <path d="M 34.28125 27.484375 
Q 23.390625 27.484375 19.1875 25 
Q 14.984375 22.515625 14.984375 16.5 
Q 14.984375 11.71875 18.140625 8.90625 
Q 21.296875 6.109375 26.703125 6.109375 
Q 34.1875 6.109375 38.703125 11.40625 
Q 43.21875 16.703125 43.21875 25.484375 
L 43.21875 27.484375 
z
M 52.203125 31.203125 
L 52.203125 0 
L 43.21875 0 
L 43.21875 8.296875 
Q 40.140625 3.328125 35.546875 0.953125 
Q 30.953125 -1.421875 24.3125 -1.421875 
Q 15.921875 -1.421875 10.953125 3.296875 
Q 6 8.015625 6 15.921875 
Q 6 25.140625 12.171875 29.828125 
Q 18.359375 34.515625 30.609375 34.515625 
L 43.21875 34.515625 
L 43.21875 35.40625 
Q 43.21875 41.609375 39.140625 45 
Q 35.0625 48.390625 27.6875 48.390625 
Q 23 48.390625 18.546875 47.265625 
Q 14.109375 46.140625 10.015625 43.890625 
L 10.015625 52.203125 
Q 14.9375 54.109375 19.578125 55.046875 
Q 24.21875 56 28.609375 56 
Q 40.484375 56 46.34375 49.84375 
Q 52.203125 43.703125 52.203125 31.203125 
z
" id="DejaVuSans-97"/>
       <path d="M 9.421875 75.984375 
L 18.40625 75.984375 
L 18.40625 0 
L 9.421875 0 
z
" id="DejaVuSans-108"/>
       <path d="M 18.3125 70.21875 
L 18.3125 54.6875 
L 36.8125 54.6875 
L 36.8125 47.703125 
L 18.3125 47.703125 
L 18.3125 18.015625 
Q 18.3125 11.328125 20.140625 9.421875 
Q 21.96875 7.515625 27.59375 7.515625 
L 36.8125 7.515625 
L 36.8125 0 
L 27.59375 0 
Q 17.1875 0 13.234375 3.875 
Q 9.28125 7.765625 9.28125 18.015625 
L 9.28125 47.703125 
L 2.6875 47.703125 
L 2.6875 54.6875 
L 9.28125 54.6875 
L 9.28125 70.21875 
z
" id="DejaVuSans-116"/>
       <path d="M 10.6875 12.40625 
L 21 12.40625 
L 21 0 
L 10.6875 0 
z
" id="DejaVuSans-46"/>
       <path d="M 54.890625 33.015625 
L 54.890625 0 
L 45.90625 0 
L 45.90625 32.71875 
Q 45.90625 40.484375 42.875 44.328125 
Q 39.84375 48.1875 33.796875 48.1875 
Q 26.515625 48.1875 22.3125 43.546875 
Q 18.109375 38.921875 18.109375 30.90625 
L 18.109375 0 
L 9.078125 0 
L 9.078125 75.984375 
L 18.109375 75.984375 
L 18.109375 46.1875 
Q 21.34375 51.125 25.703125 53.5625 
Q 30.078125 56 35.796875 56 
Q 45.21875 56 50.046875 50.171875 
Q 54.890625 44.34375 54.890625 33.015625 
z
" id="DejaVuSans-104"/>
       <path d="M 56.203125 29.59375 
L 56.203125 25.203125 
L 14.890625 25.203125 
Q 15.484375 15.921875 20.484375 11.0625 
Q 25.484375 6.203125 34.421875 6.203125 
Q 39.59375 6.203125 44.453125 7.46875 
Q 49.3125 8.734375 54.109375 11.28125 
L 54.109375 2.78125 
Q 49.265625 0.734375 44.1875 -0.34375 
Q 39.109375 -1.421875 33.890625 -1.421875 
Q 20.796875 -1.421875 13.15625 6.1875 
Q 5.515625 13.8125 5.515625 26.8125 
Q 5.515625 40.234375 12.765625 48.109375 
Q 20.015625 56 32.328125 56 
Q 43.359375 56 49.78125 48.890625 
Q 56.203125 41.796875 56.203125 29.59375 
z
M 47.21875 32.234375 
Q 47.125 39.59375 43.09375 43.984375 
Q 39.0625 48.390625 32.421875 48.390625 
Q 24.90625 48.390625 20.390625 44.140625 
Q 15.875 39.890625 15.1875 32.171875 
z
" id="DejaVuSans-101"/>
       <path d="M 9.421875 54.6875 
L 18.40625 54.6875 
L 18.40625 0 
L 9.421875 0 
z
M 9.421875 75.984375 
L 18.40625 75.984375 
L 18.40625 64.59375 
L 9.421875 64.59375 
z
" id="DejaVuSans-105"/>
       <path d="M 44.28125 53.078125 
L 44.28125 44.578125 
Q 40.484375 46.53125 36.375 47.5 
Q 32.28125 48.484375 27.875 48.484375 
Q 21.1875 48.484375 17.84375 46.4375 
Q 14.5 44.390625 14.5 40.28125 
Q 14.5 37.15625 16.890625 35.375 
Q 19.28125 33.59375 26.515625 31.984375 
L 29.59375 31.296875 
Q 39.15625 29.25 43.1875 25.515625 
Q 47.21875 21.78125 47.21875 15.09375 
Q 47.21875 7.46875 41.1875 3.015625 
Q 35.15625 -1.421875 24.609375 -1.421875 
Q 20.21875 -1.421875 15.453125 -0.5625 
Q 10.6875 0.296875 5.421875 2 
L 5.421875 11.28125 
Q 10.40625 8.6875 15.234375 7.390625 
Q 20.0625 6.109375 24.8125 6.109375 
Q 31.15625 6.109375 34.5625 8.28125 
Q 37.984375 10.453125 37.984375 14.40625 
Q 37.984375 18.0625 35.515625 20.015625 
Q 33.0625 21.96875 24.703125 23.78125 
L 21.578125 24.515625 
Q 13.234375 26.265625 9.515625 29.90625 
Q 5.8125 33.546875 5.8125 39.890625 
Q 5.8125 47.609375 11.28125 51.796875 
Q 16.75 56 26.8125 56 
Q 31.78125 56 36.171875 55.265625 
Q 40.578125 54.546875 44.28125 53.078125 
z
" id="DejaVuSans-115"/>
       <path d="M 52 44.1875 
Q 55.375 50.25 60.0625 53.125 
Q 64.75 56 71.09375 56 
Q 79.640625 56 84.28125 50.015625 
Q 88.921875 44.046875 88.921875 33.015625 
L 88.921875 0 
L 79.890625 0 
L 79.890625 32.71875 
Q 79.890625 40.578125 77.09375 44.375 
Q 74.3125 48.1875 68.609375 48.1875 
Q 61.625 48.1875 57.5625 43.546875 
Q 53.515625 38.921875 53.515625 30.90625 
L 53.515625 0 
L 44.484375 0 
L 44.484375 32.71875 
Q 44.484375 40.625 41.703125 44.40625 
Q 38.921875 48.1875 33.109375 48.1875 
Q 26.21875 48.1875 22.15625 43.53125 
Q 18.109375 38.875 18.109375 30.90625 
L 18.109375 0 
L 9.078125 0 
L 9.078125 54.6875 
L 18.109375 54.6875 
L 18.109375 46.1875 
Q 21.1875 51.21875 25.484375 53.609375 
Q 29.78125 56 35.6875 56 
Q 41.65625 56 45.828125 52.96875 
Q 50 49.953125 52 44.1875 
z
" id="DejaVuSans-109"/>
      </defs>
      <g style="fill:#ff0000;" transform="translate(147.652404 608.229375)rotate(-90)scale(0.18 -0.18)">
       <use xlink:href="#DejaVuSans-97"/>
       <use x="61.279297" xlink:href="#DejaVuSans-108"/>
       <use x="89.0625" xlink:href="#DejaVuSans-116"/>
       <use x="128.271484" xlink:href="#DejaVuSans-46"/>
       <use x="160.058594" xlink:href="#DejaVuSans-97"/>
       <use x="221.337891" xlink:href="#DejaVuSans-116"/>
       <use x="260.546875" xlink:href="#DejaVuSans-104"/>
       <use x="323.925781" xlink:href="#DejaVuSans-101"/>
       <use x="385.449219" xlink:href="#DejaVuSans-105"/>
       <use x="413.232422" xlink:href="#DejaVuSans-115"/>
       <use x="465.332031" xlink:href="#DejaVuSans-109"/>
      </g>
     </g>
    </g>
    <g id="xtick_2">
     <g id="line2d_2">
      <g>
       <use style="stroke:#000000;stroke-width:0.8;" x="188.801232" xlink:href="#ma0f0abf69b" y="499.94"/>
      </g>
     </g>
     <g id="text_2">
      <!-- comp.graphics -->
      <defs>
       <path d="M 48.78125 52.59375 
L 48.78125 44.1875 
Q 44.96875 46.296875 41.140625 47.34375 
Q 37.3125 48.390625 33.40625 48.390625 
Q 24.65625 48.390625 19.8125 42.84375 
Q 14.984375 37.3125 14.984375 27.296875 
Q 14.984375 17.28125 19.8125 11.734375 
Q 24.65625 6.203125 33.40625 6.203125 
Q 37.3125 6.203125 41.140625 7.25 
Q 44.96875 8.296875 48.78125 10.40625 
L 48.78125 2.09375 
Q 45.015625 0.34375 40.984375 -0.53125 
Q 36.96875 -1.421875 32.421875 -1.421875 
Q 20.0625 -1.421875 12.78125 6.34375 
Q 5.515625 14.109375 5.515625 27.296875 
Q 5.515625 40.671875 12.859375 48.328125 
Q 20.21875 56 33.015625 56 
Q 37.15625 56 41.109375 55.140625 
Q 45.0625 54.296875 48.78125 52.59375 
z
" id="DejaVuSans-99"/>
       <path d="M 30.609375 48.390625 
Q 23.390625 48.390625 19.1875 42.75 
Q 14.984375 37.109375 14.984375 27.296875 
Q 14.984375 17.484375 19.15625 11.84375 
Q 23.34375 6.203125 30.609375 6.203125 
Q 37.796875 6.203125 41.984375 11.859375 
Q 46.1875 17.53125 46.1875 27.296875 
Q 46.1875 37.015625 41.984375 42.703125 
Q 37.796875 48.390625 30.609375 48.390625 
z
M 30.609375 56 
Q 42.328125 56 49.015625 48.375 
Q 55.71875 40.765625 55.71875 27.296875 
Q 55.71875 13.875 49.015625 6.21875 
Q 42.328125 -1.421875 30.609375 -1.421875 
Q 18.84375 -1.421875 12.171875 6.21875 
Q 5.515625 13.875 5.515625 27.296875 
Q 5.515625 40.765625 12.171875 48.375 
Q 18.84375 56 30.609375 56 
z
" id="DejaVuSans-111"/>
       <path d="M 18.109375 8.203125 
L 18.109375 -20.796875 
L 9.078125 -20.796875 
L 9.078125 54.6875 
L 18.109375 54.6875 
L 18.109375 46.390625 
Q 20.953125 51.265625 25.265625 53.625 
Q 29.59375 56 35.59375 56 
Q 45.5625 56 51.78125 48.09375 
Q 58.015625 40.1875 58.015625 27.296875 
Q 58.015625 14.40625 51.78125 6.484375 
Q 45.5625 -1.421875 35.59375 -1.421875 
Q 29.59375 -1.421875 25.265625 0.953125 
Q 20.953125 3.328125 18.109375 8.203125 
z
M 48.6875 27.296875 
Q 48.6875 37.203125 44.609375 42.84375 
Q 40.53125 48.484375 33.40625 48.484375 
Q 26.265625 48.484375 22.1875 42.84375 
Q 18.109375 37.203125 18.109375 27.296875 
Q 18.109375 17.390625 22.1875 11.75 
Q 26.265625 6.109375 33.40625 6.109375 
Q 40.53125 6.109375 44.609375 11.75 
Q 48.6875 17.390625 48.6875 27.296875 
z
" id="DejaVuSans-112"/>
       <path d="M 45.40625 27.984375 
Q 45.40625 37.75 41.375 43.109375 
Q 37.359375 48.484375 30.078125 48.484375 
Q 22.859375 48.484375 18.828125 43.109375 
Q 14.796875 37.75 14.796875 27.984375 
Q 14.796875 18.265625 18.828125 12.890625 
Q 22.859375 7.515625 30.078125 7.515625 
Q 37.359375 7.515625 41.375 12.890625 
Q 45.40625 18.265625 45.40625 27.984375 
z
M 54.390625 6.78125 
Q 54.390625 -7.171875 48.1875 -13.984375 
Q 42 -20.796875 29.203125 -20.796875 
Q 24.46875 -20.796875 20.265625 -20.09375 
Q 16.0625 -19.390625 12.109375 -17.921875 
L 12.109375 -9.1875 
Q 16.0625 -11.328125 19.921875 -12.34375 
Q 23.78125 -13.375 27.78125 -13.375 
Q 36.625 -13.375 41.015625 -8.765625 
Q 45.40625 -4.15625 45.40625 5.171875 
L 45.40625 9.625 
Q 42.625 4.78125 38.28125 2.390625 
Q 33.9375 0 27.875 0 
Q 17.828125 0 11.671875 7.65625 
Q 5.515625 15.328125 5.515625 27.984375 
Q 5.515625 40.671875 11.671875 48.328125 
Q 17.828125 56 27.875 56 
Q 33.9375 56 38.28125 53.609375 
Q 42.625 51.21875 45.40625 46.390625 
L 45.40625 54.6875 
L 54.390625 54.6875 
z
" id="DejaVuSans-103"/>
       <path d="M 41.109375 46.296875 
Q 39.59375 47.171875 37.8125 47.578125 
Q 36.03125 48 33.890625 48 
Q 26.265625 48 22.1875 43.046875 
Q 18.109375 38.09375 18.109375 28.8125 
L 18.109375 0 
L 9.078125 0 
L 9.078125 54.6875 
L 18.109375 54.6875 
L 18.109375 46.1875 
Q 20.953125 51.171875 25.484375 53.578125 
Q 30.03125 56 36.53125 56 
Q 37.453125 56 38.578125 55.875 
Q 39.703125 55.765625 41.0625 55.515625 
z
" id="DejaVuSans-114"/>
      </defs>
      <g transform="translate(193.768107 639.49875)rotate(-90)scale(0.18 -0.18)">
       <use xlink:href="#DejaVuSans-99"/>
       <use x="54.980469" xlink:href="#DejaVuSans-111"/>
       <use x="116.162109" xlink:href="#DejaVuSans-109"/>
       <use x="213.574219" xlink:href="#DejaVuSans-112"/>
       <use x="277.050781" xlink:href="#DejaVuSans-46"/>
       <use x="308.837891" xlink:href="#DejaVuSans-103"/>
       <use x="372.314453" xlink:href="#DejaVuSans-114"/>
       <use x="413.427734" xlink:href="#DejaVuSans-97"/>
       <use x="474.707031" xlink:href="#DejaVuSans-112"/>
       <use x="538.183594" xlink:href="#DejaVuSans-104"/>
       <use x="601.5625" xlink:href="#DejaVuSans-105"/>
       <use x="629.345703" xlink:href="#DejaVuSans-99"/>
       <use x="684.326172" xlink:href="#DejaVuSans-115"/>
      </g>
     </g>
    </g>
    <g id="xtick_3">
     <g id="line2d_3">
      <g>
       <use style="stroke:#000000;stroke-width:0.8;" x="234.916934" xlink:href="#ma0f0abf69b" y="499.94"/>
      </g>
     </g>
     <g id="text_3">
      <!-- comp.os.ms-windows.misc -->
      <defs>
       <path d="M 4.890625 31.390625 
L 31.203125 31.390625 
L 31.203125 23.390625 
L 4.890625 23.390625 
z
" id="DejaVuSans-45"/>
       <path d="M 4.203125 54.6875 
L 13.1875 54.6875 
L 24.421875 12.015625 
L 35.59375 54.6875 
L 46.1875 54.6875 
L 57.421875 12.015625 
L 68.609375 54.6875 
L 77.59375 54.6875 
L 63.28125 0 
L 52.6875 0 
L 40.921875 44.828125 
L 29.109375 0 
L 18.5 0 
z
" id="DejaVuSans-119"/>
       <path d="M 54.890625 33.015625 
L 54.890625 0 
L 45.90625 0 
L 45.90625 32.71875 
Q 45.90625 40.484375 42.875 44.328125 
Q 39.84375 48.1875 33.796875 48.1875 
Q 26.515625 48.1875 22.3125 43.546875 
Q 18.109375 38.921875 18.109375 30.90625 
L 18.109375 0 
L 9.078125 0 
L 9.078125 54.6875 
L 18.109375 54.6875 
L 18.109375 46.1875 
Q 21.34375 51.125 25.703125 53.5625 
Q 30.078125 56 35.796875 56 
Q 45.21875 56 50.046875 50.171875 
Q 54.890625 44.34375 54.890625 33.015625 
z
" id="DejaVuSans-110"/>
       <path d="M 45.40625 46.390625 
L 45.40625 75.984375 
L 54.390625 75.984375 
L 54.390625 0 
L 45.40625 0 
L 45.40625 8.203125 
Q 42.578125 3.328125 38.25 0.953125 
Q 33.9375 -1.421875 27.875 -1.421875 
Q 17.96875 -1.421875 11.734375 6.484375 
Q 5.515625 14.40625 5.515625 27.296875 
Q 5.515625 40.1875 11.734375 48.09375 
Q 17.96875 56 27.875 56 
Q 33.9375 56 38.25 53.625 
Q 42.578125 51.265625 45.40625 46.390625 
z
M 14.796875 27.296875 
Q 14.796875 17.390625 18.875 11.75 
Q 22.953125 6.109375 30.078125 6.109375 
Q 37.203125 6.109375 41.296875 11.75 
Q 45.40625 17.390625 45.40625 27.296875 
Q 45.40625 37.203125 41.296875 42.84375 
Q 37.203125 48.484375 30.078125 48.484375 
Q 22.953125 48.484375 18.875 42.84375 
Q 14.796875 37.203125 14.796875 27.296875 
z
" id="DejaVuSans-100"/>
      </defs>
      <g transform="translate(239.883809 747.242813)rotate(-90)scale(0.18 -0.18)">
       <use xlink:href="#DejaVuSans-99"/>
       <use x="54.980469" xlink:href="#DejaVuSans-111"/>
       <use x="116.162109" xlink:href="#DejaVuSans-109"/>
       <use x="213.574219" xlink:href="#DejaVuSans-112"/>
       <use x="277.050781" xlink:href="#DejaVuSans-46"/>
       <use x="308.837891" xlink:href="#DejaVuSans-111"/>
       <use x="370.019531" xlink:href="#DejaVuSans-115"/>
       <use x="422.119141" xlink:href="#DejaVuSans-46"/>
       <use x="453.90625" xlink:href="#DejaVuSans-109"/>
       <use x="551.318359" xlink:href="#DejaVuSans-115"/>
       <use x="603.417969" xlink:href="#DejaVuSans-45"/>
       <use x="639.501953" xlink:href="#DejaVuSans-119"/>
       <use x="721.289062" xlink:href="#DejaVuSans-105"/>
       <use x="749.072266" xlink:href="#DejaVuSans-110"/>
       <use x="812.451172" xlink:href="#DejaVuSans-100"/>
       <use x="875.927734" xlink:href="#DejaVuSans-111"/>
       <use x="937.109375" xlink:href="#DejaVuSans-119"/>
       <use x="1018.896484" xlink:href="#DejaVuSans-115"/>
       <use x="1070.996094" xlink:href="#DejaVuSans-46"/>
       <use x="1102.783203" xlink:href="#DejaVuSans-109"/>
       <use x="1200.195312" xlink:href="#DejaVuSans-105"/>
       <use x="1227.978516" xlink:href="#DejaVuSans-115"/>
       <use x="1280.078125" xlink:href="#DejaVuSans-99"/>
      </g>
     </g>
    </g>
    <g id="xtick_4">
     <g id="line2d_4">
      <g>
       <use style="stroke:#000000;stroke-width:0.8;" x="281.032637" xlink:href="#ma0f0abf69b" y="499.94"/>
      </g>
     </g>
     <g id="text_4">
      <!-- comp.sys.ibm.pc.hardware -->
      <defs>
       <path d="M 32.171875 -5.078125 
Q 28.375 -14.84375 24.75 -17.8125 
Q 21.140625 -20.796875 15.09375 -20.796875 
L 7.90625 -20.796875 
L 7.90625 -13.28125 
L 13.1875 -13.28125 
Q 16.890625 -13.28125 18.9375 -11.515625 
Q 21 -9.765625 23.484375 -3.21875 
L 25.09375 0.875 
L 2.984375 54.6875 
L 12.5 54.6875 
L 29.59375 11.921875 
L 46.6875 54.6875 
L 56.203125 54.6875 
z
" id="DejaVuSans-121"/>
       <path d="M 48.6875 27.296875 
Q 48.6875 37.203125 44.609375 42.84375 
Q 40.53125 48.484375 33.40625 48.484375 
Q 26.265625 48.484375 22.1875 42.84375 
Q 18.109375 37.203125 18.109375 27.296875 
Q 18.109375 17.390625 22.1875 11.75 
Q 26.265625 6.109375 33.40625 6.109375 
Q 40.53125 6.109375 44.609375 11.75 
Q 48.6875 17.390625 48.6875 27.296875 
z
M 18.109375 46.390625 
Q 20.953125 51.265625 25.265625 53.625 
Q 29.59375 56 35.59375 56 
Q 45.5625 56 51.78125 48.09375 
Q 58.015625 40.1875 58.015625 27.296875 
Q 58.015625 14.40625 51.78125 6.484375 
Q 45.5625 -1.421875 35.59375 -1.421875 
Q 29.59375 -1.421875 25.265625 0.953125 
Q 20.953125 3.328125 18.109375 8.203125 
L 18.109375 0 
L 9.078125 0 
L 9.078125 75.984375 
L 18.109375 75.984375 
z
" id="DejaVuSans-98"/>
      </defs>
      <g transform="translate(285.999512 749.869688)rotate(-90)scale(0.18 -0.18)">
       <use xlink:href="#DejaVuSans-99"/>
       <use x="54.980469" xlink:href="#DejaVuSans-111"/>
       <use x="116.162109" xlink:href="#DejaVuSans-109"/>
       <use x="213.574219" xlink:href="#DejaVuSans-112"/>
       <use x="277.050781" xlink:href="#DejaVuSans-46"/>
       <use x="308.837891" xlink:href="#DejaVuSans-115"/>
       <use x="360.9375" xlink:href="#DejaVuSans-121"/>
       <use x="420.117188" xlink:href="#DejaVuSans-115"/>
       <use x="472.216797" xlink:href="#DejaVuSans-46"/>
       <use x="504.003906" xlink:href="#DejaVuSans-105"/>
       <use x="531.787109" xlink:href="#DejaVuSans-98"/>
       <use x="595.263672" xlink:href="#DejaVuSans-109"/>
       <use x="692.675781" xlink:href="#DejaVuSans-46"/>
       <use x="724.462891" xlink:href="#DejaVuSans-112"/>
       <use x="787.939453" xlink:href="#DejaVuSans-99"/>
       <use x="842.919922" xlink:href="#DejaVuSans-46"/>
       <use x="874.707031" xlink:href="#DejaVuSans-104"/>
       <use x="938.085938" xlink:href="#DejaVuSans-97"/>
       <use x="999.365234" xlink:href="#DejaVuSans-114"/>
       <use x="1040.462891" xlink:href="#DejaVuSans-100"/>
       <use x="1103.939453" xlink:href="#DejaVuSans-119"/>
       <use x="1185.726562" xlink:href="#DejaVuSans-97"/>
       <use x="1247.005859" xlink:href="#DejaVuSans-114"/>
       <use x="1288.087891" xlink:href="#DejaVuSans-101"/>
      </g>
     </g>
    </g>
    <g id="xtick_5">
     <g id="line2d_5">
      <g>
       <use style="stroke:#000000;stroke-width:0.8;" x="327.148339" xlink:href="#ma0f0abf69b" y="499.94"/>
      </g>
     </g>
     <g id="text_5">
      <!-- comp.sys.mac.hardware -->
      <g style="fill:#ff0000;" transform="translate(332.115214 727.324687)rotate(-90)scale(0.18 -0.18)">
       <use xlink:href="#DejaVuSans-99"/>
       <use x="54.980469" xlink:href="#DejaVuSans-111"/>
       <use x="116.162109" xlink:href="#DejaVuSans-109"/>
       <use x="213.574219" xlink:href="#DejaVuSans-112"/>
       <use x="277.050781" xlink:href="#DejaVuSans-46"/>
       <use x="308.837891" xlink:href="#DejaVuSans-115"/>
       <use x="360.9375" xlink:href="#DejaVuSans-121"/>
       <use x="420.117188" xlink:href="#DejaVuSans-115"/>
       <use x="472.216797" xlink:href="#DejaVuSans-46"/>
       <use x="504.003906" xlink:href="#DejaVuSans-109"/>
       <use x="601.416016" xlink:href="#DejaVuSans-97"/>
       <use x="662.695312" xlink:href="#DejaVuSans-99"/>
       <use x="717.675781" xlink:href="#DejaVuSans-46"/>
       <use x="749.462891" xlink:href="#DejaVuSans-104"/>
       <use x="812.841797" xlink:href="#DejaVuSans-97"/>
       <use x="874.121094" xlink:href="#DejaVuSans-114"/>
       <use x="915.21875" xlink:href="#DejaVuSans-100"/>
       <use x="978.695312" xlink:href="#DejaVuSans-119"/>
       <use x="1060.482422" xlink:href="#DejaVuSans-97"/>
       <use x="1121.761719" xlink:href="#DejaVuSans-114"/>
       <use x="1162.84375" xlink:href="#DejaVuSans-101"/>
      </g>
     </g>
    </g>
    <g id="xtick_6">
     <g id="line2d_6">
      <g>
       <use style="stroke:#000000;stroke-width:0.8;" x="373.264042" xlink:href="#ma0f0abf69b" y="499.94"/>
      </g>
     </g>
     <g id="text_6">
      <!-- comp.windows.x -->
      <defs>
       <path d="M 54.890625 54.6875 
L 35.109375 28.078125 
L 55.90625 0 
L 45.3125 0 
L 29.390625 21.484375 
L 13.484375 0 
L 2.875 0 
L 24.125 28.609375 
L 4.6875 54.6875 
L 15.28125 54.6875 
L 29.78125 35.203125 
L 44.28125 54.6875 
z
" id="DejaVuSans-120"/>
      </defs>
      <g style="fill:#ff0000;" transform="translate(378.230917 656.573437)rotate(-90)scale(0.18 -0.18)">
       <use xlink:href="#DejaVuSans-99"/>
       <use x="54.980469" xlink:href="#DejaVuSans-111"/>
       <use x="116.162109" xlink:href="#DejaVuSans-109"/>
       <use x="213.574219" xlink:href="#DejaVuSans-112"/>
       <use x="277.050781" xlink:href="#DejaVuSans-46"/>
       <use x="308.837891" xlink:href="#DejaVuSans-119"/>
       <use x="390.625" xlink:href="#DejaVuSans-105"/>
       <use x="418.408203" xlink:href="#DejaVuSans-110"/>
       <use x="481.787109" xlink:href="#DejaVuSans-100"/>
       <use x="545.263672" xlink:href="#DejaVuSans-111"/>
       <use x="606.445312" xlink:href="#DejaVuSans-119"/>
       <use x="688.232422" xlink:href="#DejaVuSans-115"/>
       <use x="740.332031" xlink:href="#DejaVuSans-46"/>
       <use x="772.119141" xlink:href="#DejaVuSans-120"/>
      </g>
     </g>
    </g>
    <g id="xtick_7">
     <g id="line2d_7">
      <g>
       <use style="stroke:#000000;stroke-width:0.8;" x="419.379744" xlink:href="#ma0f0abf69b" y="499.94"/>
      </g>
     </g>
     <g id="text_7">
      <!-- misc.forsale -->
      <defs>
       <path d="M 37.109375 75.984375 
L 37.109375 68.5 
L 28.515625 68.5 
Q 23.6875 68.5 21.796875 66.546875 
Q 19.921875 64.59375 19.921875 59.515625 
L 19.921875 54.6875 
L 34.71875 54.6875 
L 34.71875 47.703125 
L 19.921875 47.703125 
L 19.921875 0 
L 10.890625 0 
L 10.890625 47.703125 
L 2.296875 47.703125 
L 2.296875 54.6875 
L 10.890625 54.6875 
L 10.890625 58.5 
Q 10.890625 67.625 15.140625 71.796875 
Q 19.390625 75.984375 28.609375 75.984375 
z
" id="DejaVuSans-102"/>
      </defs>
      <g style="fill:#ff0000;" transform="translate(424.346619 615.702188)rotate(-90)scale(0.18 -0.18)">
       <use xlink:href="#DejaVuSans-109"/>
       <use x="97.412109" xlink:href="#DejaVuSans-105"/>
       <use x="125.195312" xlink:href="#DejaVuSans-115"/>
       <use x="177.294922" xlink:href="#DejaVuSans-99"/>
       <use x="232.275391" xlink:href="#DejaVuSans-46"/>
       <use x="264.0625" xlink:href="#DejaVuSans-102"/>
       <use x="299.267578" xlink:href="#DejaVuSans-111"/>
       <use x="360.449219" xlink:href="#DejaVuSans-114"/>
       <use x="401.5625" xlink:href="#DejaVuSans-115"/>
       <use x="453.662109" xlink:href="#DejaVuSans-97"/>
       <use x="514.941406" xlink:href="#DejaVuSans-108"/>
       <use x="542.724609" xlink:href="#DejaVuSans-101"/>
      </g>
     </g>
    </g>
    <g id="xtick_8">
     <g id="line2d_8">
      <g>
       <use style="stroke:#000000;stroke-width:0.8;" x="465.495447" xlink:href="#ma0f0abf69b" y="499.94"/>
      </g>
     </g>
     <g id="text_8">
      <!-- rec.autos -->
      <defs>
       <path d="M 8.5 21.578125 
L 8.5 54.6875 
L 17.484375 54.6875 
L 17.484375 21.921875 
Q 17.484375 14.15625 20.5 10.265625 
Q 23.53125 6.390625 29.59375 6.390625 
Q 36.859375 6.390625 41.078125 11.03125 
Q 45.3125 15.671875 45.3125 23.6875 
L 45.3125 54.6875 
L 54.296875 54.6875 
L 54.296875 0 
L 45.3125 0 
L 45.3125 8.40625 
Q 42.046875 3.421875 37.71875 1 
Q 33.40625 -1.421875 27.6875 -1.421875 
Q 18.265625 -1.421875 13.375 4.4375 
Q 8.5 10.296875 8.5 21.578125 
z
M 31.109375 56 
z
" id="DejaVuSans-117"/>
      </defs>
      <g transform="translate(470.462322 590.912812)rotate(-90)scale(0.18 -0.18)">
       <use xlink:href="#DejaVuSans-114"/>
       <use x="41.082031" xlink:href="#DejaVuSans-101"/>
       <use x="102.605469" xlink:href="#DejaVuSans-99"/>
       <use x="157.585938" xlink:href="#DejaVuSans-46"/>
       <use x="189.373047" xlink:href="#DejaVuSans-97"/>
       <use x="250.652344" xlink:href="#DejaVuSans-117"/>
       <use x="314.03125" xlink:href="#DejaVuSans-116"/>
       <use x="353.240234" xlink:href="#DejaVuSans-111"/>
       <use x="414.421875" xlink:href="#DejaVuSans-115"/>
      </g>
     </g>
    </g>
    <g id="xtick_9">
     <g id="line2d_9">
      <g>
       <use style="stroke:#000000;stroke-width:0.8;" x="511.611149" xlink:href="#ma0f0abf69b" y="499.94"/>
      </g>
     </g>
     <g id="text_9">
      <!-- rec.motorcycles -->
      <g style="fill:#ff0000;" transform="translate(516.578024 650.94)rotate(-90)scale(0.18 -0.18)">
       <use xlink:href="#DejaVuSans-114"/>
       <use x="41.082031" xlink:href="#DejaVuSans-101"/>
       <use x="102.605469" xlink:href="#DejaVuSans-99"/>
       <use x="157.585938" xlink:href="#DejaVuSans-46"/>
       <use x="189.373047" xlink:href="#DejaVuSans-109"/>
       <use x="286.785156" xlink:href="#DejaVuSans-111"/>
       <use x="347.966797" xlink:href="#DejaVuSans-116"/>
       <use x="387.175781" xlink:href="#DejaVuSans-111"/>
       <use x="448.357422" xlink:href="#DejaVuSans-114"/>
       <use x="489.439453" xlink:href="#DejaVuSans-99"/>
       <use x="544.419922" xlink:href="#DejaVuSans-121"/>
       <use x="603.599609" xlink:href="#DejaVuSans-99"/>
       <use x="658.580078" xlink:href="#DejaVuSans-108"/>
       <use x="686.363281" xlink:href="#DejaVuSans-101"/>
       <use x="747.886719" xlink:href="#DejaVuSans-115"/>
      </g>
     </g>
    </g>
    <g id="xtick_10">
     <g id="line2d_10">
      <g>
       <use style="stroke:#000000;stroke-width:0.8;" x="557.726852" xlink:href="#ma0f0abf69b" y="499.94"/>
      </g>
     </g>
     <g id="text_10">
      <!-- rec.sport.baseball -->
      <g transform="translate(562.693727 668.391562)rotate(-90)scale(0.18 -0.18)">
       <use xlink:href="#DejaVuSans-114"/>
       <use x="41.082031" xlink:href="#DejaVuSans-101"/>
       <use x="102.605469" xlink:href="#DejaVuSans-99"/>
       <use x="157.585938" xlink:href="#DejaVuSans-46"/>
       <use x="189.373047" xlink:href="#DejaVuSans-115"/>
       <use x="241.472656" xlink:href="#DejaVuSans-112"/>
       <use x="304.949219" xlink:href="#DejaVuSans-111"/>
       <use x="366.130859" xlink:href="#DejaVuSans-114"/>
       <use x="407.244141" xlink:href="#DejaVuSans-116"/>
       <use x="446.453125" xlink:href="#DejaVuSans-46"/>
       <use x="478.240234" xlink:href="#DejaVuSans-98"/>
       <use x="541.716797" xlink:href="#DejaVuSans-97"/>
       <use x="602.996094" xlink:href="#DejaVuSans-115"/>
       <use x="655.095703" xlink:href="#DejaVuSans-101"/>
       <use x="716.619141" xlink:href="#DejaVuSans-98"/>
       <use x="780.095703" xlink:href="#DejaVuSans-97"/>
       <use x="841.375" xlink:href="#DejaVuSans-108"/>
       <use x="869.158203" xlink:href="#DejaVuSans-108"/>
      </g>
     </g>
    </g>
    <g id="xtick_11">
     <g id="line2d_11">
      <g>
       <use style="stroke:#000000;stroke-width:0.8;" x="603.842554" xlink:href="#ma0f0abf69b" y="499.94"/>
      </g>
     </g>
     <g id="text_11">
      <!-- rec.sport.hockey -->
      <defs>
       <path d="M 9.078125 75.984375 
L 18.109375 75.984375 
L 18.109375 31.109375 
L 44.921875 54.6875 
L 56.390625 54.6875 
L 27.390625 29.109375 
L 57.625 0 
L 45.90625 0 
L 18.109375 26.703125 
L 18.109375 0 
L 9.078125 0 
z
" id="DejaVuSans-107"/>
      </defs>
      <g transform="translate(608.809429 657.484687)rotate(-90)scale(0.18 -0.18)">
       <use xlink:href="#DejaVuSans-114"/>
       <use x="41.082031" xlink:href="#DejaVuSans-101"/>
       <use x="102.605469" xlink:href="#DejaVuSans-99"/>
       <use x="157.585938" xlink:href="#DejaVuSans-46"/>
       <use x="189.373047" xlink:href="#DejaVuSans-115"/>
       <use x="241.472656" xlink:href="#DejaVuSans-112"/>
       <use x="304.949219" xlink:href="#DejaVuSans-111"/>
       <use x="366.130859" xlink:href="#DejaVuSans-114"/>
       <use x="407.244141" xlink:href="#DejaVuSans-116"/>
       <use x="446.453125" xlink:href="#DejaVuSans-46"/>
       <use x="478.240234" xlink:href="#DejaVuSans-104"/>
       <use x="541.619141" xlink:href="#DejaVuSans-111"/>
       <use x="602.800781" xlink:href="#DejaVuSans-99"/>
       <use x="657.78125" xlink:href="#DejaVuSans-107"/>
       <use x="715.644531" xlink:href="#DejaVuSans-101"/>
       <use x="777.167969" xlink:href="#DejaVuSans-121"/>
      </g>
     </g>
    </g>
    <g id="xtick_12">
     <g id="line2d_12">
      <g>
       <use style="stroke:#000000;stroke-width:0.8;" x="649.958257" xlink:href="#ma0f0abf69b" y="499.94"/>
      </g>
     </g>
     <g id="text_12">
      <!-- sci.crypt -->
      <g transform="translate(654.925132 583.369688)rotate(-90)scale(0.18 -0.18)">
       <use xlink:href="#DejaVuSans-115"/>
       <use x="52.099609" xlink:href="#DejaVuSans-99"/>
       <use x="107.080078" xlink:href="#DejaVuSans-105"/>
       <use x="134.863281" xlink:href="#DejaVuSans-46"/>
       <use x="166.650391" xlink:href="#DejaVuSans-99"/>
       <use x="221.630859" xlink:href="#DejaVuSans-114"/>
       <use x="262.744141" xlink:href="#DejaVuSans-121"/>
       <use x="321.923828" xlink:href="#DejaVuSans-112"/>
       <use x="385.400391" xlink:href="#DejaVuSans-116"/>
      </g>
     </g>
    </g>
    <g id="xtick_13">
     <g id="line2d_13">
      <g>
       <use style="stroke:#000000;stroke-width:0.8;" x="696.073959" xlink:href="#ma0f0abf69b" y="499.94"/>
      </g>
     </g>
     <g id="text_13">
      <!-- sci.electronics -->
      <g style="fill:#ff0000;" transform="translate(701.040834 635.130937)rotate(-90)scale(0.18 -0.18)">
       <use xlink:href="#DejaVuSans-115"/>
       <use x="52.099609" xlink:href="#DejaVuSans-99"/>
       <use x="107.080078" xlink:href="#DejaVuSans-105"/>
       <use x="134.863281" xlink:href="#DejaVuSans-46"/>
       <use x="166.650391" xlink:href="#DejaVuSans-101"/>
       <use x="228.173828" xlink:href="#DejaVuSans-108"/>
       <use x="255.957031" xlink:href="#DejaVuSans-101"/>
       <use x="317.480469" xlink:href="#DejaVuSans-99"/>
       <use x="372.460938" xlink:href="#DejaVuSans-116"/>
       <use x="411.669922" xlink:href="#DejaVuSans-114"/>
       <use x="452.751953" xlink:href="#DejaVuSans-111"/>
       <use x="513.933594" xlink:href="#DejaVuSans-110"/>
       <use x="577.3125" xlink:href="#DejaVuSans-105"/>
       <use x="605.095703" xlink:href="#DejaVuSans-99"/>
       <use x="660.076172" xlink:href="#DejaVuSans-115"/>
      </g>
     </g>
    </g>
    <g id="xtick_14">
     <g id="line2d_14">
      <g>
       <use style="stroke:#000000;stroke-width:0.8;" x="742.189662" xlink:href="#ma0f0abf69b" y="499.94"/>
      </g>
     </g>
     <g id="text_14">
      <!-- sci.med -->
      <g style="fill:#ff0000;" transform="translate(747.156537 576.97125)rotate(-90)scale(0.18 -0.18)">
       <use xlink:href="#DejaVuSans-115"/>
       <use x="52.099609" xlink:href="#DejaVuSans-99"/>
       <use x="107.080078" xlink:href="#DejaVuSans-105"/>
       <use x="134.863281" xlink:href="#DejaVuSans-46"/>
       <use x="166.650391" xlink:href="#DejaVuSans-109"/>
       <use x="264.0625" xlink:href="#DejaVuSans-101"/>
       <use x="325.585938" xlink:href="#DejaVuSans-100"/>
      </g>
     </g>
    </g>
    <g id="xtick_15">
     <g id="line2d_15">
      <g>
       <use style="stroke:#000000;stroke-width:0.8;" x="788.305364" xlink:href="#ma0f0abf69b" y="499.94"/>
      </g>
     </g>
     <g id="text_15">
      <!-- sci.space -->
      <g style="fill:#ff0000;" transform="translate(793.272239 589.742813)rotate(-90)scale(0.18 -0.18)">
       <use xlink:href="#DejaVuSans-115"/>
       <use x="52.099609" xlink:href="#DejaVuSans-99"/>
       <use x="107.080078" xlink:href="#DejaVuSans-105"/>
       <use x="134.863281" xlink:href="#DejaVuSans-46"/>
       <use x="166.650391" xlink:href="#DejaVuSans-115"/>
       <use x="218.75" xlink:href="#DejaVuSans-112"/>
       <use x="282.226562" xlink:href="#DejaVuSans-97"/>
       <use x="343.505859" xlink:href="#DejaVuSans-99"/>
       <use x="398.486328" xlink:href="#DejaVuSans-101"/>
      </g>
     </g>
    </g>
    <g id="xtick_16">
     <g id="line2d_16">
      <g>
       <use style="stroke:#000000;stroke-width:0.8;" x="834.421067" xlink:href="#ma0f0abf69b" y="499.94"/>
      </g>
     </g>
     <g id="text_16">
      <!-- soc.religion.christian -->
      <g style="fill:#ff0000;" transform="translate(839.387942 693.56625)rotate(-90)scale(0.18 -0.18)">
       <use xlink:href="#DejaVuSans-115"/>
       <use x="52.099609" xlink:href="#DejaVuSans-111"/>
       <use x="113.28125" xlink:href="#DejaVuSans-99"/>
       <use x="168.261719" xlink:href="#DejaVuSans-46"/>
       <use x="200.048828" xlink:href="#DejaVuSans-114"/>
       <use x="241.130859" xlink:href="#DejaVuSans-101"/>
       <use x="302.654297" xlink:href="#DejaVuSans-108"/>
       <use x="330.4375" xlink:href="#DejaVuSans-105"/>
       <use x="358.220703" xlink:href="#DejaVuSans-103"/>
       <use x="421.697266" xlink:href="#DejaVuSans-105"/>
       <use x="449.480469" xlink:href="#DejaVuSans-111"/>
       <use x="510.662109" xlink:href="#DejaVuSans-110"/>
       <use x="574.041016" xlink:href="#DejaVuSans-46"/>
       <use x="605.828125" xlink:href="#DejaVuSans-99"/>
       <use x="660.808594" xlink:href="#DejaVuSans-104"/>
       <use x="724.1875" xlink:href="#DejaVuSans-114"/>
       <use x="765.300781" xlink:href="#DejaVuSans-105"/>
       <use x="793.083984" xlink:href="#DejaVuSans-115"/>
       <use x="845.183594" xlink:href="#DejaVuSans-116"/>
       <use x="884.392578" xlink:href="#DejaVuSans-105"/>
       <use x="912.175781" xlink:href="#DejaVuSans-97"/>
       <use x="973.455078" xlink:href="#DejaVuSans-110"/>
      </g>
     </g>
    </g>
    <g id="xtick_17">
     <g id="line2d_17">
      <g>
       <use style="stroke:#000000;stroke-width:0.8;" x="880.536769" xlink:href="#ma0f0abf69b" y="499.94"/>
      </g>
     </g>
     <g id="text_17">
      <!-- talk.politics.guns -->
      <g style="fill:#ff0000;" transform="translate(885.503644 659.284688)rotate(-90)scale(0.18 -0.18)">
       <use xlink:href="#DejaVuSans-116"/>
       <use x="39.208984" xlink:href="#DejaVuSans-97"/>
       <use x="100.488281" xlink:href="#DejaVuSans-108"/>
       <use x="128.271484" xlink:href="#DejaVuSans-107"/>
       <use x="186.181641" xlink:href="#DejaVuSans-46"/>
       <use x="217.96875" xlink:href="#DejaVuSans-112"/>
       <use x="281.445312" xlink:href="#DejaVuSans-111"/>
       <use x="342.626953" xlink:href="#DejaVuSans-108"/>
       <use x="370.410156" xlink:href="#DejaVuSans-105"/>
       <use x="398.193359" xlink:href="#DejaVuSans-116"/>
       <use x="437.402344" xlink:href="#DejaVuSans-105"/>
       <use x="465.185547" xlink:href="#DejaVuSans-99"/>
       <use x="520.166016" xlink:href="#DejaVuSans-115"/>
       <use x="572.265625" xlink:href="#DejaVuSans-46"/>
       <use x="604.052734" xlink:href="#DejaVuSans-103"/>
       <use x="667.529297" xlink:href="#DejaVuSans-117"/>
       <use x="730.908203" xlink:href="#DejaVuSans-110"/>
       <use x="794.287109" xlink:href="#DejaVuSans-115"/>
      </g>
     </g>
    </g>
    <g id="xtick_18">
     <g id="line2d_18">
      <g>
       <use style="stroke:#000000;stroke-width:0.8;" x="926.652472" xlink:href="#ma0f0abf69b" y="499.94"/>
      </g>
     </g>
     <g id="text_18">
      <!-- talk.politics.mideast -->
      <g transform="translate(931.619347 688.16625)rotate(-90)scale(0.18 -0.18)">
       <use xlink:href="#DejaVuSans-116"/>
       <use x="39.208984" xlink:href="#DejaVuSans-97"/>
       <use x="100.488281" xlink:href="#DejaVuSans-108"/>
       <use x="128.271484" xlink:href="#DejaVuSans-107"/>
       <use x="186.181641" xlink:href="#DejaVuSans-46"/>
       <use x="217.96875" xlink:href="#DejaVuSans-112"/>
       <use x="281.445312" xlink:href="#DejaVuSans-111"/>
       <use x="342.626953" xlink:href="#DejaVuSans-108"/>
       <use x="370.410156" xlink:href="#DejaVuSans-105"/>
       <use x="398.193359" xlink:href="#DejaVuSans-116"/>
       <use x="437.402344" xlink:href="#DejaVuSans-105"/>
       <use x="465.185547" xlink:href="#DejaVuSans-99"/>
       <use x="520.166016" xlink:href="#DejaVuSans-115"/>
       <use x="572.265625" xlink:href="#DejaVuSans-46"/>
       <use x="604.052734" xlink:href="#DejaVuSans-109"/>
       <use x="701.464844" xlink:href="#DejaVuSans-105"/>
       <use x="729.248047" xlink:href="#DejaVuSans-100"/>
       <use x="792.724609" xlink:href="#DejaVuSans-101"/>
       <use x="854.248047" xlink:href="#DejaVuSans-97"/>
       <use x="915.527344" xlink:href="#DejaVuSans-115"/>
       <use x="967.626953" xlink:href="#DejaVuSans-116"/>
      </g>
     </g>
    </g>
    <g id="xtick_19">
     <g id="line2d_19">
      <g>
       <use style="stroke:#000000;stroke-width:0.8;" x="972.768174" xlink:href="#ma0f0abf69b" y="499.94"/>
      </g>
     </g>
     <g id="text_19">
      <!-- talk.politics.misc -->
      <g transform="translate(977.735049 657.473438)rotate(-90)scale(0.18 -0.18)">
       <use xlink:href="#DejaVuSans-116"/>
       <use x="39.208984" xlink:href="#DejaVuSans-97"/>
       <use x="100.488281" xlink:href="#DejaVuSans-108"/>
       <use x="128.271484" xlink:href="#DejaVuSans-107"/>
       <use x="186.181641" xlink:href="#DejaVuSans-46"/>
       <use x="217.96875" xlink:href="#DejaVuSans-112"/>
       <use x="281.445312" xlink:href="#DejaVuSans-111"/>
       <use x="342.626953" xlink:href="#DejaVuSans-108"/>
       <use x="370.410156" xlink:href="#DejaVuSans-105"/>
       <use x="398.193359" xlink:href="#DejaVuSans-116"/>
       <use x="437.402344" xlink:href="#DejaVuSans-105"/>
       <use x="465.185547" xlink:href="#DejaVuSans-99"/>
       <use x="520.166016" xlink:href="#DejaVuSans-115"/>
       <use x="572.265625" xlink:href="#DejaVuSans-46"/>
       <use x="604.052734" xlink:href="#DejaVuSans-109"/>
       <use x="701.464844" xlink:href="#DejaVuSans-105"/>
       <use x="729.248047" xlink:href="#DejaVuSans-115"/>
       <use x="781.347656" xlink:href="#DejaVuSans-99"/>
      </g>
     </g>
    </g>
    <g id="xtick_20">
     <g id="line2d_20">
      <g>
       <use style="stroke:#000000;stroke-width:0.8;" x="1018.883877" xlink:href="#ma0f0abf69b" y="499.94"/>
      </g>
     </g>
     <g id="text_20">
      <!-- talk.religion.misc -->
      <g transform="translate(1023.850752 661.02)rotate(-90)scale(0.18 -0.18)">
       <use xlink:href="#DejaVuSans-116"/>
       <use x="39.208984" xlink:href="#DejaVuSans-97"/>
       <use x="100.488281" xlink:href="#DejaVuSans-108"/>
       <use x="128.271484" xlink:href="#DejaVuSans-107"/>
       <use x="186.181641" xlink:href="#DejaVuSans-46"/>
       <use x="217.96875" xlink:href="#DejaVuSans-114"/>
       <use x="259.050781" xlink:href="#DejaVuSans-101"/>
       <use x="320.574219" xlink:href="#DejaVuSans-108"/>
       <use x="348.357422" xlink:href="#DejaVuSans-105"/>
       <use x="376.140625" xlink:href="#DejaVuSans-103"/>
       <use x="439.617188" xlink:href="#DejaVuSans-105"/>
       <use x="467.400391" xlink:href="#DejaVuSans-111"/>
       <use x="528.582031" xlink:href="#DejaVuSans-110"/>
       <use x="591.960938" xlink:href="#DejaVuSans-46"/>
       <use x="623.748047" xlink:href="#DejaVuSans-109"/>
       <use x="721.160156" xlink:href="#DejaVuSans-105"/>
       <use x="748.943359" xlink:href="#DejaVuSans-115"/>
       <use x="801.042969" xlink:href="#DejaVuSans-99"/>
      </g>
     </g>
    </g>
   </g>
   <g id="matplotlib.axis_2">
    <g id="ytick_1">
     <g id="line2d_21">
      <defs>
       <path d="M 0 0 
L -3.5 0 
" id="m29c80b6128" style="stroke:#000000;stroke-width:0.8;"/>
      </defs>
      <g>
       <use style="stroke:#000000;stroke-width:0.8;" x="69.361563" xlink:href="#m29c80b6128" y="480.655629"/>
      </g>
     </g>
     <g id="text_21">
      <!-- 0.05 -->
      <defs>
       <path d="M 10.59375 35.5 
L 73.1875 35.5 
L 73.1875 27.203125 
L 10.59375 27.203125 
z
" id="DejaVuSans-8722"/>
       <path d="M 31.78125 66.40625 
Q 24.171875 66.40625 20.328125 58.90625 
Q 16.5 51.421875 16.5 36.375 
Q 16.5 21.390625 20.328125 13.890625 
Q 24.171875 6.390625 31.78125 6.390625 
Q 39.453125 6.390625 43.28125 13.890625 
Q 47.125 21.390625 47.125 36.375 
Q 47.125 51.421875 43.28125 58.90625 
Q 39.453125 66.40625 31.78125 66.40625 
z
M 31.78125 74.21875 
Q 44.046875 74.21875 50.515625 64.515625 
Q 56.984375 54.828125 56.984375 36.375 
Q 56.984375 17.96875 50.515625 8.265625 
Q 44.046875 -1.421875 31.78125 -1.421875 
Q 19.53125 -1.421875 13.0625 8.265625 
Q 6.59375 17.96875 6.59375 36.375 
Q 6.59375 54.828125 13.0625 64.515625 
Q 19.53125 74.21875 31.78125 74.21875 
z
" id="DejaVuSans-48"/>
       <path d="M 10.796875 72.90625 
L 49.515625 72.90625 
L 49.515625 64.59375 
L 19.828125 64.59375 
L 19.828125 46.734375 
Q 21.96875 47.46875 24.109375 47.828125 
Q 26.265625 48.1875 28.421875 48.1875 
Q 40.625 48.1875 47.75 41.5 
Q 54.890625 34.8125 54.890625 23.390625 
Q 54.890625 11.625 47.5625 5.09375 
Q 40.234375 -1.421875 26.90625 -1.421875 
Q 22.3125 -1.421875 17.546875 -0.640625 
Q 12.796875 0.140625 7.71875 1.703125 
L 7.71875 11.625 
Q 12.109375 9.234375 16.796875 8.0625 
Q 21.484375 6.890625 26.703125 6.890625 
Q 35.15625 6.890625 40.078125 11.328125 
Q 45.015625 15.765625 45.015625 23.390625 
Q 45.015625 31 40.078125 35.4375 
Q 35.15625 39.890625 26.703125 39.890625 
Q 22.75 39.890625 18.8125 39.015625 
Q 14.890625 38.140625 10.796875 36.28125 
z
" id="DejaVuSans-53"/>
      </defs>
      <g transform="translate(7.2 487.494223)scale(0.18 -0.18)">
       <use xlink:href="#DejaVuSans-8722"/>
       <use x="83.789062" xlink:href="#DejaVuSans-48"/>
       <use x="147.412109" xlink:href="#DejaVuSans-46"/>
       <use x="179.199219" xlink:href="#DejaVuSans-48"/>
       <use x="242.822266" xlink:href="#DejaVuSans-53"/>
      </g>
     </g>
    </g>
    <g id="ytick_2">
     <g id="line2d_22">
      <g>
       <use style="stroke:#000000;stroke-width:0.8;" x="69.361563" xlink:href="#m29c80b6128" y="413.255032"/>
      </g>
     </g>
     <g id="text_22">
      <!-- 0.00 -->
      <g transform="translate(22.283438 420.093626)scale(0.18 -0.18)">
       <use xlink:href="#DejaVuSans-48"/>
       <use x="63.623047" xlink:href="#DejaVuSans-46"/>
       <use x="95.410156" xlink:href="#DejaVuSans-48"/>
       <use x="159.033203" xlink:href="#DejaVuSans-48"/>
      </g>
     </g>
    </g>
    <g id="ytick_3">
     <g id="line2d_23">
      <g>
       <use style="stroke:#000000;stroke-width:0.8;" x="69.361563" xlink:href="#m29c80b6128" y="345.854435"/>
      </g>
     </g>
     <g id="text_23">
      <!-- 0.05 -->
      <g transform="translate(22.283438 352.693028)scale(0.18 -0.18)">
       <use xlink:href="#DejaVuSans-48"/>
       <use x="63.623047" xlink:href="#DejaVuSans-46"/>
       <use x="95.410156" xlink:href="#DejaVuSans-48"/>
       <use x="159.033203" xlink:href="#DejaVuSans-53"/>
      </g>
     </g>
    </g>
    <g id="ytick_4">
     <g id="line2d_24">
      <g>
       <use style="stroke:#000000;stroke-width:0.8;" x="69.361563" xlink:href="#m29c80b6128" y="278.453837"/>
      </g>
     </g>
     <g id="text_24">
      <!-- 0.10 -->
      <defs>
       <path d="M 12.40625 8.296875 
L 28.515625 8.296875 
L 28.515625 63.921875 
L 10.984375 60.40625 
L 10.984375 69.390625 
L 28.421875 72.90625 
L 38.28125 72.90625 
L 38.28125 8.296875 
L 54.390625 8.296875 
L 54.390625 0 
L 12.40625 0 
z
" id="DejaVuSans-49"/>
      </defs>
      <g transform="translate(22.283438 285.292431)scale(0.18 -0.18)">
       <use xlink:href="#DejaVuSans-48"/>
       <use x="63.623047" xlink:href="#DejaVuSans-46"/>
       <use x="95.410156" xlink:href="#DejaVuSans-49"/>
       <use x="159.033203" xlink:href="#DejaVuSans-48"/>
      </g>
     </g>
    </g>
    <g id="ytick_5">
     <g id="line2d_25">
      <g>
       <use style="stroke:#000000;stroke-width:0.8;" x="69.361563" xlink:href="#m29c80b6128" y="211.05324"/>
      </g>
     </g>
     <g id="text_25">
      <!-- 0.15 -->
      <g transform="translate(22.283438 217.891834)scale(0.18 -0.18)">
       <use xlink:href="#DejaVuSans-48"/>
       <use x="63.623047" xlink:href="#DejaVuSans-46"/>
       <use x="95.410156" xlink:href="#DejaVuSans-49"/>
       <use x="159.033203" xlink:href="#DejaVuSans-53"/>
      </g>
     </g>
    </g>
    <g id="ytick_6">
     <g id="line2d_26">
      <g>
       <use style="stroke:#000000;stroke-width:0.8;" x="69.361563" xlink:href="#m29c80b6128" y="143.652643"/>
      </g>
     </g>
     <g id="text_26">
      <!-- 0.20 -->
      <defs>
       <path d="M 19.1875 8.296875 
L 53.609375 8.296875 
L 53.609375 0 
L 7.328125 0 
L 7.328125 8.296875 
Q 12.9375 14.109375 22.625 23.890625 
Q 32.328125 33.6875 34.8125 36.53125 
Q 39.546875 41.84375 41.421875 45.53125 
Q 43.3125 49.21875 43.3125 52.78125 
Q 43.3125 58.59375 39.234375 62.25 
Q 35.15625 65.921875 28.609375 65.921875 
Q 23.96875 65.921875 18.8125 64.3125 
Q 13.671875 62.703125 7.8125 59.421875 
L 7.8125 69.390625 
Q 13.765625 71.78125 18.9375 73 
Q 24.125 74.21875 28.421875 74.21875 
Q 39.75 74.21875 46.484375 68.546875 
Q 53.21875 62.890625 53.21875 53.421875 
Q 53.21875 48.921875 51.53125 44.890625 
Q 49.859375 40.875 45.40625 35.40625 
Q 44.1875 33.984375 37.640625 27.21875 
Q 31.109375 20.453125 19.1875 8.296875 
z
" id="DejaVuSans-50"/>
      </defs>
      <g transform="translate(22.283438 150.491236)scale(0.18 -0.18)">
       <use xlink:href="#DejaVuSans-48"/>
       <use x="63.623047" xlink:href="#DejaVuSans-46"/>
       <use x="95.410156" xlink:href="#DejaVuSans-50"/>
       <use x="159.033203" xlink:href="#DejaVuSans-48"/>
      </g>
     </g>
    </g>
    <g id="ytick_7">
     <g id="line2d_27">
      <g>
       <use style="stroke:#000000;stroke-width:0.8;" x="69.361563" xlink:href="#m29c80b6128" y="76.252045"/>
      </g>
     </g>
     <g id="text_27">
      <!-- 0.25 -->
      <g transform="translate(22.283438 83.090639)scale(0.18 -0.18)">
       <use xlink:href="#DejaVuSans-48"/>
       <use x="63.623047" xlink:href="#DejaVuSans-46"/>
       <use x="95.410156" xlink:href="#DejaVuSans-50"/>
       <use x="159.033203" xlink:href="#DejaVuSans-53"/>
      </g>
     </g>
    </g>
   </g>
   <g id="patch_83">
    <path d="M 69.361563 499.94 
L 69.361563 10.7 
" style="fill:none;stroke:#000000;stroke-linecap:square;stroke-linejoin:miter;stroke-width:0.8;"/>
   </g>
   <g id="patch_84">
    <path d="M 1073.761563 499.94 
L 1073.761563 10.7 
" style="fill:none;stroke:#000000;stroke-linecap:square;stroke-linejoin:miter;stroke-width:0.8;"/>
   </g>
   <g id="patch_85">
    <path d="M 69.361563 499.94 
L 1073.761563 499.94 
" style="fill:none;stroke:#000000;stroke-linecap:square;stroke-linejoin:miter;stroke-width:0.8;"/>
   </g>
   <g id="patch_86">
    <path d="M 69.361563 10.7 
L 1073.761563 10.7 
" style="fill:none;stroke:#000000;stroke-linecap:square;stroke-linejoin:miter;stroke-width:0.8;"/>
   </g>
   <g id="legend_1">
    <g id="patch_87">
     <path d="M 972.319375 110.76875 
L 1063.261563 110.76875 
Q 1066.261563 110.76875 1066.261563 107.76875 
L 1066.261563 21.2 
Q 1066.261563 18.2 1063.261563 18.2 
L 972.319375 18.2 
Q 969.319375 18.2 969.319375 21.2 
L 969.319375 107.76875 
Q 969.319375 110.76875 972.319375 110.76875 
z
" style="fill:#ffffff;opacity:0.8;stroke:#cccccc;stroke-linejoin:miter;"/>
    </g>
    <g id="patch_88">
     <path d="M 975.319375 35.597656 
L 1005.319375 35.597656 
L 1005.319375 25.097656 
L 975.319375 25.097656 
z
" style="fill:#008000;"/>
    </g>
    <g id="text_28">
     <!-- 0.75 -->
     <defs>
      <path d="M 8.203125 72.90625 
L 55.078125 72.90625 
L 55.078125 68.703125 
L 28.609375 0 
L 18.3125 0 
L 43.21875 64.59375 
L 8.203125 64.59375 
z
" id="DejaVuSans-55"/>
     </defs>
     <g transform="translate(1017.319375 35.597656)scale(0.15 -0.15)">
      <use xlink:href="#DejaVuSans-48"/>
      <use x="63.623047" xlink:href="#DejaVuSans-46"/>
      <use x="95.410156" xlink:href="#DejaVuSans-55"/>
      <use x="159.033203" xlink:href="#DejaVuSans-53"/>
     </g>
    </g>
    <g id="patch_89">
     <path d="M 975.319375 57.614844 
L 1005.319375 57.614844 
L 1005.319375 47.114844 
L 975.319375 47.114844 
z
" style="fill:#ff0000;"/>
    </g>
    <g id="text_29">
     <!-- 0.5 -->
     <g transform="translate(1017.319375 57.614844)scale(0.15 -0.15)">
      <use xlink:href="#DejaVuSans-48"/>
      <use x="63.623047" xlink:href="#DejaVuSans-46"/>
      <use x="95.410156" xlink:href="#DejaVuSans-53"/>
     </g>
    </g>
    <g id="patch_90">
     <path d="M 975.319375 79.632031 
L 1005.319375 79.632031 
L 1005.319375 69.132031 
L 975.319375 69.132031 
z
" style="fill:#00bfbf;"/>
    </g>
    <g id="text_30">
     <!-- 0.25 -->
     <g transform="translate(1017.319375 79.632031)scale(0.15 -0.15)">
      <use xlink:href="#DejaVuSans-48"/>
      <use x="63.623047" xlink:href="#DejaVuSans-46"/>
      <use x="95.410156" xlink:href="#DejaVuSans-50"/>
      <use x="159.033203" xlink:href="#DejaVuSans-53"/>
     </g>
    </g>
    <g id="patch_91">
     <path d="M 975.319375 101.649219 
L 1005.319375 101.649219 
L 1005.319375 91.149219 
L 975.319375 91.149219 
z
" style="fill:#bf00bf;"/>
    </g>
    <g id="text_31">
     <!-- 0.125 -->
     <g transform="translate(1017.319375 101.649219)scale(0.15 -0.15)">
      <use xlink:href="#DejaVuSans-48"/>
      <use x="63.623047" xlink:href="#DejaVuSans-46"/>
      <use x="95.410156" xlink:href="#DejaVuSans-49"/>
      <use x="159.033203" xlink:href="#DejaVuSans-50"/>
      <use x="222.65625" xlink:href="#DejaVuSans-53"/>
     </g>
    </g>
   </g>
  </g>
 </g>
 <defs>
  <clipPath id="p10549a16bb">
   <rect height="489.24" width="1004.4" x="69.361563" y="10.7"/>
  </clipPath>
 </defs>
</svg>
