<?xml version="1.0" encoding="utf-8" standalone="no"?>
<!DOCTYPE svg PUBLIC "-//W3C//DTD SVG 1.1//EN"
  "http://www.w3.org/Graphics/SVG/1.1/DTD/svg11.dtd">
<!-- Created with matplotlib (https://matplotlib.org/) -->
<svg height="549.373203pt" version="1.1" viewBox="0 0 969.615625 549.373203" width="969.615625pt" xmlns="http://www.w3.org/2000/svg" xmlns:xlink="http://www.w3.org/1999/xlink">
 <defs>
  <style type="text/css">
*{stroke-linecap:butt;stroke-linejoin:round;}
  </style>
 </defs>
 <g id="figure_1">
  <g id="patch_1">
   <path d="M 0 549.373203 
L 969.615625 549.373203 
L 969.615625 0 
L 0 0 
z
" style="fill:#ffffff;"/>
  </g>
  <g id="axes_1">
   <g id="patch_2">
    <path d="M 66.115625 502.138828 
L 958.915625 502.138828 
L 958.915625 12.898828 
L 66.115625 12.898828 
z
" style="fill:#ffffff;"/>
   </g>
   <g id="PolyCollection_1">
    <path clip-path="url(#p8e75745b0b)" d="M 149.365762 192.368346 
L 137.814249 192.368346 
L 137.789242 192.218258 
L 137.775546 192.068171 
L 137.772466 191.918083 
L 137.77914 191.767996 
L 137.794544 191.617908 
L 137.817495 191.467821 
L 137.846663 191.317733 
L 137.880584 191.167646 
L 137.917664 191.017558 
L 137.956204 190.867471 
L 137.994404 190.717383 
L 138.03039 190.567296 
L 138.062223 190.417208 
L 138.087922 190.267121 
L 138.10548 190.117033 
L 138.112885 189.966946 
L 138.108134 189.816858 
L 138.089258 189.666771 
L 138.054332 189.516683 
L 138.001498 189.366596 
L 137.928976 189.216508 
L 137.835085 189.066421 
L 137.718248 188.916333 
L 137.577012 188.766246 
L 137.410056 188.616158 
L 137.216198 188.466071 
L 136.994407 188.315983 
L 136.743805 188.165896 
L 136.463675 188.015808 
L 136.153463 187.865721 
L 135.81278 187.715634 
L 135.441403 187.565546 
L 135.039272 187.415459 
L 134.606491 187.265371 
L 134.143327 187.115284 
L 133.650198 186.965196 
L 133.12768 186.815109 
L 132.576491 186.665021 
L 131.997495 186.514934 
L 131.39169 186.364846 
L 130.760202 186.214759 
L 130.104282 186.064671 
L 129.425299 185.914584 
L 128.724729 185.764496 
L 128.004157 185.614409 
L 127.265261 185.464321 
L 126.509815 185.314234 
L 125.739677 185.164146 
L 124.956785 185.014059 
L 124.163154 184.863971 
L 123.360865 184.713884 
L 122.552066 184.563796 
L 121.738961 184.413709 
L 120.923807 184.263621 
L 120.108909 184.113534 
L 119.296613 183.963446 
L 118.489301 183.813359 
L 117.689384 183.663271 
L 116.899297 183.513184 
L 116.121489 183.363096 
L 115.35842 183.213009 
L 114.61255 183.062921 
L 113.886334 182.912834 
L 113.182211 182.762746 
L 112.502598 182.612659 
L 111.849877 182.462571 
L 111.226392 182.312484 
L 110.634433 182.162396 
L 110.076232 182.012309 
L 109.553949 181.862221 
L 109.069665 181.712134 
L 108.62537 181.562046 
L 108.222954 181.411959 
L 107.864197 181.261871 
L 107.550761 181.111784 
L 107.284177 180.961696 
L 107.065838 180.811609 
L 106.89699 180.661521 
L 106.778721 180.511434 
L 106.711956 180.361347 
L 106.697443 180.211259 
L 106.735752 180.061172 
L 106.827263 179.911084 
L 106.97216 179.760997 
L 107.170425 179.610909 
L 107.421834 179.460822 
L 107.725949 179.310734 
L 108.082118 179.160647 
L 108.489469 179.010559 
L 108.94691 178.860472 
L 109.45313 178.710384 
L 110.006597 178.560297 
L 110.605563 178.410209 
L 111.248069 178.260122 
L 111.931951 178.110034 
L 112.654846 177.959947 
L 113.414204 177.809859 
L 114.207302 177.659772 
L 115.031256 177.509684 
L 172.148755 177.509684 
L 172.148755 177.509684 
L 172.972708 177.659772 
L 173.765806 177.809859 
L 174.525165 177.959947 
L 175.248059 178.110034 
L 175.931941 178.260122 
L 176.574447 178.410209 
L 177.173414 178.560297 
L 177.72688 178.710384 
L 178.2331 178.860472 
L 178.690541 179.010559 
L 179.097892 179.160647 
L 179.454061 179.310734 
L 179.758176 179.460822 
L 180.009585 179.610909 
L 180.20785 179.760997 
L 180.352747 179.911084 
L 180.444258 180.061172 
L 180.482567 180.211259 
L 180.468055 180.361347 
L 180.401289 180.511434 
L 180.28302 180.661521 
L 180.114172 180.811609 
L 179.895833 180.961696 
L 179.629249 181.111784 
L 179.315813 181.261871 
L 178.957056 181.411959 
L 178.55464 181.562046 
L 178.110345 181.712134 
L 177.626061 181.862221 
L 177.103778 182.012309 
L 176.545577 182.162396 
L 175.953619 182.312484 
L 175.330133 182.462571 
L 174.677413 182.612659 
L 173.997799 182.762746 
L 173.293676 182.912834 
L 172.56746 183.062921 
L 171.82159 183.213009 
L 171.058521 183.363096 
L 170.280714 183.513184 
L 169.490626 183.663271 
L 168.690709 183.813359 
L 167.883398 183.963446 
L 167.071102 184.113534 
L 166.256204 184.263621 
L 165.44105 184.413709 
L 164.627944 184.563796 
L 163.819145 184.713884 
L 163.016856 184.863971 
L 162.223225 185.014059 
L 161.440334 185.164146 
L 160.670195 185.314234 
L 159.914749 185.464321 
L 159.175854 185.614409 
L 158.455281 185.764496 
L 157.754712 185.914584 
L 157.075728 186.064671 
L 156.419809 186.214759 
L 155.788321 186.364846 
L 155.182515 186.514934 
L 154.603519 186.665021 
L 154.052331 186.815109 
L 153.529812 186.965196 
L 153.036684 187.115284 
L 152.573519 187.265371 
L 152.140739 187.415459 
L 151.738608 187.565546 
L 151.36723 187.715634 
L 151.026547 187.865721 
L 150.716336 188.015808 
L 150.436206 188.165896 
L 150.185604 188.315983 
L 149.963812 188.466071 
L 149.769954 188.616158 
L 149.602998 188.766246 
L 149.461763 188.916333 
L 149.344926 189.066421 
L 149.251034 189.216508 
L 149.178513 189.366596 
L 149.125678 189.516683 
L 149.090752 189.666771 
L 149.071876 189.816858 
L 149.067126 189.966946 
L 149.07453 190.117033 
L 149.092089 190.267121 
L 149.117787 190.417208 
L 149.14962 190.567296 
L 149.185606 190.717383 
L 149.223807 190.867471 
L 149.262346 191.017558 
L 149.299427 191.167646 
L 149.333347 191.317733 
L 149.362516 191.467821 
L 149.385466 191.617908 
L 149.40087 191.767996 
L 149.407544 191.918083 
L 149.404465 192.068171 
L 149.390768 192.218258 
L 149.365762 192.368346 
z
" style="fill:#1f77b4;fill-opacity:0.3;"/>
   </g>
   <g id="PolyCollection_2">
    <path clip-path="url(#p8e75745b0b)" d="M 368.02892 199.482762 
L 340.78037 199.482762 
L 340.322367 199.241438 
L 339.860229 199.000113 
L 339.394066 198.758788 
L 338.923995 198.517463 
L 338.450145 198.276138 
L 337.972664 198.034814 
L 337.491726 197.793489 
L 337.007542 197.552164 
L 336.52036 197.310839 
L 336.03048 197.069515 
L 335.538252 196.82819 
L 335.044087 196.586865 
L 334.548462 196.34554 
L 334.051918 196.104215 
L 333.55507 195.862891 
L 333.058599 195.621566 
L 332.563259 195.380241 
L 332.069874 195.138916 
L 331.579328 194.897591 
L 331.092569 194.656267 
L 330.610594 194.414942 
L 330.134446 194.173617 
L 329.665201 193.932292 
L 329.203957 193.690967 
L 328.751823 193.449643 
L 328.309904 193.208318 
L 327.879283 192.966993 
L 327.461012 192.725668 
L 327.056091 192.484344 
L 326.665454 192.243019 
L 326.289951 192.001694 
L 325.930337 191.760369 
L 325.58725 191.519044 
L 325.261205 191.27772 
L 324.952574 191.036395 
L 324.661581 190.79507 
L 324.38829 190.553745 
L 324.1326 190.31242 
L 323.894235 190.071096 
L 323.672751 189.829771 
L 323.46753 189.588446 
L 323.277785 189.347121 
L 323.102566 189.105796 
L 322.940772 188.864472 
L 322.791161 188.623147 
L 322.652363 188.381822 
L 322.522903 188.140497 
L 322.401215 187.899172 
L 322.285668 187.657848 
L 322.174591 187.416523 
L 322.066293 187.175198 
L 321.959097 186.933873 
L 321.851365 186.692549 
L 321.741525 186.451224 
L 321.628101 186.209899 
L 321.50974 185.968574 
L 321.38524 185.727249 
L 321.253575 185.485925 
L 321.113918 185.2446 
L 320.965663 185.003275 
L 320.808444 184.76195 
L 320.642151 184.520625 
L 320.466942 184.279301 
L 320.283251 184.037976 
L 320.091796 183.796651 
L 319.893577 183.555326 
L 319.689872 183.314001 
L 319.482235 183.072677 
L 319.272479 182.831352 
L 319.062663 182.590027 
L 318.855074 182.348702 
L 318.652202 182.107378 
L 318.456714 181.866053 
L 318.271425 181.624728 
L 318.099269 181.383403 
L 317.943259 181.142078 
L 317.806456 180.900754 
L 317.691931 180.659429 
L 317.602727 180.418104 
L 317.54182 180.176779 
L 317.512083 179.935454 
L 317.516251 179.69413 
L 317.556882 179.452805 
L 317.636327 179.21148 
L 317.756698 178.970155 
L 317.919843 178.72883 
L 318.127316 178.487506 
L 318.380362 178.246181 
L 318.679896 178.004856 
L 319.026491 177.763531 
L 319.420368 177.522207 
L 319.861396 177.280882 
L 320.349086 177.039557 
L 320.882599 176.798232 
L 321.46075 176.556907 
L 322.082026 176.315583 
L 322.744598 176.074258 
L 323.446339 175.832933 
L 324.184853 175.591608 
L 384.624438 175.591608 
L 384.624438 175.591608 
L 385.362951 175.832933 
L 386.064692 176.074258 
L 386.727264 176.315583 
L 387.34854 176.556907 
L 387.926691 176.798232 
L 388.460204 177.039557 
L 388.947894 177.280882 
L 389.388922 177.522207 
L 389.7828 177.763531 
L 390.129394 178.004856 
L 390.428928 178.246181 
L 390.681974 178.487506 
L 390.889447 178.72883 
L 391.052592 178.970155 
L 391.172964 179.21148 
L 391.252409 179.452805 
L 391.293039 179.69413 
L 391.297207 179.935454 
L 391.267471 180.176779 
L 391.206563 180.418104 
L 391.117359 180.659429 
L 391.002834 180.900754 
L 390.866032 181.142078 
L 390.710021 181.383403 
L 390.537865 181.624728 
L 390.352576 181.866053 
L 390.157088 182.107378 
L 389.954216 182.348702 
L 389.746627 182.590027 
L 389.536811 182.831352 
L 389.327055 183.072677 
L 389.119418 183.314001 
L 388.915713 183.555326 
L 388.717494 183.796651 
L 388.526039 184.037976 
L 388.342348 184.279301 
L 388.167139 184.520625 
L 388.000846 184.76195 
L 387.843627 185.003275 
L 387.695372 185.2446 
L 387.555715 185.485925 
L 387.42405 185.727249 
L 387.29955 185.968574 
L 387.181189 186.209899 
L 387.067765 186.451224 
L 386.957925 186.692549 
L 386.850193 186.933873 
L 386.742997 187.175198 
L 386.6347 187.416523 
L 386.523622 187.657848 
L 386.408075 187.899172 
L 386.286387 188.140497 
L 386.156927 188.381822 
L 386.018129 188.623147 
L 385.868518 188.864472 
L 385.706724 189.105796 
L 385.531505 189.347121 
L 385.34176 189.588446 
L 385.136539 189.829771 
L 384.915055 190.071096 
L 384.676691 190.31242 
L 384.421 190.553745 
L 384.147709 190.79507 
L 383.856716 191.036395 
L 383.548086 191.27772 
L 383.22204 191.519044 
L 382.878953 191.760369 
L 382.519339 192.001694 
L 382.143836 192.243019 
L 381.753199 192.484344 
L 381.348278 192.725668 
L 380.930007 192.966993 
L 380.499387 193.208318 
L 380.057467 193.449643 
L 379.605333 193.690967 
L 379.144089 193.932292 
L 378.674844 194.173617 
L 378.198696 194.414942 
L 377.716721 194.656267 
L 377.229962 194.897591 
L 376.739417 195.138916 
L 376.246031 195.380241 
L 375.750692 195.621566 
L 375.254221 195.862891 
L 374.757372 196.104215 
L 374.260828 196.34554 
L 373.765203 196.586865 
L 373.271039 196.82819 
L 372.77881 197.069515 
L 372.28893 197.310839 
L 371.801748 197.552164 
L 371.317564 197.793489 
L 370.836626 198.034814 
L 370.359145 198.276138 
L 369.885295 198.517463 
L 369.415224 198.758788 
L 368.949061 199.000113 
L 368.486923 199.241438 
L 368.02892 199.482762 
z
" style="fill:#1f77b4;fill-opacity:0.3;"/>
   </g>
   <g id="PolyCollection_3">
    <path clip-path="url(#p8e75745b0b)" d="M 570.350349 246.786042 
L 560.088221 246.786042 
L 560.058345 246.231355 
L 560.037719 245.676668 
L 560.025896 245.121981 
L 560.022321 244.567294 
L 560.026336 244.012607 
L 560.037189 243.457919 
L 560.054041 242.903232 
L 560.075977 242.348545 
L 560.10202 241.793858 
L 560.131138 241.239171 
L 560.16226 240.684484 
L 560.194287 240.129797 
L 560.226107 239.57511 
L 560.256608 239.020423 
L 560.28469 238.465736 
L 560.309273 237.911049 
L 560.329316 237.356362 
L 560.343818 236.801675 
L 560.351834 236.246988 
L 560.352475 235.692301 
L 560.344918 235.137614 
L 560.328404 234.582927 
L 560.302244 234.02824 
L 560.265817 233.473552 
L 560.218565 232.918865 
L 560.159988 232.364178 
L 560.08964 231.809491 
L 560.007122 231.254804 
L 559.912065 230.700117 
L 559.804128 230.14543 
L 559.682982 229.590743 
L 559.548294 229.036056 
L 559.399723 228.481369 
L 559.2369 227.926682 
L 559.059417 227.371995 
L 558.86682 226.817308 
L 558.658594 226.262621 
L 558.434157 225.707934 
L 558.192856 225.153247 
L 557.933957 224.59856 
L 557.656649 224.043872 
L 557.360045 223.489185 
L 557.043182 222.934498 
L 556.705037 222.379811 
L 556.344531 221.825124 
L 555.960549 221.270437 
L 555.551954 220.71575 
L 555.117611 220.161063 
L 554.65641 219.606376 
L 554.167292 219.051689 
L 553.64928 218.497002 
L 553.101507 217.942315 
L 552.52325 217.387628 
L 551.913962 216.832941 
L 551.273305 216.278254 
L 550.60118 215.723567 
L 549.897761 215.16888 
L 549.163523 214.614193 
L 548.399267 214.059505 
L 547.606142 213.504818 
L 546.78567 212.950131 
L 545.939752 212.395444 
L 545.070682 211.840757 
L 544.181153 211.28607 
L 543.274249 210.731383 
L 542.353444 210.176696 
L 541.422581 209.622009 
L 540.485856 209.067322 
L 539.547791 208.512635 
L 538.613197 207.957948 
L 537.687141 207.403261 
L 536.774897 206.848574 
L 535.881903 206.293887 
L 535.013704 205.7392 
L 534.175896 205.184513 
L 533.374072 204.629826 
L 532.613756 204.075138 
L 531.900346 203.520451 
L 531.23905 202.965764 
L 530.634829 202.411077 
L 530.092338 201.85639 
L 529.615871 201.301703 
L 529.20931 200.747016 
L 528.876078 200.192329 
L 528.619098 199.637642 
L 528.44076 199.082955 
L 528.342888 198.528268 
L 528.326723 197.973581 
L 528.392904 197.418894 
L 528.541465 196.864207 
L 528.771833 196.30952 
L 529.082834 195.754833 
L 529.472714 195.200146 
L 529.939153 194.645458 
L 530.479302 194.090771 
L 531.089809 193.536084 
L 531.766864 192.981397 
L 532.506245 192.42671 
L 533.30336 191.872023 
L 597.13521 191.872023 
L 597.13521 191.872023 
L 597.932325 192.42671 
L 598.671705 192.981397 
L 599.348761 193.536084 
L 599.959268 194.090771 
L 600.499417 194.645458 
L 600.965856 195.200146 
L 601.355736 195.754833 
L 601.666737 196.30952 
L 601.897105 196.864207 
L 602.045666 197.418894 
L 602.111847 197.973581 
L 602.095682 198.528268 
L 601.99781 199.082955 
L 601.819472 199.637642 
L 601.562492 200.192329 
L 601.22926 200.747016 
L 600.822699 201.301703 
L 600.346232 201.85639 
L 599.803741 202.411077 
L 599.19952 202.965764 
L 598.538224 203.520451 
L 597.824814 204.075138 
L 597.064498 204.629826 
L 596.262673 205.184513 
L 595.424866 205.7392 
L 594.556667 206.293887 
L 593.663673 206.848574 
L 592.751429 207.403261 
L 591.825373 207.957948 
L 590.890779 208.512635 
L 589.952713 209.067322 
L 589.015989 209.622009 
L 588.085126 210.176696 
L 587.164321 210.731383 
L 586.257417 211.28607 
L 585.367888 211.840757 
L 584.498818 212.395444 
L 583.6529 212.950131 
L 582.832428 213.504818 
L 582.039303 214.059505 
L 581.275047 214.614193 
L 580.540809 215.16888 
L 579.83739 215.723567 
L 579.165265 216.278254 
L 578.524607 216.832941 
L 577.915319 217.387628 
L 577.337063 217.942315 
L 576.78929 218.497002 
L 576.271278 219.051689 
L 575.78216 219.606376 
L 575.320959 220.161063 
L 574.886616 220.71575 
L 574.478021 221.270437 
L 574.094039 221.825124 
L 573.733533 222.379811 
L 573.395388 222.934498 
L 573.078525 223.489185 
L 572.781921 224.043872 
L 572.504613 224.59856 
L 572.245714 225.153247 
L 572.004412 225.707934 
L 571.779976 226.262621 
L 571.57175 226.817308 
L 571.379153 227.371995 
L 571.20167 227.926682 
L 571.038847 228.481369 
L 570.890276 229.036056 
L 570.755588 229.590743 
L 570.634441 230.14543 
L 570.526505 230.700117 
L 570.431448 231.254804 
L 570.34893 231.809491 
L 570.278582 232.364178 
L 570.220005 232.918865 
L 570.172752 233.473552 
L 570.136326 234.02824 
L 570.110166 234.582927 
L 570.093652 235.137614 
L 570.086095 235.692301 
L 570.086736 236.246988 
L 570.094752 236.801675 
L 570.109254 237.356362 
L 570.129297 237.911049 
L 570.15388 238.465736 
L 570.181962 239.020423 
L 570.212463 239.57511 
L 570.244283 240.129797 
L 570.27631 240.684484 
L 570.307432 241.239171 
L 570.33655 241.793858 
L 570.362593 242.348545 
L 570.384529 242.903232 
L 570.401381 243.457919 
L 570.412234 244.012607 
L 570.416249 244.567294 
L 570.412674 245.121981 
L 570.400851 245.676668 
L 570.380225 246.231355 
L 570.350349 246.786042 
z
" style="fill:#1f77b4;fill-opacity:0.3;"/>
   </g>
   <g id="PolyCollection_4">
    <path clip-path="url(#p8e75745b0b)" d="M 793.894039 303.811823 
L 758.173811 303.811823 
L 757.385767 303.241502 
L 756.588393 302.671181 
L 755.783118 302.10086 
L 754.97148 301.530539 
L 754.155129 300.960218 
L 753.335833 300.389897 
L 752.515482 299.819576 
L 751.696092 299.249255 
L 750.879804 298.678934 
L 750.068887 298.108613 
L 749.265733 297.538292 
L 748.472858 296.967971 
L 747.692893 296.39765 
L 746.928575 295.827329 
L 746.182738 295.257007 
L 745.458299 294.686686 
L 744.758242 294.116365 
L 744.085598 293.546044 
L 743.443426 292.975723 
L 742.834787 292.405402 
L 742.262719 291.835081 
L 741.730209 291.26476 
L 741.240167 290.694439 
L 740.795389 290.124118 
L 740.398531 289.553797 
L 740.052077 288.983476 
L 739.758304 288.413155 
L 739.519257 287.842834 
L 739.336715 287.272513 
L 739.212162 286.702192 
L 739.146769 286.131871 
L 739.141363 285.56155 
L 739.196411 284.991229 
L 739.312004 284.420908 
L 739.487844 283.850587 
L 739.723238 283.280265 
L 740.017091 282.709944 
L 740.36791 282.139623 
L 740.77381 281.569302 
L 741.232523 280.998981 
L 741.741417 280.42866 
L 742.29751 279.858339 
L 742.897501 279.288018 
L 743.537796 278.717697 
L 744.214538 278.147376 
L 744.923647 277.577055 
L 745.660855 277.006734 
L 746.421749 276.436413 
L 747.201815 275.866092 
L 747.996476 275.295771 
L 748.801144 274.72545 
L 749.61126 274.155129 
L 750.422341 273.584808 
L 751.230019 273.014487 
L 752.030086 272.444166 
L 752.818532 271.873844 
L 753.591579 271.303523 
L 754.345717 270.733202 
L 755.077729 270.162881 
L 755.784723 269.59256 
L 756.464145 269.022239 
L 757.113802 268.451918 
L 757.731872 267.881597 
L 758.31691 267.311276 
L 758.867852 266.740955 
L 759.384015 266.170634 
L 759.865086 265.600313 
L 760.311117 265.029992 
L 760.72251 264.459671 
L 761.099996 263.88935 
L 761.444614 263.319029 
L 761.757692 262.748708 
L 762.040816 262.178387 
L 762.2958 261.608066 
L 762.524663 261.037745 
L 762.729588 260.467424 
L 762.912898 259.897102 
L 763.077019 259.326781 
L 763.224452 258.75646 
L 763.357735 258.186139 
L 763.479417 257.615818 
L 763.59203 257.045497 
L 763.698055 256.475176 
L 763.7999 255.904855 
L 763.899877 255.334534 
L 764.000176 254.764213 
L 764.102848 254.193892 
L 764.20979 253.623571 
L 764.322725 253.05325 
L 764.443197 252.482929 
L 764.572556 251.912608 
L 764.711956 251.342287 
L 764.862347 250.771966 
L 765.024479 250.201645 
L 765.198897 249.631324 
L 765.385949 249.061003 
L 765.585788 248.490681 
L 765.798382 247.92036 
L 766.02352 247.350039 
L 786.044329 247.350039 
L 786.044329 247.350039 
L 786.269468 247.92036 
L 786.482061 248.490681 
L 786.681901 249.061003 
L 786.868952 249.631324 
L 787.043371 250.201645 
L 787.205503 250.771966 
L 787.355894 251.342287 
L 787.495294 251.912608 
L 787.624653 252.482929 
L 787.745124 253.05325 
L 787.85806 253.623571 
L 787.965001 254.193892 
L 788.067674 254.764213 
L 788.167973 255.334534 
L 788.26795 255.904855 
L 788.369795 256.475176 
L 788.47582 257.045497 
L 788.588432 257.615818 
L 788.710115 258.186139 
L 788.843398 258.75646 
L 788.99083 259.326781 
L 789.154952 259.897102 
L 789.338262 260.467424 
L 789.543187 261.037745 
L 789.772049 261.608066 
L 790.027034 262.178387 
L 790.310158 262.748708 
L 790.623236 263.319029 
L 790.967854 263.88935 
L 791.34534 264.459671 
L 791.756732 265.029992 
L 792.202764 265.600313 
L 792.683835 266.170634 
L 793.199997 266.740955 
L 793.75094 267.311276 
L 794.335977 267.881597 
L 794.954047 268.451918 
L 795.603705 269.022239 
L 796.283127 269.59256 
L 796.990121 270.162881 
L 797.722133 270.733202 
L 798.476271 271.303523 
L 799.249318 271.873844 
L 800.037763 272.444166 
L 800.837831 273.014487 
L 801.645509 273.584808 
L 802.45659 274.155129 
L 803.266706 274.72545 
L 804.071374 275.295771 
L 804.866035 275.866092 
L 805.6461 276.436413 
L 806.406995 277.006734 
L 807.144203 277.577055 
L 807.853312 278.147376 
L 808.530054 278.717697 
L 809.170349 279.288018 
L 809.77034 279.858339 
L 810.326433 280.42866 
L 810.835326 280.998981 
L 811.29404 281.569302 
L 811.69994 282.139623 
L 812.050759 282.709944 
L 812.344612 283.280265 
L 812.580005 283.850587 
L 812.755846 284.420908 
L 812.871439 284.991229 
L 812.926487 285.56155 
L 812.921081 286.131871 
L 812.855687 286.702192 
L 812.731135 287.272513 
L 812.548592 287.842834 
L 812.309545 288.413155 
L 812.015773 288.983476 
L 811.669319 289.553797 
L 811.272461 290.124118 
L 810.827683 290.694439 
L 810.33764 291.26476 
L 809.805131 291.835081 
L 809.233063 292.405402 
L 808.624423 292.975723 
L 807.982251 293.546044 
L 807.309608 294.116365 
L 806.609551 294.686686 
L 805.885112 295.257007 
L 805.139275 295.827329 
L 804.374957 296.39765 
L 803.594992 296.967971 
L 802.802117 297.538292 
L 801.998963 298.108613 
L 801.188045 298.678934 
L 800.371757 299.249255 
L 799.552367 299.819576 
L 798.732017 300.389897 
L 797.912721 300.960218 
L 797.09637 301.530539 
L 796.284732 302.10086 
L 795.479457 302.671181 
L 794.682083 303.241502 
L 793.894039 303.811823 
z
" style="fill:#1f77b4;fill-opacity:0.3;"/>
   </g>
   <g id="PolyCollection_5">
    <path clip-path="url(#p8e75745b0b)" d="M 895.23164 490.794545 
L 867.65085 490.794545 
L 867.385673 489.776983 
L 867.13353 488.759422 
L 866.894171 487.74186 
L 866.66717 486.724299 
L 866.451934 485.706737 
L 866.247702 484.689176 
L 866.053556 483.671614 
L 865.868426 482.654053 
L 865.691106 481.636491 
L 865.520263 480.61893 
L 865.354454 479.601368 
L 865.192142 478.583806 
L 865.031715 477.566245 
L 864.8715 476.548683 
L 864.70979 475.531122 
L 864.544857 474.51356 
L 864.374976 473.495999 
L 864.198446 472.478437 
L 864.013605 471.460876 
L 863.818854 470.443314 
L 863.612673 469.425753 
L 863.393639 468.408191 
L 863.16044 467.39063 
L 862.911891 466.373068 
L 862.646948 465.355507 
L 862.364716 464.337945 
L 862.064458 463.320384 
L 861.745607 462.302822 
L 861.407765 461.285261 
L 861.050712 460.267699 
L 860.674404 459.250137 
L 860.278976 458.232576 
L 859.864739 457.215014 
L 859.432176 456.197453 
L 858.981941 455.179891 
L 858.514848 454.16233 
L 858.031869 453.144768 
L 857.534126 452.127207 
L 857.022879 451.109645 
L 856.499521 450.092084 
L 855.965564 449.074522 
L 855.422634 448.056961 
L 854.872457 447.039399 
L 854.31685 446.021838 
L 853.757709 445.004276 
L 853.196999 443.986715 
L 852.636744 442.969153 
L 852.079015 441.951591 
L 851.52592 440.93403 
L 850.979593 439.916468 
L 850.442182 438.898907 
L 849.915841 437.881345 
L 849.402718 436.863784 
L 848.904945 435.846222 
L 848.424627 434.828661 
L 847.963831 433.811099 
L 847.524579 432.793538 
L 847.108833 431.775976 
L 846.71849 430.758415 
L 846.355368 429.740853 
L 846.021201 428.723292 
L 845.717626 427.70573 
L 845.446174 426.688169 
L 845.208265 425.670607 
L 845.005199 424.653045 
L 844.838146 423.635484 
L 844.708145 422.617922 
L 844.61609 421.600361 
L 844.562735 420.582799 
L 844.548683 419.565238 
L 844.574384 418.547676 
L 844.640134 417.530115 
L 844.746076 416.512553 
L 844.892196 415.494992 
L 845.078326 414.47743 
L 845.304145 413.459869 
L 845.569184 412.442307 
L 845.872827 411.424746 
L 846.214319 410.407184 
L 846.592769 409.389623 
L 847.007157 408.372061 
L 847.456341 407.354499 
L 847.939065 406.336938 
L 848.453965 405.319376 
L 848.99958 404.301815 
L 849.57436 403.284253 
L 850.176673 402.266692 
L 850.804814 401.24913 
L 851.457016 400.231569 
L 852.131458 399.214007 
L 852.826273 398.196446 
L 853.539556 397.178884 
L 854.269375 396.161323 
L 855.013779 395.143761 
L 855.770801 394.1262 
L 856.538475 393.108638 
L 857.314835 392.091077 
L 858.097926 391.073515 
L 858.885814 390.055953 
L 903.996676 390.055953 
L 903.996676 390.055953 
L 904.784564 391.073515 
L 905.567655 392.091077 
L 906.344015 393.108638 
L 907.111688 394.1262 
L 907.868711 395.143761 
L 908.613114 396.161323 
L 909.342934 397.178884 
L 910.056217 398.196446 
L 910.751031 399.214007 
L 911.425473 400.231569 
L 912.077676 401.24913 
L 912.705817 402.266692 
L 913.308129 403.284253 
L 913.882909 404.301815 
L 914.428525 405.319376 
L 914.943425 406.336938 
L 915.426149 407.354499 
L 915.875332 408.372061 
L 916.28972 409.389623 
L 916.66817 410.407184 
L 917.009663 411.424746 
L 917.313306 412.442307 
L 917.578345 413.459869 
L 917.804164 414.47743 
L 917.990294 415.494992 
L 918.136413 416.512553 
L 918.242356 417.530115 
L 918.308106 418.547676 
L 918.333807 419.565238 
L 918.319754 420.582799 
L 918.266399 421.600361 
L 918.174345 422.617922 
L 918.044343 423.635484 
L 917.877291 424.653045 
L 917.674225 425.670607 
L 917.436316 426.688169 
L 917.164864 427.70573 
L 916.861288 428.723292 
L 916.527121 429.740853 
L 916.164 430.758415 
L 915.773657 431.775976 
L 915.357911 432.793538 
L 914.918658 433.811099 
L 914.457863 434.828661 
L 913.977544 435.846222 
L 913.479771 436.863784 
L 912.966649 437.881345 
L 912.440308 438.898907 
L 911.902897 439.916468 
L 911.35657 440.93403 
L 910.803475 441.951591 
L 910.245746 442.969153 
L 909.685491 443.986715 
L 909.124781 445.004276 
L 908.56564 446.021838 
L 908.010032 447.039399 
L 907.459856 448.056961 
L 906.916926 449.074522 
L 906.382969 450.092084 
L 905.85961 451.109645 
L 905.348364 452.127207 
L 904.85062 453.144768 
L 904.367642 454.16233 
L 903.900549 455.179891 
L 903.450313 456.197453 
L 903.017751 457.215014 
L 902.603514 458.232576 
L 902.208086 459.250137 
L 901.831778 460.267699 
L 901.474725 461.285261 
L 901.136883 462.302822 
L 900.818031 463.320384 
L 900.517774 464.337945 
L 900.235541 465.355507 
L 899.970598 466.373068 
L 899.72205 467.39063 
L 899.488851 468.408191 
L 899.269817 469.425753 
L 899.063636 470.443314 
L 898.868885 471.460876 
L 898.684044 472.478437 
L 898.507513 473.495999 
L 898.337633 474.51356 
L 898.1727 475.531122 
L 898.01099 476.548683 
L 897.850775 477.566245 
L 897.690347 478.583806 
L 897.528036 479.601368 
L 897.362227 480.61893 
L 897.191384 481.636491 
L 897.014064 482.654053 
L 896.828934 483.671614 
L 896.634788 484.689176 
L 896.430556 485.706737 
L 896.21532 486.724299 
L 895.988319 487.74186 
L 895.74896 488.759422 
L 895.496817 489.776983 
L 895.23164 490.794545 
z
" style="fill:#1f77b4;fill-opacity:0.3;"/>
   </g>
   <g id="PolyCollection_6">
    <path clip-path="url(#p8e75745b0b)" d="M 371.788764 195.011133 
L 337.020526 195.011133 
L 336.106281 194.830858 
L 335.174357 194.650584 
L 334.227229 194.470309 
L 333.267673 194.290034 
L 332.298772 194.109759 
L 331.323917 193.929485 
L 330.346797 193.74921 
L 329.371394 193.568935 
L 328.401963 193.38866 
L 327.443012 193.208385 
L 326.499273 193.028111 
L 325.575674 192.847836 
L 324.677294 192.667561 
L 323.809322 192.487286 
L 322.97701 192.307012 
L 322.185614 192.126737 
L 321.440343 191.946462 
L 320.746296 191.766187 
L 320.108399 191.585912 
L 319.531343 191.405638 
L 319.019523 191.225363 
L 318.576971 191.045088 
L 318.207303 190.864813 
L 317.913657 190.684539 
L 317.698647 190.504264 
L 317.564312 190.323989 
L 317.512083 190.143714 
L 317.542748 189.963439 
L 317.656432 189.783165 
L 317.852579 189.60289 
L 318.129954 189.422615 
L 318.486644 189.24234 
L 318.920074 189.062066 
L 319.427032 188.881791 
L 320.003705 188.701516 
L 320.645719 188.521241 
L 321.348192 188.340966 
L 322.105792 188.160692 
L 322.9128 187.980417 
L 323.76318 187.800142 
L 324.650653 187.619867 
L 325.568773 187.439593 
L 326.511002 187.259318 
L 327.470789 187.079043 
L 328.441647 186.898768 
L 329.41722 186.718493 
L 330.391359 186.538219 
L 331.358184 186.357944 
L 332.31214 186.177669 
L 333.248051 185.997394 
L 334.161164 185.81712 
L 335.047185 185.636845 
L 335.902309 185.45657 
L 336.723238 185.276295 
L 337.507194 185.09602 
L 338.251924 184.915746 
L 338.955692 184.735471 
L 339.617274 184.555196 
L 340.235934 184.374921 
L 340.811404 184.194647 
L 341.343855 184.014372 
L 341.833859 183.834097 
L 342.28236 183.653822 
L 342.690627 183.473547 
L 343.060218 183.293273 
L 343.392937 183.112998 
L 343.69079 182.932723 
L 343.955946 182.752448 
L 344.190699 182.572174 
L 344.397429 182.391899 
L 344.578563 182.211624 
L 344.736553 182.031349 
L 344.873839 181.851074 
L 344.992824 181.6708 
L 345.09586 181.490525 
L 345.185221 181.31025 
L 345.263095 181.129975 
L 345.331567 180.949701 
L 345.392615 180.769426 
L 345.448104 180.589151 
L 345.499778 180.408876 
L 345.549264 180.228601 
L 345.598071 180.048327 
L 345.647588 179.868052 
L 345.69909 179.687777 
L 345.753741 179.507502 
L 345.812594 179.327228 
L 345.876597 179.146953 
L 345.946594 178.966678 
L 346.023331 178.786403 
L 346.107454 178.606128 
L 346.199512 178.425854 
L 346.299961 178.245579 
L 346.409162 178.065304 
L 346.52738 177.885029 
L 346.654789 177.704755 
L 346.79147 177.52448 
L 346.937409 177.344205 
L 347.092502 177.16393 
L 361.716788 177.16393 
L 361.716788 177.16393 
L 361.871881 177.344205 
L 362.017821 177.52448 
L 362.154501 177.704755 
L 362.281911 177.885029 
L 362.400129 178.065304 
L 362.509329 178.245579 
L 362.609778 178.425854 
L 362.701836 178.606128 
L 362.785959 178.786403 
L 362.862696 178.966678 
L 362.932694 179.146953 
L 362.996696 179.327228 
L 363.055549 179.507502 
L 363.1102 179.687777 
L 363.161702 179.868052 
L 363.211219 180.048327 
L 363.260026 180.228601 
L 363.309512 180.408876 
L 363.361187 180.589151 
L 363.416675 180.769426 
L 363.477723 180.949701 
L 363.546195 181.129975 
L 363.624069 181.31025 
L 363.71343 181.490525 
L 363.816466 181.6708 
L 363.935452 181.851074 
L 364.072737 182.031349 
L 364.230727 182.211624 
L 364.411862 182.391899 
L 364.618591 182.572174 
L 364.853344 182.752448 
L 365.1185 182.932723 
L 365.416353 183.112998 
L 365.749072 183.293273 
L 366.118663 183.473547 
L 366.52693 183.653822 
L 366.975431 183.834097 
L 367.465435 184.014372 
L 367.997886 184.194647 
L 368.573356 184.374921 
L 369.192016 184.555196 
L 369.853598 184.735471 
L 370.557366 184.915746 
L 371.302096 185.09602 
L 372.086052 185.276295 
L 372.906981 185.45657 
L 373.762105 185.636845 
L 374.648126 185.81712 
L 375.561239 185.997394 
L 376.49715 186.177669 
L 377.451106 186.357944 
L 378.417931 186.538219 
L 379.39207 186.718493 
L 380.367644 186.898768 
L 381.338501 187.079043 
L 382.298288 187.259318 
L 383.240517 187.439593 
L 384.158637 187.619867 
L 385.04611 187.800142 
L 385.89649 187.980417 
L 386.703498 188.160692 
L 387.461098 188.340966 
L 388.163571 188.521241 
L 388.805586 188.701516 
L 389.382258 188.881791 
L 389.889217 189.062066 
L 390.322646 189.24234 
L 390.679336 189.422615 
L 390.956711 189.60289 
L 391.152858 189.783165 
L 391.266542 189.963439 
L 391.297207 190.143714 
L 391.244978 190.323989 
L 391.110643 190.504264 
L 390.895633 190.684539 
L 390.601987 190.864813 
L 390.232319 191.045088 
L 389.789767 191.225363 
L 389.277947 191.405638 
L 388.700892 191.585912 
L 388.062994 191.766187 
L 387.368947 191.946462 
L 386.623676 192.126737 
L 385.83228 192.307012 
L 384.999968 192.487286 
L 384.131996 192.667561 
L 383.233616 192.847836 
L 382.310017 193.028111 
L 381.366278 193.208385 
L 380.407327 193.38866 
L 379.437896 193.568935 
L 378.462493 193.74921 
L 377.485373 193.929485 
L 376.510518 194.109759 
L 375.541617 194.290034 
L 374.582061 194.470309 
L 373.634933 194.650584 
L 372.70301 194.830858 
L 371.788764 195.011133 
z
" style="fill:#d62728;fill-opacity:0.3;"/>
   </g>
   <g id="PolyCollection_7">
    <path clip-path="url(#p8e75745b0b)" d="M 572.244386 211.460678 
L 558.194184 211.460678 
L 558.060693 211.18269 
L 557.929133 210.904702 
L 557.797484 210.626714 
L 557.663466 210.348726 
L 557.524558 210.070738 
L 557.378025 209.79275 
L 557.220952 209.514762 
L 557.050277 209.236773 
L 556.862836 208.958785 
L 556.655403 208.680797 
L 556.424746 208.402809 
L 556.167673 208.124821 
L 555.881085 207.846833 
L 555.562035 207.568845 
L 555.207776 207.290857 
L 554.815819 207.012869 
L 554.383981 206.734881 
L 553.91044 206.456892 
L 553.393773 206.178904 
L 552.833002 205.900916 
L 552.227625 205.622928 
L 551.577651 205.34494 
L 550.883618 205.066952 
L 550.146611 204.788964 
L 549.368266 204.510976 
L 548.550772 204.232988 
L 547.696861 203.955 
L 546.809793 203.677011 
L 545.893325 203.399023 
L 544.951681 203.121035 
L 543.98951 202.843047 
L 543.011835 202.565059 
L 542.024005 202.287071 
L 541.031626 202.009083 
L 540.040501 201.731095 
L 539.056562 201.453107 
L 538.085798 201.175118 
L 537.13418 200.89713 
L 536.207597 200.619142 
L 535.311776 200.341154 
L 534.45222 200.063166 
L 533.63414 199.785178 
L 532.862397 199.50719 
L 532.141447 199.229202 
L 531.47529 198.951214 
L 530.867436 198.673226 
L 530.320864 198.395237 
L 529.838005 198.117249 
L 529.420721 197.839261 
L 529.070299 197.561273 
L 528.787452 197.283285 
L 528.572329 197.005297 
L 528.42453 196.727309 
L 528.343133 196.449321 
L 528.326723 196.171333 
L 528.373428 195.893345 
L 528.480964 195.615356 
L 528.646677 195.337368 
L 528.867593 195.05938 
L 529.14047 194.781392 
L 529.46185 194.503404 
L 529.82811 194.225416 
L 530.235513 193.947428 
L 530.680263 193.66944 
L 531.158549 193.391452 
L 531.666593 193.113463 
L 532.200689 192.835475 
L 532.757246 192.557487 
L 533.33282 192.279499 
L 533.924146 192.001511 
L 534.528159 191.723523 
L 535.142022 191.445535 
L 535.763136 191.167547 
L 536.389155 190.889559 
L 537.017994 190.611571 
L 537.647827 190.333582 
L 538.277093 190.055594 
L 538.904486 189.777606 
L 539.528947 189.499618 
L 540.149652 189.22163 
L 540.765999 188.943642 
L 541.37759 188.665654 
L 541.984209 188.387666 
L 542.585802 188.109678 
L 543.182457 187.83169 
L 543.774374 187.553701 
L 544.361846 187.275713 
L 544.945231 186.997725 
L 545.524931 186.719737 
L 546.101362 186.441749 
L 546.674937 186.163761 
L 547.246045 185.885773 
L 547.815024 185.607785 
L 548.382152 185.329797 
L 548.947626 185.051809 
L 549.511551 184.77382 
L 550.07393 184.495832 
L 550.634659 184.217844 
L 551.193516 183.939856 
L 579.245054 183.939856 
L 579.245054 183.939856 
L 579.803911 184.217844 
L 580.36464 184.495832 
L 580.927019 184.77382 
L 581.490944 185.051809 
L 582.056418 185.329797 
L 582.623546 185.607785 
L 583.192525 185.885773 
L 583.763633 186.163761 
L 584.337208 186.441749 
L 584.913639 186.719737 
L 585.493339 186.997725 
L 586.076724 187.275713 
L 586.664196 187.553701 
L 587.256113 187.83169 
L 587.852768 188.109678 
L 588.454361 188.387666 
L 589.06098 188.665654 
L 589.672571 188.943642 
L 590.288918 189.22163 
L 590.909623 189.499618 
L 591.534084 189.777606 
L 592.161477 190.055594 
L 592.790743 190.333582 
L 593.420576 190.611571 
L 594.049415 190.889559 
L 594.675434 191.167547 
L 595.296548 191.445535 
L 595.910411 191.723523 
L 596.514424 192.001511 
L 597.10575 192.279499 
L 597.681324 192.557487 
L 598.237881 192.835475 
L 598.771977 193.113463 
L 599.28002 193.391452 
L 599.758307 193.66944 
L 600.203057 193.947428 
L 600.61046 194.225416 
L 600.97672 194.503404 
L 601.2981 194.781392 
L 601.570977 195.05938 
L 601.791893 195.337368 
L 601.957606 195.615356 
L 602.065142 195.893345 
L 602.111847 196.171333 
L 602.095437 196.449321 
L 602.01404 196.727309 
L 601.866241 197.005297 
L 601.651118 197.283285 
L 601.368271 197.561273 
L 601.017849 197.839261 
L 600.600565 198.117249 
L 600.117706 198.395237 
L 599.571134 198.673226 
L 598.96328 198.951214 
L 598.297123 199.229202 
L 597.576173 199.50719 
L 596.80443 199.785178 
L 595.98635 200.063166 
L 595.126794 200.341154 
L 594.230973 200.619142 
L 593.30439 200.89713 
L 592.352772 201.175118 
L 591.382008 201.453107 
L 590.398069 201.731095 
L 589.406944 202.009083 
L 588.414565 202.287071 
L 587.426734 202.565059 
L 586.44906 202.843047 
L 585.486889 203.121035 
L 584.545245 203.399023 
L 583.628777 203.677011 
L 582.741708 203.955 
L 581.887798 204.232988 
L 581.070304 204.510976 
L 580.291959 204.788964 
L 579.554951 205.066952 
L 578.860919 205.34494 
L 578.210945 205.622928 
L 577.605568 205.900916 
L 577.044797 206.178904 
L 576.52813 206.456892 
L 576.054588 206.734881 
L 575.622751 207.012869 
L 575.230794 207.290857 
L 574.876535 207.568845 
L 574.557485 207.846833 
L 574.270897 208.124821 
L 574.013824 208.402809 
L 573.783167 208.680797 
L 573.575734 208.958785 
L 573.388293 209.236773 
L 573.217618 209.514762 
L 573.060545 209.79275 
L 572.914012 210.070738 
L 572.775104 210.348726 
L 572.641086 210.626714 
L 572.509437 210.904702 
L 572.377877 211.18269 
L 572.244386 211.460678 
z
" style="fill:#d62728;fill-opacity:0.3;"/>
   </g>
   <g id="PolyCollection_8">
    <path clip-path="url(#p8e75745b0b)" d="M 796.847994 244.708174 
L 755.219855 244.708174 
L 754.741166 244.351439 
L 754.279075 243.994703 
L 753.834063 243.637967 
L 753.406433 243.281231 
L 752.996301 242.924496 
L 752.603598 242.56776 
L 752.228071 242.211024 
L 751.869283 241.854289 
L 751.526619 241.497553 
L 751.199299 241.140817 
L 750.886381 240.784082 
L 750.586782 240.427346 
L 750.299287 240.07061 
L 750.022573 239.713875 
L 749.755223 239.357139 
L 749.495751 239.000403 
L 749.242622 238.643668 
L 748.994279 238.286932 
L 748.749164 237.930196 
L 748.505745 237.573461 
L 748.26254 237.216725 
L 748.01814 236.859989 
L 747.771236 236.503254 
L 747.520636 236.146518 
L 747.265291 235.789782 
L 747.004307 235.433047 
L 746.736969 235.076311 
L 746.462747 234.719575 
L 746.181314 234.36284 
L 745.892548 234.006104 
L 745.596538 233.649368 
L 745.293587 233.292633 
L 744.984208 232.935897 
L 744.669119 232.579161 
L 744.349233 232.222425 
L 744.025649 231.86569 
L 743.699632 231.508954 
L 743.3726 231.152218 
L 743.046101 230.795483 
L 742.72179 230.438747 
L 742.401409 230.082011 
L 742.086756 229.725276 
L 741.779664 229.36854 
L 741.481971 229.011804 
L 741.195495 228.655069 
L 740.922007 228.298333 
L 740.663208 227.941597 
L 740.420703 227.584862 
L 740.195982 227.228126 
L 739.990399 226.87139 
L 739.805156 226.514655 
L 739.641287 226.157919 
L 739.499652 225.801183 
L 739.380925 225.444448 
L 739.285591 225.087712 
L 739.213947 224.730976 
L 739.166104 224.374241 
L 739.14199 224.017505 
L 739.141363 223.660769 
L 739.163822 223.304034 
L 739.20882 222.947298 
L 739.275683 222.590562 
L 739.363627 222.233827 
L 739.471779 221.877091 
L 739.5992 221.520355 
L 739.744903 221.163619 
L 739.907881 220.806884 
L 740.087123 220.450148 
L 740.281642 220.093412 
L 740.490487 219.736677 
L 740.712768 219.379941 
L 740.947673 219.023205 
L 741.194477 218.66647 
L 741.452559 218.309734 
L 741.72141 217.952998 
L 742.000639 217.596263 
L 742.289978 217.239527 
L 742.58928 216.882791 
L 742.898522 216.526056 
L 743.217793 216.16932 
L 743.547295 215.812584 
L 743.887323 215.455849 
L 744.238262 215.099113 
L 744.600564 214.742377 
L 744.974741 214.385642 
L 745.36134 214.028906 
L 745.760928 213.67217 
L 746.174076 213.315435 
L 746.601335 212.958699 
L 747.043221 212.601963 
L 747.500194 212.245228 
L 747.972646 211.888492 
L 748.46088 211.531756 
L 748.965096 211.175021 
L 749.485382 210.818285 
L 750.021701 210.461549 
L 750.573882 210.104813 
L 751.141617 209.748078 
L 751.724452 209.391342 
L 800.343398 209.391342 
L 800.343398 209.391342 
L 800.926233 209.748078 
L 801.493968 210.104813 
L 802.046149 210.461549 
L 802.582468 210.818285 
L 803.102754 211.175021 
L 803.60697 211.531756 
L 804.095204 211.888492 
L 804.567656 212.245228 
L 805.024629 212.601963 
L 805.466515 212.958699 
L 805.893774 213.315435 
L 806.306922 213.67217 
L 806.70651 214.028906 
L 807.093109 214.385642 
L 807.467286 214.742377 
L 807.829588 215.099113 
L 808.180526 215.455849 
L 808.520555 215.812584 
L 808.850056 216.16932 
L 809.169328 216.526056 
L 809.47857 216.882791 
L 809.777872 217.239527 
L 810.067211 217.596263 
L 810.34644 217.952998 
L 810.61529 218.309734 
L 810.873373 218.66647 
L 811.120177 219.023205 
L 811.355081 219.379941 
L 811.577363 219.736677 
L 811.786208 220.093412 
L 811.980726 220.450148 
L 812.159969 220.806884 
L 812.322947 221.163619 
L 812.46865 221.520355 
L 812.59607 221.877091 
L 812.704223 222.233827 
L 812.792166 222.590562 
L 812.859029 222.947298 
L 812.904028 223.304034 
L 812.926487 223.660769 
L 812.92586 224.017505 
L 812.901746 224.374241 
L 812.853903 224.730976 
L 812.782259 225.087712 
L 812.686925 225.444448 
L 812.568198 225.801183 
L 812.426563 226.157919 
L 812.262694 226.514655 
L 812.077451 226.87139 
L 811.871867 227.228126 
L 811.647146 227.584862 
L 811.404642 227.941597 
L 811.145842 228.298333 
L 810.872355 228.655069 
L 810.585878 229.011804 
L 810.288185 229.36854 
L 809.981093 229.725276 
L 809.666441 230.082011 
L 809.346059 230.438747 
L 809.021749 230.795483 
L 808.695249 231.152218 
L 808.368217 231.508954 
L 808.042201 231.86569 
L 807.718616 232.222425 
L 807.398731 232.579161 
L 807.083642 232.935897 
L 806.774263 233.292633 
L 806.471312 233.649368 
L 806.175302 234.006104 
L 805.886535 234.36284 
L 805.605102 234.719575 
L 805.330881 235.076311 
L 805.063543 235.433047 
L 804.802559 235.789782 
L 804.547213 236.146518 
L 804.296614 236.503254 
L 804.049709 236.859989 
L 803.80531 237.216725 
L 803.562105 237.573461 
L 803.318686 237.930196 
L 803.073571 238.286932 
L 802.825228 238.643668 
L 802.572099 239.000403 
L 802.312626 239.357139 
L 802.045277 239.713875 
L 801.768562 240.07061 
L 801.481068 240.427346 
L 801.181469 240.784082 
L 800.868551 241.140817 
L 800.54123 241.497553 
L 800.198567 241.854289 
L 799.839779 242.211024 
L 799.464251 242.56776 
L 799.071549 242.924496 
L 798.661417 243.281231 
L 798.233786 243.637967 
L 797.788775 243.994703 
L 797.326684 244.351439 
L 796.847994 244.708174 
z
" style="fill:#d62728;fill-opacity:0.3;"/>
   </g>
   <g id="PolyCollection_9">
    <path clip-path="url(#p8e75745b0b)" d="M 906.069595 287.737431 
L 856.812894 287.737431 
L 855.957668 287.347346 
L 855.117613 286.957262 
L 854.295636 286.567177 
L 853.494569 286.177092 
L 852.717152 285.787008 
L 851.966005 285.396923 
L 851.2436 285.006838 
L 850.552239 284.616753 
L 849.894033 284.226669 
L 849.270874 283.836584 
L 848.684418 283.446499 
L 848.136065 283.056415 
L 847.626945 282.66633 
L 847.1579 282.276245 
L 846.729477 281.886161 
L 846.34192 281.496076 
L 845.995165 281.105991 
L 845.688838 280.715906 
L 845.422262 280.325822 
L 845.194464 279.935737 
L 845.004184 279.545652 
L 844.849893 279.155568 
L 844.729813 278.765483 
L 844.641938 278.375398 
L 844.584064 277.985314 
L 844.553815 277.595229 
L 844.548683 277.205144 
L 844.566055 276.815059 
L 844.60326 276.424975 
L 844.657598 276.03489 
L 844.726391 275.644805 
L 844.807013 275.254721 
L 844.896936 274.864636 
L 844.993764 274.474551 
L 845.095276 274.084467 
L 845.199451 273.694382 
L 845.304506 273.304297 
L 845.408922 272.914212 
L 845.511463 272.524128 
L 845.611197 272.134043 
L 845.707511 271.743958 
L 845.800113 271.353874 
L 845.889038 270.963789 
L 845.974641 270.573704 
L 846.05759 270.18362 
L 846.138849 269.793535 
L 846.219658 269.40345 
L 846.301507 269.013365 
L 846.386105 268.623281 
L 846.475345 268.233196 
L 846.571271 267.843111 
L 846.676031 267.453027 
L 846.791839 267.062942 
L 846.920931 266.672857 
L 847.065519 266.282773 
L 847.227753 265.892688 
L 847.409673 265.502603 
L 847.613174 265.112518 
L 847.839968 264.722434 
L 848.09155 264.332349 
L 848.369173 263.942264 
L 848.673818 263.55218 
L 849.006181 263.162095 
L 849.366656 262.77201 
L 849.755331 262.381926 
L 850.17198 261.991841 
L 850.616075 261.601756 
L 851.086789 261.211671 
L 851.58301 260.821587 
L 852.103368 260.431502 
L 852.64625 260.041417 
L 853.209832 259.651333 
L 853.79211 259.261248 
L 854.390931 258.871163 
L 855.004028 258.481079 
L 855.629061 258.090994 
L 856.263643 257.700909 
L 856.905386 257.310824 
L 857.551929 256.92074 
L 858.200972 256.530655 
L 858.850309 256.14057 
L 859.497851 255.750486 
L 860.141649 255.360401 
L 860.779921 254.970316 
L 861.411058 254.580232 
L 862.033646 254.190147 
L 862.646465 253.800062 
L 863.248496 253.409977 
L 863.838921 253.019893 
L 864.417118 252.629808 
L 864.98265 252.239723 
L 865.535259 251.849639 
L 866.074849 251.459554 
L 866.601468 251.069469 
L 867.115293 250.679385 
L 867.616612 250.2893 
L 868.105797 249.899215 
L 868.583292 249.50913 
L 869.049587 249.119046 
L 893.832902 249.119046 
L 893.832902 249.119046 
L 894.299198 249.50913 
L 894.776693 249.899215 
L 895.265878 250.2893 
L 895.767196 250.679385 
L 896.281022 251.069469 
L 896.807641 251.459554 
L 897.34723 251.849639 
L 897.89984 252.239723 
L 898.465372 252.629808 
L 899.043569 253.019893 
L 899.633994 253.409977 
L 900.236025 253.800062 
L 900.848843 254.190147 
L 901.471431 254.580232 
L 902.102569 254.970316 
L 902.74084 255.360401 
L 903.384639 255.750486 
L 904.03218 256.14057 
L 904.681517 256.530655 
L 905.330561 256.92074 
L 905.977104 257.310824 
L 906.618847 257.700909 
L 907.253429 258.090994 
L 907.878461 258.481079 
L 908.491559 258.871163 
L 909.09038 259.261248 
L 909.672658 259.651333 
L 910.23624 260.041417 
L 910.779122 260.431502 
L 911.299479 260.821587 
L 911.795701 261.211671 
L 912.266414 261.601756 
L 912.710509 261.991841 
L 913.127159 262.381926 
L 913.515834 262.77201 
L 913.876309 263.162095 
L 914.208672 263.55218 
L 914.513317 263.942264 
L 914.79094 264.332349 
L 915.042522 264.722434 
L 915.269316 265.112518 
L 915.472817 265.502603 
L 915.654737 265.892688 
L 915.81697 266.282773 
L 915.961559 266.672857 
L 916.090651 267.062942 
L 916.206459 267.453027 
L 916.311218 267.843111 
L 916.407144 268.233196 
L 916.496385 268.623281 
L 916.580983 269.013365 
L 916.662831 269.40345 
L 916.743641 269.793535 
L 916.8249 270.18362 
L 916.907849 270.573704 
L 916.993452 270.963789 
L 917.082376 271.353874 
L 917.174978 271.743958 
L 917.271292 272.134043 
L 917.371027 272.524128 
L 917.473568 272.914212 
L 917.577984 273.304297 
L 917.683039 273.694382 
L 917.787214 274.084467 
L 917.888725 274.474551 
L 917.985554 274.864636 
L 918.075477 275.254721 
L 918.156099 275.644805 
L 918.224891 276.03489 
L 918.27923 276.424975 
L 918.316434 276.815059 
L 918.333807 277.205144 
L 918.328674 277.595229 
L 918.298426 277.985314 
L 918.240551 278.375398 
L 918.152676 278.765483 
L 918.032596 279.155568 
L 917.878306 279.545652 
L 917.688026 279.935737 
L 917.460228 280.325822 
L 917.193652 280.715906 
L 916.887325 281.105991 
L 916.540569 281.496076 
L 916.153013 281.886161 
L 915.72459 282.276245 
L 915.255545 282.66633 
L 914.746425 283.056415 
L 914.198072 283.446499 
L 913.611616 283.836584 
L 912.988456 284.226669 
L 912.33025 284.616753 
L 911.63889 285.006838 
L 910.916485 285.396923 
L 910.165338 285.787008 
L 909.387921 286.177092 
L 908.586854 286.567177 
L 907.764876 286.957262 
L 906.924822 287.347346 
L 906.069595 287.737431 
z
" style="fill:#d62728;fill-opacity:0.3;"/>
   </g>
   <g id="matplotlib.axis_1">
    <g id="xtick_1">
     <g id="line2d_1">
      <path clip-path="url(#p8e75745b0b)" d="M 143.590005 502.138828 
L 143.590005 12.898828 
" style="fill:none;stroke:#b0b0b0;stroke-linecap:square;stroke-width:0.8;"/>
     </g>
     <g id="line2d_2">
      <defs>
       <path d="M 0 0 
L 0 3.5 
" id="m31071ee7b1" style="stroke:#000000;stroke-width:0.8;"/>
      </defs>
      <g>
       <use style="stroke:#000000;stroke-width:0.8;" x="143.590005" xlink:href="#m31071ee7b1" y="502.138828"/>
      </g>
     </g>
     <g id="text_1">
      <!-- 1.0 -->
      <defs>
       <path d="M 12.40625 8.296875 
L 28.515625 8.296875 
L 28.515625 63.921875 
L 10.984375 60.40625 
L 10.984375 69.390625 
L 28.421875 72.90625 
L 38.28125 72.90625 
L 38.28125 8.296875 
L 54.390625 8.296875 
L 54.390625 0 
L 12.40625 0 
z
" id="DejaVuSans-49"/>
       <path d="M 10.6875 12.40625 
L 21 12.40625 
L 21 0 
L 10.6875 0 
z
" id="DejaVuSans-46"/>
       <path d="M 31.78125 66.40625 
Q 24.171875 66.40625 20.328125 58.90625 
Q 16.5 51.421875 16.5 36.375 
Q 16.5 21.390625 20.328125 13.890625 
Q 24.171875 6.390625 31.78125 6.390625 
Q 39.453125 6.390625 43.28125 13.890625 
Q 47.125 21.390625 47.125 36.375 
Q 47.125 51.421875 43.28125 58.90625 
Q 39.453125 66.40625 31.78125 66.40625 
z
M 31.78125 74.21875 
Q 44.046875 74.21875 50.515625 64.515625 
Q 56.984375 54.828125 56.984375 36.375 
Q 56.984375 17.96875 50.515625 8.265625 
Q 44.046875 -1.421875 31.78125 -1.421875 
Q 19.53125 -1.421875 13.0625 8.265625 
Q 6.59375 17.96875 6.59375 36.375 
Q 6.59375 54.828125 13.0625 64.515625 
Q 19.53125 74.21875 31.78125 74.21875 
z
" id="DejaVuSans-48"/>
      </defs>
      <g transform="translate(131.662661 520.536484)scale(0.15 -0.15)">
       <use xlink:href="#DejaVuSans-49"/>
       <use x="63.623047" xlink:href="#DejaVuSans-46"/>
       <use x="95.410156" xlink:href="#DejaVuSans-48"/>
      </g>
     </g>
    </g>
    <g id="xtick_2">
     <g id="line2d_3">
      <path clip-path="url(#p8e75745b0b)" d="M 354.404645 502.138828 
L 354.404645 12.898828 
" style="fill:none;stroke:#b0b0b0;stroke-linecap:square;stroke-width:0.8;"/>
     </g>
     <g id="line2d_4">
      <g>
       <use style="stroke:#000000;stroke-width:0.8;" x="354.404645" xlink:href="#m31071ee7b1" y="502.138828"/>
      </g>
     </g>
     <g id="text_2">
      <!-- 0.75 -->
      <defs>
       <path d="M 8.203125 72.90625 
L 55.078125 72.90625 
L 55.078125 68.703125 
L 28.609375 0 
L 18.3125 0 
L 43.21875 64.59375 
L 8.203125 64.59375 
z
" id="DejaVuSans-55"/>
       <path d="M 10.796875 72.90625 
L 49.515625 72.90625 
L 49.515625 64.59375 
L 19.828125 64.59375 
L 19.828125 46.734375 
Q 21.96875 47.46875 24.109375 47.828125 
Q 26.265625 48.1875 28.421875 48.1875 
Q 40.625 48.1875 47.75 41.5 
Q 54.890625 34.8125 54.890625 23.390625 
Q 54.890625 11.625 47.5625 5.09375 
Q 40.234375 -1.421875 26.90625 -1.421875 
Q 22.3125 -1.421875 17.546875 -0.640625 
Q 12.796875 0.140625 7.71875 1.703125 
L 7.71875 11.625 
Q 12.109375 9.234375 16.796875 8.0625 
Q 21.484375 6.890625 26.703125 6.890625 
Q 35.15625 6.890625 40.078125 11.328125 
Q 45.015625 15.765625 45.015625 23.390625 
Q 45.015625 31 40.078125 35.4375 
Q 35.15625 39.890625 26.703125 39.890625 
Q 22.75 39.890625 18.8125 39.015625 
Q 14.890625 38.140625 10.796875 36.28125 
z
" id="DejaVuSans-53"/>
      </defs>
      <g transform="translate(337.705426 520.536484)scale(0.15 -0.15)">
       <use xlink:href="#DejaVuSans-48"/>
       <use x="63.623047" xlink:href="#DejaVuSans-46"/>
       <use x="95.410156" xlink:href="#DejaVuSans-55"/>
       <use x="159.033203" xlink:href="#DejaVuSans-53"/>
      </g>
     </g>
    </g>
    <g id="xtick_3">
     <g id="line2d_5">
      <path clip-path="url(#p8e75745b0b)" d="M 565.219285 502.138828 
L 565.219285 12.898828 
" style="fill:none;stroke:#b0b0b0;stroke-linecap:square;stroke-width:0.8;"/>
     </g>
     <g id="line2d_6">
      <g>
       <use style="stroke:#000000;stroke-width:0.8;" x="565.219285" xlink:href="#m31071ee7b1" y="502.138828"/>
      </g>
     </g>
     <g id="text_3">
      <!-- 0.5 -->
      <g transform="translate(553.291941 520.536484)scale(0.15 -0.15)">
       <use xlink:href="#DejaVuSans-48"/>
       <use x="63.623047" xlink:href="#DejaVuSans-46"/>
       <use x="95.410156" xlink:href="#DejaVuSans-53"/>
      </g>
     </g>
    </g>
    <g id="xtick_4">
     <g id="line2d_7">
      <path clip-path="url(#p8e75745b0b)" d="M 776.033925 502.138828 
L 776.033925 12.898828 
" style="fill:none;stroke:#b0b0b0;stroke-linecap:square;stroke-width:0.8;"/>
     </g>
     <g id="line2d_8">
      <g>
       <use style="stroke:#000000;stroke-width:0.8;" x="776.033925" xlink:href="#m31071ee7b1" y="502.138828"/>
      </g>
     </g>
     <g id="text_4">
      <!-- 0.25 -->
      <defs>
       <path d="M 19.1875 8.296875 
L 53.609375 8.296875 
L 53.609375 0 
L 7.328125 0 
L 7.328125 8.296875 
Q 12.9375 14.109375 22.625 23.890625 
Q 32.328125 33.6875 34.8125 36.53125 
Q 39.546875 41.84375 41.421875 45.53125 
Q 43.3125 49.21875 43.3125 52.78125 
Q 43.3125 58.59375 39.234375 62.25 
Q 35.15625 65.921875 28.609375 65.921875 
Q 23.96875 65.921875 18.8125 64.3125 
Q 13.671875 62.703125 7.8125 59.421875 
L 7.8125 69.390625 
Q 13.765625 71.78125 18.9375 73 
Q 24.125 74.21875 28.421875 74.21875 
Q 39.75 74.21875 46.484375 68.546875 
Q 53.21875 62.890625 53.21875 53.421875 
Q 53.21875 48.921875 51.53125 44.890625 
Q 49.859375 40.875 45.40625 35.40625 
Q 44.1875 33.984375 37.640625 27.21875 
Q 31.109375 20.453125 19.1875 8.296875 
z
" id="DejaVuSans-50"/>
      </defs>
      <g transform="translate(759.334706 520.536484)scale(0.15 -0.15)">
       <use xlink:href="#DejaVuSans-48"/>
       <use x="63.623047" xlink:href="#DejaVuSans-46"/>
       <use x="95.410156" xlink:href="#DejaVuSans-50"/>
       <use x="159.033203" xlink:href="#DejaVuSans-53"/>
      </g>
     </g>
    </g>
    <g id="xtick_5">
     <g id="line2d_9">
      <path clip-path="url(#p8e75745b0b)" d="M 881.441245 502.138828 
L 881.441245 12.898828 
" style="fill:none;stroke:#b0b0b0;stroke-linecap:square;stroke-width:0.8;"/>
     </g>
     <g id="line2d_10">
      <g>
       <use style="stroke:#000000;stroke-width:0.8;" x="881.441245" xlink:href="#m31071ee7b1" y="502.138828"/>
      </g>
     </g>
     <g id="text_5">
      <!-- 0.125 -->
      <g transform="translate(859.970151 520.536484)scale(0.15 -0.15)">
       <use xlink:href="#DejaVuSans-48"/>
       <use x="63.623047" xlink:href="#DejaVuSans-46"/>
       <use x="95.410156" xlink:href="#DejaVuSans-49"/>
       <use x="159.033203" xlink:href="#DejaVuSans-50"/>
       <use x="222.65625" xlink:href="#DejaVuSans-53"/>
      </g>
     </g>
    </g>
    <g id="text_6">
     <!-- Relative amount of training data -->
     <defs>
      <path d="M 44.390625 34.1875 
Q 47.5625 33.109375 50.5625 29.59375 
Q 53.5625 26.078125 56.59375 19.921875 
L 66.609375 0 
L 56 0 
L 46.6875 18.703125 
Q 43.0625 26.03125 39.671875 28.421875 
Q 36.28125 30.8125 30.421875 30.8125 
L 19.671875 30.8125 
L 19.671875 0 
L 9.8125 0 
L 9.8125 72.90625 
L 32.078125 72.90625 
Q 44.578125 72.90625 50.734375 67.671875 
Q 56.890625 62.453125 56.890625 51.90625 
Q 56.890625 45.015625 53.6875 40.46875 
Q 50.484375 35.9375 44.390625 34.1875 
z
M 19.671875 64.796875 
L 19.671875 38.921875 
L 32.078125 38.921875 
Q 39.203125 38.921875 42.84375 42.21875 
Q 46.484375 45.515625 46.484375 51.90625 
Q 46.484375 58.296875 42.84375 61.546875 
Q 39.203125 64.796875 32.078125 64.796875 
z
" id="DejaVuSans-82"/>
      <path d="M 56.203125 29.59375 
L 56.203125 25.203125 
L 14.890625 25.203125 
Q 15.484375 15.921875 20.484375 11.0625 
Q 25.484375 6.203125 34.421875 6.203125 
Q 39.59375 6.203125 44.453125 7.46875 
Q 49.3125 8.734375 54.109375 11.28125 
L 54.109375 2.78125 
Q 49.265625 0.734375 44.1875 -0.34375 
Q 39.109375 -1.421875 33.890625 -1.421875 
Q 20.796875 -1.421875 13.15625 6.1875 
Q 5.515625 13.8125 5.515625 26.8125 
Q 5.515625 40.234375 12.765625 48.109375 
Q 20.015625 56 32.328125 56 
Q 43.359375 56 49.78125 48.890625 
Q 56.203125 41.796875 56.203125 29.59375 
z
M 47.21875 32.234375 
Q 47.125 39.59375 43.09375 43.984375 
Q 39.0625 48.390625 32.421875 48.390625 
Q 24.90625 48.390625 20.390625 44.140625 
Q 15.875 39.890625 15.1875 32.171875 
z
" id="DejaVuSans-101"/>
      <path d="M 9.421875 75.984375 
L 18.40625 75.984375 
L 18.40625 0 
L 9.421875 0 
z
" id="DejaVuSans-108"/>
      <path d="M 34.28125 27.484375 
Q 23.390625 27.484375 19.1875 25 
Q 14.984375 22.515625 14.984375 16.5 
Q 14.984375 11.71875 18.140625 8.90625 
Q 21.296875 6.109375 26.703125 6.109375 
Q 34.1875 6.109375 38.703125 11.40625 
Q 43.21875 16.703125 43.21875 25.484375 
L 43.21875 27.484375 
z
M 52.203125 31.203125 
L 52.203125 0 
L 43.21875 0 
L 43.21875 8.296875 
Q 40.140625 3.328125 35.546875 0.953125 
Q 30.953125 -1.421875 24.3125 -1.421875 
Q 15.921875 -1.421875 10.953125 3.296875 
Q 6 8.015625 6 15.921875 
Q 6 25.140625 12.171875 29.828125 
Q 18.359375 34.515625 30.609375 34.515625 
L 43.21875 34.515625 
L 43.21875 35.40625 
Q 43.21875 41.609375 39.140625 45 
Q 35.0625 48.390625 27.6875 48.390625 
Q 23 48.390625 18.546875 47.265625 
Q 14.109375 46.140625 10.015625 43.890625 
L 10.015625 52.203125 
Q 14.9375 54.109375 19.578125 55.046875 
Q 24.21875 56 28.609375 56 
Q 40.484375 56 46.34375 49.84375 
Q 52.203125 43.703125 52.203125 31.203125 
z
" id="DejaVuSans-97"/>
      <path d="M 18.3125 70.21875 
L 18.3125 54.6875 
L 36.8125 54.6875 
L 36.8125 47.703125 
L 18.3125 47.703125 
L 18.3125 18.015625 
Q 18.3125 11.328125 20.140625 9.421875 
Q 21.96875 7.515625 27.59375 7.515625 
L 36.8125 7.515625 
L 36.8125 0 
L 27.59375 0 
Q 17.1875 0 13.234375 3.875 
Q 9.28125 7.765625 9.28125 18.015625 
L 9.28125 47.703125 
L 2.6875 47.703125 
L 2.6875 54.6875 
L 9.28125 54.6875 
L 9.28125 70.21875 
z
" id="DejaVuSans-116"/>
      <path d="M 9.421875 54.6875 
L 18.40625 54.6875 
L 18.40625 0 
L 9.421875 0 
z
M 9.421875 75.984375 
L 18.40625 75.984375 
L 18.40625 64.59375 
L 9.421875 64.59375 
z
" id="DejaVuSans-105"/>
      <path d="M 2.984375 54.6875 
L 12.5 54.6875 
L 29.59375 8.796875 
L 46.6875 54.6875 
L 56.203125 54.6875 
L 35.6875 0 
L 23.484375 0 
z
" id="DejaVuSans-118"/>
      <path id="DejaVuSans-32"/>
      <path d="M 52 44.1875 
Q 55.375 50.25 60.0625 53.125 
Q 64.75 56 71.09375 56 
Q 79.640625 56 84.28125 50.015625 
Q 88.921875 44.046875 88.921875 33.015625 
L 88.921875 0 
L 79.890625 0 
L 79.890625 32.71875 
Q 79.890625 40.578125 77.09375 44.375 
Q 74.3125 48.1875 68.609375 48.1875 
Q 61.625 48.1875 57.5625 43.546875 
Q 53.515625 38.921875 53.515625 30.90625 
L 53.515625 0 
L 44.484375 0 
L 44.484375 32.71875 
Q 44.484375 40.625 41.703125 44.40625 
Q 38.921875 48.1875 33.109375 48.1875 
Q 26.21875 48.1875 22.15625 43.53125 
Q 18.109375 38.875 18.109375 30.90625 
L 18.109375 0 
L 9.078125 0 
L 9.078125 54.6875 
L 18.109375 54.6875 
L 18.109375 46.1875 
Q 21.1875 51.21875 25.484375 53.609375 
Q 29.78125 56 35.6875 56 
Q 41.65625 56 45.828125 52.96875 
Q 50 49.953125 52 44.1875 
z
" id="DejaVuSans-109"/>
      <path d="M 30.609375 48.390625 
Q 23.390625 48.390625 19.1875 42.75 
Q 14.984375 37.109375 14.984375 27.296875 
Q 14.984375 17.484375 19.15625 11.84375 
Q 23.34375 6.203125 30.609375 6.203125 
Q 37.796875 6.203125 41.984375 11.859375 
Q 46.1875 17.53125 46.1875 27.296875 
Q 46.1875 37.015625 41.984375 42.703125 
Q 37.796875 48.390625 30.609375 48.390625 
z
M 30.609375 56 
Q 42.328125 56 49.015625 48.375 
Q 55.71875 40.765625 55.71875 27.296875 
Q 55.71875 13.875 49.015625 6.21875 
Q 42.328125 -1.421875 30.609375 -1.421875 
Q 18.84375 -1.421875 12.171875 6.21875 
Q 5.515625 13.875 5.515625 27.296875 
Q 5.515625 40.765625 12.171875 48.375 
Q 18.84375 56 30.609375 56 
z
" id="DejaVuSans-111"/>
      <path d="M 8.5 21.578125 
L 8.5 54.6875 
L 17.484375 54.6875 
L 17.484375 21.921875 
Q 17.484375 14.15625 20.5 10.265625 
Q 23.53125 6.390625 29.59375 6.390625 
Q 36.859375 6.390625 41.078125 11.03125 
Q 45.3125 15.671875 45.3125 23.6875 
L 45.3125 54.6875 
L 54.296875 54.6875 
L 54.296875 0 
L 45.3125 0 
L 45.3125 8.40625 
Q 42.046875 3.421875 37.71875 1 
Q 33.40625 -1.421875 27.6875 -1.421875 
Q 18.265625 -1.421875 13.375 4.4375 
Q 8.5 10.296875 8.5 21.578125 
z
M 31.109375 56 
z
" id="DejaVuSans-117"/>
      <path d="M 54.890625 33.015625 
L 54.890625 0 
L 45.90625 0 
L 45.90625 32.71875 
Q 45.90625 40.484375 42.875 44.328125 
Q 39.84375 48.1875 33.796875 48.1875 
Q 26.515625 48.1875 22.3125 43.546875 
Q 18.109375 38.921875 18.109375 30.90625 
L 18.109375 0 
L 9.078125 0 
L 9.078125 54.6875 
L 18.109375 54.6875 
L 18.109375 46.1875 
Q 21.34375 51.125 25.703125 53.5625 
Q 30.078125 56 35.796875 56 
Q 45.21875 56 50.046875 50.171875 
Q 54.890625 44.34375 54.890625 33.015625 
z
" id="DejaVuSans-110"/>
      <path d="M 37.109375 75.984375 
L 37.109375 68.5 
L 28.515625 68.5 
Q 23.6875 68.5 21.796875 66.546875 
Q 19.921875 64.59375 19.921875 59.515625 
L 19.921875 54.6875 
L 34.71875 54.6875 
L 34.71875 47.703125 
L 19.921875 47.703125 
L 19.921875 0 
L 10.890625 0 
L 10.890625 47.703125 
L 2.296875 47.703125 
L 2.296875 54.6875 
L 10.890625 54.6875 
L 10.890625 58.5 
Q 10.890625 67.625 15.140625 71.796875 
Q 19.390625 75.984375 28.609375 75.984375 
z
" id="DejaVuSans-102"/>
      <path d="M 41.109375 46.296875 
Q 39.59375 47.171875 37.8125 47.578125 
Q 36.03125 48 33.890625 48 
Q 26.265625 48 22.1875 43.046875 
Q 18.109375 38.09375 18.109375 28.8125 
L 18.109375 0 
L 9.078125 0 
L 9.078125 54.6875 
L 18.109375 54.6875 
L 18.109375 46.1875 
Q 20.953125 51.171875 25.484375 53.578125 
Q 30.03125 56 36.53125 56 
Q 37.453125 56 38.578125 55.875 
Q 39.703125 55.765625 41.0625 55.515625 
z
" id="DejaVuSans-114"/>
      <path d="M 45.40625 27.984375 
Q 45.40625 37.75 41.375 43.109375 
Q 37.359375 48.484375 30.078125 48.484375 
Q 22.859375 48.484375 18.828125 43.109375 
Q 14.796875 37.75 14.796875 27.984375 
Q 14.796875 18.265625 18.828125 12.890625 
Q 22.859375 7.515625 30.078125 7.515625 
Q 37.359375 7.515625 41.375 12.890625 
Q 45.40625 18.265625 45.40625 27.984375 
z
M 54.390625 6.78125 
Q 54.390625 -7.171875 48.1875 -13.984375 
Q 42 -20.796875 29.203125 -20.796875 
Q 24.46875 -20.796875 20.265625 -20.09375 
Q 16.0625 -19.390625 12.109375 -17.921875 
L 12.109375 -9.1875 
Q 16.0625 -11.328125 19.921875 -12.34375 
Q 23.78125 -13.375 27.78125 -13.375 
Q 36.625 -13.375 41.015625 -8.765625 
Q 45.40625 -4.15625 45.40625 5.171875 
L 45.40625 9.625 
Q 42.625 4.78125 38.28125 2.390625 
Q 33.9375 0 27.875 0 
Q 17.828125 0 11.671875 7.65625 
Q 5.515625 15.328125 5.515625 27.984375 
Q 5.515625 40.671875 11.671875 48.328125 
Q 17.828125 56 27.875 56 
Q 33.9375 56 38.28125 53.609375 
Q 42.625 51.21875 45.40625 46.390625 
L 45.40625 54.6875 
L 54.390625 54.6875 
z
" id="DejaVuSans-103"/>
      <path d="M 45.40625 46.390625 
L 45.40625 75.984375 
L 54.390625 75.984375 
L 54.390625 0 
L 45.40625 0 
L 45.40625 8.203125 
Q 42.578125 3.328125 38.25 0.953125 
Q 33.9375 -1.421875 27.875 -1.421875 
Q 17.96875 -1.421875 11.734375 6.484375 
Q 5.515625 14.40625 5.515625 27.296875 
Q 5.515625 40.1875 11.734375 48.09375 
Q 17.96875 56 27.875 56 
Q 33.9375 56 38.25 53.625 
Q 42.578125 51.265625 45.40625 46.390625 
z
M 14.796875 27.296875 
Q 14.796875 17.390625 18.875 11.75 
Q 22.953125 6.109375 30.078125 6.109375 
Q 37.203125 6.109375 41.296875 11.75 
Q 45.40625 17.390625 45.40625 27.296875 
Q 45.40625 37.203125 41.296875 42.84375 
Q 37.203125 48.484375 30.078125 48.484375 
Q 22.953125 48.484375 18.875 42.84375 
Q 14.796875 37.203125 14.796875 27.296875 
z
" id="DejaVuSans-100"/>
     </defs>
     <g transform="translate(390.287891 539.053672)scale(0.15 -0.15)">
      <use xlink:href="#DejaVuSans-82"/>
      <use x="69.419922" xlink:href="#DejaVuSans-101"/>
      <use x="130.943359" xlink:href="#DejaVuSans-108"/>
      <use x="158.726562" xlink:href="#DejaVuSans-97"/>
      <use x="220.005859" xlink:href="#DejaVuSans-116"/>
      <use x="259.214844" xlink:href="#DejaVuSans-105"/>
      <use x="286.998047" xlink:href="#DejaVuSans-118"/>
      <use x="346.177734" xlink:href="#DejaVuSans-101"/>
      <use x="407.701172" xlink:href="#DejaVuSans-32"/>
      <use x="439.488281" xlink:href="#DejaVuSans-97"/>
      <use x="500.767578" xlink:href="#DejaVuSans-109"/>
      <use x="598.179688" xlink:href="#DejaVuSans-111"/>
      <use x="659.361328" xlink:href="#DejaVuSans-117"/>
      <use x="722.740234" xlink:href="#DejaVuSans-110"/>
      <use x="786.119141" xlink:href="#DejaVuSans-116"/>
      <use x="825.328125" xlink:href="#DejaVuSans-32"/>
      <use x="857.115234" xlink:href="#DejaVuSans-111"/>
      <use x="918.296875" xlink:href="#DejaVuSans-102"/>
      <use x="953.501953" xlink:href="#DejaVuSans-32"/>
      <use x="985.289062" xlink:href="#DejaVuSans-116"/>
      <use x="1024.498047" xlink:href="#DejaVuSans-114"/>
      <use x="1065.611328" xlink:href="#DejaVuSans-97"/>
      <use x="1126.890625" xlink:href="#DejaVuSans-105"/>
      <use x="1154.673828" xlink:href="#DejaVuSans-110"/>
      <use x="1218.052734" xlink:href="#DejaVuSans-105"/>
      <use x="1245.835938" xlink:href="#DejaVuSans-110"/>
      <use x="1309.214844" xlink:href="#DejaVuSans-103"/>
      <use x="1372.691406" xlink:href="#DejaVuSans-32"/>
      <use x="1404.478516" xlink:href="#DejaVuSans-100"/>
      <use x="1467.955078" xlink:href="#DejaVuSans-97"/>
      <use x="1529.234375" xlink:href="#DejaVuSans-116"/>
      <use x="1568.443359" xlink:href="#DejaVuSans-97"/>
     </g>
    </g>
   </g>
   <g id="matplotlib.axis_2">
    <g id="ytick_1">
     <g id="line2d_11">
      <path clip-path="url(#p8e75745b0b)" d="M 66.115625 502.138828 
L 958.915625 502.138828 
" style="fill:none;stroke:#b0b0b0;stroke-linecap:square;stroke-width:0.8;"/>
     </g>
     <g id="line2d_12">
      <defs>
       <path d="M 0 0 
L -3.5 0 
" id="m01ebe60762" style="stroke:#000000;stroke-width:0.8;"/>
      </defs>
      <g>
       <use style="stroke:#000000;stroke-width:0.8;" x="66.115625" xlink:href="#m01ebe60762" y="502.138828"/>
      </g>
     </g>
     <g id="text_7">
      <!-- 0.65 -->
      <defs>
       <path d="M 33.015625 40.375 
Q 26.375 40.375 22.484375 35.828125 
Q 18.609375 31.296875 18.609375 23.390625 
Q 18.609375 15.53125 22.484375 10.953125 
Q 26.375 6.390625 33.015625 6.390625 
Q 39.65625 6.390625 43.53125 10.953125 
Q 47.40625 15.53125 47.40625 23.390625 
Q 47.40625 31.296875 43.53125 35.828125 
Q 39.65625 40.375 33.015625 40.375 
z
M 52.59375 71.296875 
L 52.59375 62.3125 
Q 48.875 64.0625 45.09375 64.984375 
Q 41.3125 65.921875 37.59375 65.921875 
Q 27.828125 65.921875 22.671875 59.328125 
Q 17.53125 52.734375 16.796875 39.40625 
Q 19.671875 43.65625 24.015625 45.921875 
Q 28.375 48.1875 33.59375 48.1875 
Q 44.578125 48.1875 50.953125 41.515625 
Q 57.328125 34.859375 57.328125 23.390625 
Q 57.328125 12.15625 50.6875 5.359375 
Q 44.046875 -1.421875 33.015625 -1.421875 
Q 20.359375 -1.421875 13.671875 8.265625 
Q 6.984375 17.96875 6.984375 36.375 
Q 6.984375 53.65625 15.1875 63.9375 
Q 23.390625 74.21875 37.203125 74.21875 
Q 40.921875 74.21875 44.703125 73.484375 
Q 48.484375 72.75 52.59375 71.296875 
z
" id="DejaVuSans-54"/>
      </defs>
      <g transform="translate(25.717188 507.837656)scale(0.15 -0.15)">
       <use xlink:href="#DejaVuSans-48"/>
       <use x="63.623047" xlink:href="#DejaVuSans-46"/>
       <use x="95.410156" xlink:href="#DejaVuSans-54"/>
       <use x="159.033203" xlink:href="#DejaVuSans-53"/>
      </g>
     </g>
    </g>
    <g id="ytick_2">
     <g id="line2d_13">
      <path clip-path="url(#p8e75745b0b)" d="M 66.115625 432.2474 
L 958.915625 432.2474 
" style="fill:none;stroke:#b0b0b0;stroke-linecap:square;stroke-width:0.8;"/>
     </g>
     <g id="line2d_14">
      <g>
       <use style="stroke:#000000;stroke-width:0.8;" x="66.115625" xlink:href="#m01ebe60762" y="432.2474"/>
      </g>
     </g>
     <g id="text_8">
      <!-- 0.70 -->
      <g transform="translate(25.717188 437.946228)scale(0.15 -0.15)">
       <use xlink:href="#DejaVuSans-48"/>
       <use x="63.623047" xlink:href="#DejaVuSans-46"/>
       <use x="95.410156" xlink:href="#DejaVuSans-55"/>
       <use x="159.033203" xlink:href="#DejaVuSans-48"/>
      </g>
     </g>
    </g>
    <g id="ytick_3">
     <g id="line2d_15">
      <path clip-path="url(#p8e75745b0b)" d="M 66.115625 362.355971 
L 958.915625 362.355971 
" style="fill:none;stroke:#b0b0b0;stroke-linecap:square;stroke-width:0.8;"/>
     </g>
     <g id="line2d_16">
      <g>
       <use style="stroke:#000000;stroke-width:0.8;" x="66.115625" xlink:href="#m01ebe60762" y="362.355971"/>
      </g>
     </g>
     <g id="text_9">
      <!-- 0.75 -->
      <g transform="translate(25.717188 368.054799)scale(0.15 -0.15)">
       <use xlink:href="#DejaVuSans-48"/>
       <use x="63.623047" xlink:href="#DejaVuSans-46"/>
       <use x="95.410156" xlink:href="#DejaVuSans-55"/>
       <use x="159.033203" xlink:href="#DejaVuSans-53"/>
      </g>
     </g>
    </g>
    <g id="ytick_4">
     <g id="line2d_17">
      <path clip-path="url(#p8e75745b0b)" d="M 66.115625 292.464542 
L 958.915625 292.464542 
" style="fill:none;stroke:#b0b0b0;stroke-linecap:square;stroke-width:0.8;"/>
     </g>
     <g id="line2d_18">
      <g>
       <use style="stroke:#000000;stroke-width:0.8;" x="66.115625" xlink:href="#m01ebe60762" y="292.464542"/>
      </g>
     </g>
     <g id="text_10">
      <!-- 0.80 -->
      <defs>
       <path d="M 31.78125 34.625 
Q 24.75 34.625 20.71875 30.859375 
Q 16.703125 27.09375 16.703125 20.515625 
Q 16.703125 13.921875 20.71875 10.15625 
Q 24.75 6.390625 31.78125 6.390625 
Q 38.8125 6.390625 42.859375 10.171875 
Q 46.921875 13.96875 46.921875 20.515625 
Q 46.921875 27.09375 42.890625 30.859375 
Q 38.875 34.625 31.78125 34.625 
z
M 21.921875 38.8125 
Q 15.578125 40.375 12.03125 44.71875 
Q 8.5 49.078125 8.5 55.328125 
Q 8.5 64.0625 14.71875 69.140625 
Q 20.953125 74.21875 31.78125 74.21875 
Q 42.671875 74.21875 48.875 69.140625 
Q 55.078125 64.0625 55.078125 55.328125 
Q 55.078125 49.078125 51.53125 44.71875 
Q 48 40.375 41.703125 38.8125 
Q 48.828125 37.15625 52.796875 32.3125 
Q 56.78125 27.484375 56.78125 20.515625 
Q 56.78125 9.90625 50.3125 4.234375 
Q 43.84375 -1.421875 31.78125 -1.421875 
Q 19.734375 -1.421875 13.25 4.234375 
Q 6.78125 9.90625 6.78125 20.515625 
Q 6.78125 27.484375 10.78125 32.3125 
Q 14.796875 37.15625 21.921875 38.8125 
z
M 18.3125 54.390625 
Q 18.3125 48.734375 21.84375 45.5625 
Q 25.390625 42.390625 31.78125 42.390625 
Q 38.140625 42.390625 41.71875 45.5625 
Q 45.3125 48.734375 45.3125 54.390625 
Q 45.3125 60.0625 41.71875 63.234375 
Q 38.140625 66.40625 31.78125 66.40625 
Q 25.390625 66.40625 21.84375 63.234375 
Q 18.3125 60.0625 18.3125 54.390625 
z
" id="DejaVuSans-56"/>
      </defs>
      <g transform="translate(25.717188 298.163371)scale(0.15 -0.15)">
       <use xlink:href="#DejaVuSans-48"/>
       <use x="63.623047" xlink:href="#DejaVuSans-46"/>
       <use x="95.410156" xlink:href="#DejaVuSans-56"/>
       <use x="159.033203" xlink:href="#DejaVuSans-48"/>
      </g>
     </g>
    </g>
    <g id="ytick_5">
     <g id="line2d_19">
      <path clip-path="url(#p8e75745b0b)" d="M 66.115625 222.573114 
L 958.915625 222.573114 
" style="fill:none;stroke:#b0b0b0;stroke-linecap:square;stroke-width:0.8;"/>
     </g>
     <g id="line2d_20">
      <g>
       <use style="stroke:#000000;stroke-width:0.8;" x="66.115625" xlink:href="#m01ebe60762" y="222.573114"/>
      </g>
     </g>
     <g id="text_11">
      <!-- 0.85 -->
      <g transform="translate(25.717188 228.271942)scale(0.15 -0.15)">
       <use xlink:href="#DejaVuSans-48"/>
       <use x="63.623047" xlink:href="#DejaVuSans-46"/>
       <use x="95.410156" xlink:href="#DejaVuSans-56"/>
       <use x="159.033203" xlink:href="#DejaVuSans-53"/>
      </g>
     </g>
    </g>
    <g id="ytick_6">
     <g id="line2d_21">
      <path clip-path="url(#p8e75745b0b)" d="M 66.115625 152.681685 
L 958.915625 152.681685 
" style="fill:none;stroke:#b0b0b0;stroke-linecap:square;stroke-width:0.8;"/>
     </g>
     <g id="line2d_22">
      <g>
       <use style="stroke:#000000;stroke-width:0.8;" x="66.115625" xlink:href="#m01ebe60762" y="152.681685"/>
      </g>
     </g>
     <g id="text_12">
      <!-- 0.90 -->
      <defs>
       <path d="M 10.984375 1.515625 
L 10.984375 10.5 
Q 14.703125 8.734375 18.5 7.8125 
Q 22.3125 6.890625 25.984375 6.890625 
Q 35.75 6.890625 40.890625 13.453125 
Q 46.046875 20.015625 46.78125 33.40625 
Q 43.953125 29.203125 39.59375 26.953125 
Q 35.25 24.703125 29.984375 24.703125 
Q 19.046875 24.703125 12.671875 31.3125 
Q 6.296875 37.9375 6.296875 49.421875 
Q 6.296875 60.640625 12.9375 67.421875 
Q 19.578125 74.21875 30.609375 74.21875 
Q 43.265625 74.21875 49.921875 64.515625 
Q 56.59375 54.828125 56.59375 36.375 
Q 56.59375 19.140625 48.40625 8.859375 
Q 40.234375 -1.421875 26.421875 -1.421875 
Q 22.703125 -1.421875 18.890625 -0.6875 
Q 15.09375 0.046875 10.984375 1.515625 
z
M 30.609375 32.421875 
Q 37.25 32.421875 41.125 36.953125 
Q 45.015625 41.5 45.015625 49.421875 
Q 45.015625 57.28125 41.125 61.84375 
Q 37.25 66.40625 30.609375 66.40625 
Q 23.96875 66.40625 20.09375 61.84375 
Q 16.21875 57.28125 16.21875 49.421875 
Q 16.21875 41.5 20.09375 36.953125 
Q 23.96875 32.421875 30.609375 32.421875 
z
" id="DejaVuSans-57"/>
      </defs>
      <g transform="translate(25.717188 158.380513)scale(0.15 -0.15)">
       <use xlink:href="#DejaVuSans-48"/>
       <use x="63.623047" xlink:href="#DejaVuSans-46"/>
       <use x="95.410156" xlink:href="#DejaVuSans-57"/>
       <use x="159.033203" xlink:href="#DejaVuSans-48"/>
      </g>
     </g>
    </g>
    <g id="ytick_7">
     <g id="line2d_23">
      <path clip-path="url(#p8e75745b0b)" d="M 66.115625 82.790257 
L 958.915625 82.790257 
" style="fill:none;stroke:#b0b0b0;stroke-linecap:square;stroke-width:0.8;"/>
     </g>
     <g id="line2d_24">
      <g>
       <use style="stroke:#000000;stroke-width:0.8;" x="66.115625" xlink:href="#m01ebe60762" y="82.790257"/>
      </g>
     </g>
     <g id="text_13">
      <!-- 0.95 -->
      <g transform="translate(25.717188 88.489085)scale(0.15 -0.15)">
       <use xlink:href="#DejaVuSans-48"/>
       <use x="63.623047" xlink:href="#DejaVuSans-46"/>
       <use x="95.410156" xlink:href="#DejaVuSans-57"/>
       <use x="159.033203" xlink:href="#DejaVuSans-53"/>
      </g>
     </g>
    </g>
    <g id="ytick_8">
     <g id="line2d_25">
      <path clip-path="url(#p8e75745b0b)" d="M 66.115625 12.898828 
L 958.915625 12.898828 
" style="fill:none;stroke:#b0b0b0;stroke-linecap:square;stroke-width:0.8;"/>
     </g>
     <g id="line2d_26">
      <g>
       <use style="stroke:#000000;stroke-width:0.8;" x="66.115625" xlink:href="#m01ebe60762" y="12.898828"/>
      </g>
     </g>
     <g id="text_14">
      <!-- 1.00 -->
      <g transform="translate(25.717188 18.597656)scale(0.15 -0.15)">
       <use xlink:href="#DejaVuSans-49"/>
       <use x="63.623047" xlink:href="#DejaVuSans-46"/>
       <use x="95.410156" xlink:href="#DejaVuSans-48"/>
       <use x="159.033203" xlink:href="#DejaVuSans-48"/>
      </g>
     </g>
    </g>
    <g id="text_15">
     <!-- Accuracy of the trained model -->
     <defs>
      <path d="M 34.1875 63.1875 
L 20.796875 26.90625 
L 47.609375 26.90625 
z
M 28.609375 72.90625 
L 39.796875 72.90625 
L 67.578125 0 
L 57.328125 0 
L 50.6875 18.703125 
L 17.828125 18.703125 
L 11.1875 0 
L 0.78125 0 
z
" id="DejaVuSans-65"/>
      <path d="M 48.78125 52.59375 
L 48.78125 44.1875 
Q 44.96875 46.296875 41.140625 47.34375 
Q 37.3125 48.390625 33.40625 48.390625 
Q 24.65625 48.390625 19.8125 42.84375 
Q 14.984375 37.3125 14.984375 27.296875 
Q 14.984375 17.28125 19.8125 11.734375 
Q 24.65625 6.203125 33.40625 6.203125 
Q 37.3125 6.203125 41.140625 7.25 
Q 44.96875 8.296875 48.78125 10.40625 
L 48.78125 2.09375 
Q 45.015625 0.34375 40.984375 -0.53125 
Q 36.96875 -1.421875 32.421875 -1.421875 
Q 20.0625 -1.421875 12.78125 6.34375 
Q 5.515625 14.109375 5.515625 27.296875 
Q 5.515625 40.671875 12.859375 48.328125 
Q 20.21875 56 33.015625 56 
Q 37.15625 56 41.109375 55.140625 
Q 45.0625 54.296875 48.78125 52.59375 
z
" id="DejaVuSans-99"/>
      <path d="M 32.171875 -5.078125 
Q 28.375 -14.84375 24.75 -17.8125 
Q 21.140625 -20.796875 15.09375 -20.796875 
L 7.90625 -20.796875 
L 7.90625 -13.28125 
L 13.1875 -13.28125 
Q 16.890625 -13.28125 18.9375 -11.515625 
Q 21 -9.765625 23.484375 -3.21875 
L 25.09375 0.875 
L 2.984375 54.6875 
L 12.5 54.6875 
L 29.59375 11.921875 
L 46.6875 54.6875 
L 56.203125 54.6875 
z
" id="DejaVuSans-121"/>
      <path d="M 54.890625 33.015625 
L 54.890625 0 
L 45.90625 0 
L 45.90625 32.71875 
Q 45.90625 40.484375 42.875 44.328125 
Q 39.84375 48.1875 33.796875 48.1875 
Q 26.515625 48.1875 22.3125 43.546875 
Q 18.109375 38.921875 18.109375 30.90625 
L 18.109375 0 
L 9.078125 0 
L 9.078125 75.984375 
L 18.109375 75.984375 
L 18.109375 46.1875 
Q 21.34375 51.125 25.703125 53.5625 
Q 30.078125 56 35.796875 56 
Q 45.21875 56 50.046875 50.171875 
Q 54.890625 44.34375 54.890625 33.015625 
z
" id="DejaVuSans-104"/>
     </defs>
     <g transform="translate(18.597656 371.149687)rotate(-90)scale(0.15 -0.15)">
      <use xlink:href="#DejaVuSans-65"/>
      <use x="68.392578" xlink:href="#DejaVuSans-99"/>
      <use x="123.373047" xlink:href="#DejaVuSans-99"/>
      <use x="178.353516" xlink:href="#DejaVuSans-117"/>
      <use x="241.732422" xlink:href="#DejaVuSans-114"/>
      <use x="282.845703" xlink:href="#DejaVuSans-97"/>
      <use x="344.125" xlink:href="#DejaVuSans-99"/>
      <use x="399.105469" xlink:href="#DejaVuSans-121"/>
      <use x="458.285156" xlink:href="#DejaVuSans-32"/>
      <use x="490.072266" xlink:href="#DejaVuSans-111"/>
      <use x="551.253906" xlink:href="#DejaVuSans-102"/>
      <use x="586.458984" xlink:href="#DejaVuSans-32"/>
      <use x="618.246094" xlink:href="#DejaVuSans-116"/>
      <use x="657.455078" xlink:href="#DejaVuSans-104"/>
      <use x="720.833984" xlink:href="#DejaVuSans-101"/>
      <use x="782.357422" xlink:href="#DejaVuSans-32"/>
      <use x="814.144531" xlink:href="#DejaVuSans-116"/>
      <use x="853.353516" xlink:href="#DejaVuSans-114"/>
      <use x="894.466797" xlink:href="#DejaVuSans-97"/>
      <use x="955.746094" xlink:href="#DejaVuSans-105"/>
      <use x="983.529297" xlink:href="#DejaVuSans-110"/>
      <use x="1046.908203" xlink:href="#DejaVuSans-101"/>
      <use x="1108.431641" xlink:href="#DejaVuSans-100"/>
      <use x="1171.908203" xlink:href="#DejaVuSans-32"/>
      <use x="1203.695312" xlink:href="#DejaVuSans-109"/>
      <use x="1301.107422" xlink:href="#DejaVuSans-111"/>
      <use x="1362.289062" xlink:href="#DejaVuSans-100"/>
      <use x="1425.765625" xlink:href="#DejaVuSans-101"/>
      <use x="1487.289062" xlink:href="#DejaVuSans-108"/>
     </g>
    </g>
   </g>
   <g id="LineCollection_1">
    <path clip-path="url(#p8e75745b0b)" d="M 125.143724 181.725163 
L 162.036286 181.725163 
" style="fill:none;stroke:#1f77b4;stroke-width:1.5;"/>
    <path clip-path="url(#p8e75745b0b)" d="M 335.958364 185.185193 
L 372.850926 185.185193 
" style="fill:none;stroke:#1f77b4;stroke-width:1.5;"/>
    <path clip-path="url(#p8e75745b0b)" d="M 546.773004 204.980148 
L 583.665566 204.980148 
" style="fill:none;stroke:#1f77b4;stroke-width:1.5;"/>
    <path clip-path="url(#p8e75745b0b)" d="M 757.587644 280.583689 
L 794.480206 280.583689 
" style="fill:none;stroke:#1f77b4;stroke-width:1.5;"/>
    <path clip-path="url(#p8e75745b0b)" d="M 862.994964 433.177408 
L 899.887526 433.177408 
" style="fill:none;stroke:#1f77b4;stroke-width:1.5;"/>
   </g>
   <g id="LineCollection_2">
    <path clip-path="url(#p8e75745b0b)" d="M 125.143724 177.509684 
L 162.036286 177.509684 
" style="fill:none;stroke:#1f77b4;stroke-width:1.5;"/>
    <path clip-path="url(#p8e75745b0b)" d="M 335.958364 175.591608 
L 372.850926 175.591608 
" style="fill:none;stroke:#1f77b4;stroke-width:1.5;"/>
    <path clip-path="url(#p8e75745b0b)" d="M 546.773004 191.872023 
L 583.665566 191.872023 
" style="fill:none;stroke:#1f77b4;stroke-width:1.5;"/>
    <path clip-path="url(#p8e75745b0b)" d="M 757.587644 247.350039 
L 794.480206 247.350039 
" style="fill:none;stroke:#1f77b4;stroke-width:1.5;"/>
    <path clip-path="url(#p8e75745b0b)" d="M 862.994964 390.055953 
L 899.887526 390.055953 
" style="fill:none;stroke:#1f77b4;stroke-width:1.5;"/>
   </g>
   <g id="LineCollection_3">
    <path clip-path="url(#p8e75745b0b)" d="M 125.143724 192.368346 
L 162.036286 192.368346 
" style="fill:none;stroke:#1f77b4;stroke-width:1.5;"/>
    <path clip-path="url(#p8e75745b0b)" d="M 335.958364 199.482762 
L 372.850926 199.482762 
" style="fill:none;stroke:#1f77b4;stroke-width:1.5;"/>
    <path clip-path="url(#p8e75745b0b)" d="M 546.773004 246.786042 
L 583.665566 246.786042 
" style="fill:none;stroke:#1f77b4;stroke-width:1.5;"/>
    <path clip-path="url(#p8e75745b0b)" d="M 757.587644 303.811823 
L 794.480206 303.811823 
" style="fill:none;stroke:#1f77b4;stroke-width:1.5;"/>
    <path clip-path="url(#p8e75745b0b)" d="M 862.994964 490.794545 
L 899.887526 490.794545 
" style="fill:none;stroke:#1f77b4;stroke-width:1.5;"/>
   </g>
   <g id="LineCollection_4">
    <path clip-path="url(#p8e75745b0b)" d="M 143.590005 192.368346 
L 143.590005 177.509684 
" style="fill:none;stroke:#1f77b4;stroke-width:1.5;"/>
    <path clip-path="url(#p8e75745b0b)" d="M 354.404645 199.482762 
L 354.404645 175.591608 
" style="fill:none;stroke:#1f77b4;stroke-width:1.5;"/>
    <path clip-path="url(#p8e75745b0b)" d="M 565.219285 246.786042 
L 565.219285 191.872023 
" style="fill:none;stroke:#1f77b4;stroke-width:1.5;"/>
    <path clip-path="url(#p8e75745b0b)" d="M 776.033925 303.811823 
L 776.033925 247.350039 
" style="fill:none;stroke:#1f77b4;stroke-width:1.5;"/>
    <path clip-path="url(#p8e75745b0b)" d="M 881.441245 490.794545 
L 881.441245 390.055953 
" style="fill:none;stroke:#1f77b4;stroke-width:1.5;"/>
   </g>
   <g id="LineCollection_5">
    <path clip-path="url(#p8e75745b0b)" d="M 335.958364 188.352941 
L 372.850926 188.352941 
" style="fill:none;stroke:#d62728;stroke-width:1.5;"/>
    <path clip-path="url(#p8e75745b0b)" d="M 546.773004 195.827996 
L 583.665566 195.827996 
" style="fill:none;stroke:#d62728;stroke-width:1.5;"/>
    <path clip-path="url(#p8e75745b0b)" d="M 757.587644 226.113282 
L 794.480206 226.113282 
" style="fill:none;stroke:#d62728;stroke-width:1.5;"/>
    <path clip-path="url(#p8e75745b0b)" d="M 862.994964 271.194236 
L 899.887526 271.194236 
" style="fill:none;stroke:#d62728;stroke-width:1.5;"/>
   </g>
   <g id="LineCollection_6">
    <path clip-path="url(#p8e75745b0b)" d="M 335.958364 177.16393 
L 372.850926 177.16393 
" style="fill:none;stroke:#d62728;stroke-width:1.5;"/>
    <path clip-path="url(#p8e75745b0b)" d="M 546.773004 183.939856 
L 583.665566 183.939856 
" style="fill:none;stroke:#d62728;stroke-width:1.5;"/>
    <path clip-path="url(#p8e75745b0b)" d="M 757.587644 209.391342 
L 794.480206 209.391342 
" style="fill:none;stroke:#d62728;stroke-width:1.5;"/>
    <path clip-path="url(#p8e75745b0b)" d="M 862.994964 249.119046 
L 899.887526 249.119046 
" style="fill:none;stroke:#d62728;stroke-width:1.5;"/>
   </g>
   <g id="LineCollection_7">
    <path clip-path="url(#p8e75745b0b)" d="M 335.958364 195.011133 
L 372.850926 195.011133 
" style="fill:none;stroke:#d62728;stroke-width:1.5;"/>
    <path clip-path="url(#p8e75745b0b)" d="M 546.773004 211.460678 
L 583.665566 211.460678 
" style="fill:none;stroke:#d62728;stroke-width:1.5;"/>
    <path clip-path="url(#p8e75745b0b)" d="M 757.587644 244.708174 
L 794.480206 244.708174 
" style="fill:none;stroke:#d62728;stroke-width:1.5;"/>
    <path clip-path="url(#p8e75745b0b)" d="M 862.994964 287.737431 
L 899.887526 287.737431 
" style="fill:none;stroke:#d62728;stroke-width:1.5;"/>
   </g>
   <g id="LineCollection_8">
    <path clip-path="url(#p8e75745b0b)" d="M 354.404645 195.011133 
L 354.404645 177.16393 
" style="fill:none;stroke:#d62728;stroke-width:1.5;"/>
    <path clip-path="url(#p8e75745b0b)" d="M 565.219285 211.460678 
L 565.219285 183.939856 
" style="fill:none;stroke:#d62728;stroke-width:1.5;"/>
    <path clip-path="url(#p8e75745b0b)" d="M 776.033925 244.708174 
L 776.033925 209.391342 
" style="fill:none;stroke:#d62728;stroke-width:1.5;"/>
    <path clip-path="url(#p8e75745b0b)" d="M 881.441245 287.737431 
L 881.441245 249.119046 
" style="fill:none;stroke:#d62728;stroke-width:1.5;"/>
   </g>
   <g id="line2d_27">
    <path clip-path="url(#p8e75745b0b)" d="M 66.115625 252.766211 
L 958.915625 252.766211 
" style="fill:none;stroke:#9467bd;stroke-linecap:square;stroke-width:2.5;"/>
   </g>
   <g id="patch_3">
    <path d="M 66.115625 502.138828 
L 66.115625 12.898828 
" style="fill:none;stroke:#000000;stroke-linecap:square;stroke-linejoin:miter;stroke-width:0.8;"/>
   </g>
   <g id="patch_4">
    <path d="M 958.915625 502.138828 
L 958.915625 12.898828 
" style="fill:none;stroke:#000000;stroke-linecap:square;stroke-linejoin:miter;stroke-width:0.8;"/>
   </g>
   <g id="patch_5">
    <path d="M 66.115625 502.138828 
L 958.915625 502.138828 
" style="fill:none;stroke:#000000;stroke-linecap:square;stroke-linejoin:miter;stroke-width:0.8;"/>
   </g>
   <g id="patch_6">
    <path d="M 66.115625 12.898828 
L 958.915625 12.898828 
" style="fill:none;stroke:#000000;stroke-linecap:square;stroke-linejoin:miter;stroke-width:0.8;"/>
   </g>
   <g id="legend_1">
    <g id="patch_7">
     <path d="M 712.746875 90.950391 
L 948.415625 90.950391 
Q 951.415625 90.950391 951.415625 87.950391 
L 951.415625 23.398828 
Q 951.415625 20.398828 948.415625 20.398828 
L 712.746875 20.398828 
Q 709.746875 20.398828 709.746875 23.398828 
L 709.746875 87.950391 
Q 709.746875 90.950391 712.746875 90.950391 
z
" style="fill:#ffffff;opacity:0.8;stroke:#cccccc;stroke-linejoin:miter;"/>
    </g>
    <g id="patch_8">
     <path d="M 715.746875 37.796484 
L 745.746875 37.796484 
L 745.746875 27.296484 
L 715.746875 27.296484 
z
" style="fill:#1f77b4;stroke:#1f77b4;stroke-linejoin:miter;"/>
    </g>
    <g id="text_16">
     <!-- Supervised training -->
     <defs>
      <path d="M 53.515625 70.515625 
L 53.515625 60.890625 
Q 47.90625 63.578125 42.921875 64.890625 
Q 37.9375 66.21875 33.296875 66.21875 
Q 25.25 66.21875 20.875 63.09375 
Q 16.5 59.96875 16.5 54.203125 
Q 16.5 49.359375 19.40625 46.890625 
Q 22.3125 44.4375 30.421875 42.921875 
L 36.375 41.703125 
Q 47.40625 39.59375 52.65625 34.296875 
Q 57.90625 29 57.90625 20.125 
Q 57.90625 9.515625 50.796875 4.046875 
Q 43.703125 -1.421875 29.984375 -1.421875 
Q 24.8125 -1.421875 18.96875 -0.25 
Q 13.140625 0.921875 6.890625 3.21875 
L 6.890625 13.375 
Q 12.890625 10.015625 18.65625 8.296875 
Q 24.421875 6.59375 29.984375 6.59375 
Q 38.421875 6.59375 43.015625 9.90625 
Q 47.609375 13.234375 47.609375 19.390625 
Q 47.609375 24.75 44.3125 27.78125 
Q 41.015625 30.8125 33.5 32.328125 
L 27.484375 33.5 
Q 16.453125 35.6875 11.515625 40.375 
Q 6.59375 45.0625 6.59375 53.421875 
Q 6.59375 63.09375 13.40625 68.65625 
Q 20.21875 74.21875 32.171875 74.21875 
Q 37.3125 74.21875 42.625 73.28125 
Q 47.953125 72.359375 53.515625 70.515625 
z
" id="DejaVuSans-83"/>
      <path d="M 18.109375 8.203125 
L 18.109375 -20.796875 
L 9.078125 -20.796875 
L 9.078125 54.6875 
L 18.109375 54.6875 
L 18.109375 46.390625 
Q 20.953125 51.265625 25.265625 53.625 
Q 29.59375 56 35.59375 56 
Q 45.5625 56 51.78125 48.09375 
Q 58.015625 40.1875 58.015625 27.296875 
Q 58.015625 14.40625 51.78125 6.484375 
Q 45.5625 -1.421875 35.59375 -1.421875 
Q 29.59375 -1.421875 25.265625 0.953125 
Q 20.953125 3.328125 18.109375 8.203125 
z
M 48.6875 27.296875 
Q 48.6875 37.203125 44.609375 42.84375 
Q 40.53125 48.484375 33.40625 48.484375 
Q 26.265625 48.484375 22.1875 42.84375 
Q 18.109375 37.203125 18.109375 27.296875 
Q 18.109375 17.390625 22.1875 11.75 
Q 26.265625 6.109375 33.40625 6.109375 
Q 40.53125 6.109375 44.609375 11.75 
Q 48.6875 17.390625 48.6875 27.296875 
z
" id="DejaVuSans-112"/>
      <path d="M 44.28125 53.078125 
L 44.28125 44.578125 
Q 40.484375 46.53125 36.375 47.5 
Q 32.28125 48.484375 27.875 48.484375 
Q 21.1875 48.484375 17.84375 46.4375 
Q 14.5 44.390625 14.5 40.28125 
Q 14.5 37.15625 16.890625 35.375 
Q 19.28125 33.59375 26.515625 31.984375 
L 29.59375 31.296875 
Q 39.15625 29.25 43.1875 25.515625 
Q 47.21875 21.78125 47.21875 15.09375 
Q 47.21875 7.46875 41.1875 3.015625 
Q 35.15625 -1.421875 24.609375 -1.421875 
Q 20.21875 -1.421875 15.453125 -0.5625 
Q 10.6875 0.296875 5.421875 2 
L 5.421875 11.28125 
Q 10.40625 8.6875 15.234375 7.390625 
Q 20.0625 6.109375 24.8125 6.109375 
Q 31.15625 6.109375 34.5625 8.28125 
Q 37.984375 10.453125 37.984375 14.40625 
Q 37.984375 18.0625 35.515625 20.015625 
Q 33.0625 21.96875 24.703125 23.78125 
L 21.578125 24.515625 
Q 13.234375 26.265625 9.515625 29.90625 
Q 5.8125 33.546875 5.8125 39.890625 
Q 5.8125 47.609375 11.28125 51.796875 
Q 16.75 56 26.8125 56 
Q 31.78125 56 36.171875 55.265625 
Q 40.578125 54.546875 44.28125 53.078125 
z
" id="DejaVuSans-115"/>
     </defs>
     <g transform="translate(757.746875 37.796484)scale(0.15 -0.15)">
      <use xlink:href="#DejaVuSans-83"/>
      <use x="63.476562" xlink:href="#DejaVuSans-117"/>
      <use x="126.855469" xlink:href="#DejaVuSans-112"/>
      <use x="190.332031" xlink:href="#DejaVuSans-101"/>
      <use x="251.855469" xlink:href="#DejaVuSans-114"/>
      <use x="292.96875" xlink:href="#DejaVuSans-118"/>
      <use x="352.148438" xlink:href="#DejaVuSans-105"/>
      <use x="379.931641" xlink:href="#DejaVuSans-115"/>
      <use x="432.03125" xlink:href="#DejaVuSans-101"/>
      <use x="493.554688" xlink:href="#DejaVuSans-100"/>
      <use x="557.03125" xlink:href="#DejaVuSans-32"/>
      <use x="588.818359" xlink:href="#DejaVuSans-116"/>
      <use x="628.027344" xlink:href="#DejaVuSans-114"/>
      <use x="669.140625" xlink:href="#DejaVuSans-97"/>
      <use x="730.419922" xlink:href="#DejaVuSans-105"/>
      <use x="758.203125" xlink:href="#DejaVuSans-110"/>
      <use x="821.582031" xlink:href="#DejaVuSans-105"/>
      <use x="849.365234" xlink:href="#DejaVuSans-110"/>
      <use x="912.744141" xlink:href="#DejaVuSans-103"/>
     </g>
    </g>
    <g id="patch_9">
     <path d="M 715.746875 59.813672 
L 745.746875 59.813672 
L 745.746875 49.313672 
L 715.746875 49.313672 
z
" style="fill:#d62728;stroke:#d62728;stroke-linejoin:miter;"/>
    </g>
    <g id="text_17">
     <!-- Semi-supervised training -->
     <defs>
      <path d="M 4.890625 31.390625 
L 31.203125 31.390625 
L 31.203125 23.390625 
L 4.890625 23.390625 
z
" id="DejaVuSans-45"/>
     </defs>
     <g transform="translate(757.746875 59.813672)scale(0.15 -0.15)">
      <use xlink:href="#DejaVuSans-83"/>
      <use x="63.476562" xlink:href="#DejaVuSans-101"/>
      <use x="125" xlink:href="#DejaVuSans-109"/>
      <use x="222.412109" xlink:href="#DejaVuSans-105"/>
      <use x="250.195312" xlink:href="#DejaVuSans-45"/>
      <use x="286.279297" xlink:href="#DejaVuSans-115"/>
      <use x="338.378906" xlink:href="#DejaVuSans-117"/>
      <use x="401.757812" xlink:href="#DejaVuSans-112"/>
      <use x="465.234375" xlink:href="#DejaVuSans-101"/>
      <use x="526.757812" xlink:href="#DejaVuSans-114"/>
      <use x="567.871094" xlink:href="#DejaVuSans-118"/>
      <use x="627.050781" xlink:href="#DejaVuSans-105"/>
      <use x="654.833984" xlink:href="#DejaVuSans-115"/>
      <use x="706.933594" xlink:href="#DejaVuSans-101"/>
      <use x="768.457031" xlink:href="#DejaVuSans-100"/>
      <use x="831.933594" xlink:href="#DejaVuSans-32"/>
      <use x="863.720703" xlink:href="#DejaVuSans-116"/>
      <use x="902.929688" xlink:href="#DejaVuSans-114"/>
      <use x="944.042969" xlink:href="#DejaVuSans-97"/>
      <use x="1005.322266" xlink:href="#DejaVuSans-105"/>
      <use x="1033.105469" xlink:href="#DejaVuSans-110"/>
      <use x="1096.484375" xlink:href="#DejaVuSans-105"/>
      <use x="1124.267578" xlink:href="#DejaVuSans-110"/>
      <use x="1187.646484" xlink:href="#DejaVuSans-103"/>
     </g>
    </g>
    <g id="line2d_28">
     <path d="M 715.746875 76.580859 
L 745.746875 76.580859 
" style="fill:none;stroke:#9467bd;stroke-linecap:square;stroke-width:4;"/>
    </g>
    <g id="line2d_29"/>
    <g id="text_18">
     <!-- Baseline SVM method -->
     <defs>
      <path d="M 19.671875 34.8125 
L 19.671875 8.109375 
L 35.5 8.109375 
Q 43.453125 8.109375 47.28125 11.40625 
Q 51.125 14.703125 51.125 21.484375 
Q 51.125 28.328125 47.28125 31.5625 
Q 43.453125 34.8125 35.5 34.8125 
z
M 19.671875 64.796875 
L 19.671875 42.828125 
L 34.28125 42.828125 
Q 41.5 42.828125 45.03125 45.53125 
Q 48.578125 48.25 48.578125 53.8125 
Q 48.578125 59.328125 45.03125 62.0625 
Q 41.5 64.796875 34.28125 64.796875 
z
M 9.8125 72.90625 
L 35.015625 72.90625 
Q 46.296875 72.90625 52.390625 68.21875 
Q 58.5 63.53125 58.5 54.890625 
Q 58.5 48.1875 55.375 44.234375 
Q 52.25 40.28125 46.1875 39.3125 
Q 53.46875 37.75 57.5 32.78125 
Q 61.53125 27.828125 61.53125 20.40625 
Q 61.53125 10.640625 54.890625 5.3125 
Q 48.25 0 35.984375 0 
L 9.8125 0 
z
" id="DejaVuSans-66"/>
      <path d="M 28.609375 0 
L 0.78125 72.90625 
L 11.078125 72.90625 
L 34.1875 11.53125 
L 57.328125 72.90625 
L 67.578125 72.90625 
L 39.796875 0 
z
" id="DejaVuSans-86"/>
      <path d="M 9.8125 72.90625 
L 24.515625 72.90625 
L 43.109375 23.296875 
L 61.8125 72.90625 
L 76.515625 72.90625 
L 76.515625 0 
L 66.890625 0 
L 66.890625 64.015625 
L 48.09375 14.015625 
L 38.1875 14.015625 
L 19.390625 64.015625 
L 19.390625 0 
L 9.8125 0 
z
" id="DejaVuSans-77"/>
     </defs>
     <g transform="translate(757.746875 81.830859)scale(0.15 -0.15)">
      <use xlink:href="#DejaVuSans-66"/>
      <use x="68.603516" xlink:href="#DejaVuSans-97"/>
      <use x="129.882812" xlink:href="#DejaVuSans-115"/>
      <use x="181.982422" xlink:href="#DejaVuSans-101"/>
      <use x="243.505859" xlink:href="#DejaVuSans-108"/>
      <use x="271.289062" xlink:href="#DejaVuSans-105"/>
      <use x="299.072266" xlink:href="#DejaVuSans-110"/>
      <use x="362.451172" xlink:href="#DejaVuSans-101"/>
      <use x="423.974609" xlink:href="#DejaVuSans-32"/>
      <use x="455.761719" xlink:href="#DejaVuSans-83"/>
      <use x="519.238281" xlink:href="#DejaVuSans-86"/>
      <use x="587.646484" xlink:href="#DejaVuSans-77"/>
      <use x="673.925781" xlink:href="#DejaVuSans-32"/>
      <use x="705.712891" xlink:href="#DejaVuSans-109"/>
      <use x="803.125" xlink:href="#DejaVuSans-101"/>
      <use x="864.648438" xlink:href="#DejaVuSans-116"/>
      <use x="903.857422" xlink:href="#DejaVuSans-104"/>
      <use x="967.236328" xlink:href="#DejaVuSans-111"/>
      <use x="1028.417969" xlink:href="#DejaVuSans-100"/>
     </g>
    </g>
   </g>
  </g>
 </g>
 <defs>
  <clipPath id="p8e75745b0b">
   <rect height="489.24" width="892.8" x="66.115625" y="12.898828"/>
  </clipPath>
 </defs>
</svg>
