<?xml version="1.0" encoding="utf-8" standalone="no"?>
<!DOCTYPE svg PUBLIC "-//W3C//DTD SVG 1.1//EN"
  "http://www.w3.org/Graphics/SVG/1.1/DTD/svg11.dtd">
<!-- Created with matplotlib (https://matplotlib.org/) -->
<svg height="824.788672pt" version="1.1" viewBox="0 0 1112.509375 824.788672" width="1112.509375pt" xmlns="http://www.w3.org/2000/svg" xmlns:xlink="http://www.w3.org/1999/xlink">
 <defs>
  <style type="text/css">
*{stroke-linecap:butt;stroke-linejoin:round;}
  </style>
 </defs>
 <g id="figure_1">
  <g id="patch_1">
   <path d="M 0 824.788672 
L 1112.509375 824.788672 
L 1112.509375 0 
L 0 0 
z
" style="fill:#ffffff;"/>
  </g>
  <g id="axes_1">
   <g id="patch_2">
    <path d="M 98.059375 758.198047 
L 1101.809375 758.198047 
L 1101.809375 16.698047 
L 98.059375 16.698047 
z
" style="fill:#ffffff;"/>
   </g>
   <g id="PolyCollection_1">
    <path clip-path="url(#p36cc28ebdf)" d="M 191.655169 288.70493 
L 178.668127 288.70493 
L 178.640012 288.477455 
L 178.624614 288.24998 
L 178.621152 288.022505 
L 178.628655 287.79503 
L 178.645973 287.567554 
L 178.671776 287.340079 
L 178.70457 287.112604 
L 178.742705 286.885129 
L 178.784394 286.657654 
L 178.827723 286.430179 
L 178.870671 286.202704 
L 178.911128 285.975229 
L 178.946917 285.747754 
L 178.97581 285.520279 
L 178.99555 285.292804 
L 179.003875 285.065329 
L 178.998534 284.837854 
L 178.977312 284.610379 
L 178.938046 284.382904 
L 178.878646 284.155429 
L 178.797112 283.927954 
L 178.691552 283.700479 
L 178.560196 283.473004 
L 178.401408 283.245529 
L 178.213704 283.018054 
L 177.995755 282.790579 
L 177.746401 282.563104 
L 177.464656 282.335629 
L 177.149714 282.108154 
L 176.800952 281.880679 
L 176.417932 281.653204 
L 176.000402 281.425729 
L 175.548298 281.198254 
L 175.061735 280.970779 
L 174.541012 280.743304 
L 173.986602 280.515829 
L 173.399149 280.288354 
L 172.779463 280.060879 
L 172.128514 279.833404 
L 171.447424 279.605929 
L 170.73746 279.378454 
L 170.000028 279.150979 
L 169.236665 278.923504 
L 168.449035 278.696029 
L 167.638915 278.468554 
L 166.808196 278.241079 
L 165.958869 278.013604 
L 165.093024 277.786129 
L 164.212841 277.558654 
L 163.320584 277.331179 
L 162.418593 277.103704 
L 161.509283 276.876229 
L 160.595131 276.648754 
L 159.678677 276.421279 
L 158.762509 276.193804 
L 157.849268 275.966329 
L 156.94163 275.738854 
L 156.042306 275.511379 
L 155.154033 275.283904 
L 154.279565 275.056429 
L 153.421668 274.828954 
L 152.583108 274.601479 
L 151.766644 274.374004 
L 150.975018 274.146529 
L 150.210947 273.919054 
L 149.477112 273.691579 
L 148.776145 273.464104 
L 148.110622 273.236629 
L 147.483053 273.009154 
L 146.895865 272.781679 
L 146.351398 272.554204 
L 145.851889 272.326729 
L 145.399464 272.099254 
L 144.996124 271.871779 
L 144.643737 271.644304 
L 144.344024 271.416829 
L 144.098551 271.189354 
L 143.90872 270.961879 
L 143.775754 270.734404 
L 143.700691 270.506929 
L 143.684375 270.279454 
L 143.727445 270.051979 
L 143.830328 269.824504 
L 143.993231 269.597029 
L 144.216135 269.369554 
L 144.498787 269.142079 
L 144.840696 268.914604 
L 145.241126 268.687129 
L 145.699099 268.459654 
L 146.213388 268.232179 
L 146.782516 268.004704 
L 147.404764 267.777229 
L 148.078165 267.549754 
L 148.800516 267.322279 
L 149.569385 267.094804 
L 150.382115 266.867329 
L 151.235841 266.639854 
L 152.127499 266.412379 
L 153.053847 266.184904 
L 217.269449 266.184904 
L 217.269449 266.184904 
L 218.195797 266.412379 
L 219.087455 266.639854 
L 219.94118 266.867329 
L 220.75391 267.094804 
L 221.522779 267.322279 
L 222.245131 267.549754 
L 222.918532 267.777229 
L 223.540779 268.004704 
L 224.109908 268.232179 
L 224.624196 268.459654 
L 225.082169 268.687129 
L 225.4826 268.914604 
L 225.824508 269.142079 
L 226.10716 269.369554 
L 226.330064 269.597029 
L 226.492967 269.824504 
L 226.595851 270.051979 
L 226.63892 270.279454 
L 226.622604 270.506929 
L 226.547542 270.734404 
L 226.414575 270.961879 
L 226.224744 271.189354 
L 225.979272 271.416829 
L 225.679559 271.644304 
L 225.327171 271.871779 
L 224.923831 272.099254 
L 224.471406 272.326729 
L 223.971898 272.554204 
L 223.427431 272.781679 
L 222.840243 273.009154 
L 222.212673 273.236629 
L 221.547151 273.464104 
L 220.846184 273.691579 
L 220.112348 273.919054 
L 219.348277 274.146529 
L 218.556652 274.374004 
L 217.740188 274.601479 
L 216.901627 274.828954 
L 216.04373 275.056429 
L 215.169263 275.283904 
L 214.28099 275.511379 
L 213.381666 275.738854 
L 212.474027 275.966329 
L 211.560786 276.193804 
L 210.644619 276.421279 
L 209.728164 276.648754 
L 208.814012 276.876229 
L 207.904702 277.103704 
L 207.002712 277.331179 
L 206.110454 277.558654 
L 205.230271 277.786129 
L 204.364427 278.013604 
L 203.5151 278.241079 
L 202.68438 278.468554 
L 201.87426 278.696029 
L 201.08663 278.923504 
L 200.323268 279.150979 
L 199.585836 279.378454 
L 198.875872 279.605929 
L 198.194781 279.833404 
L 197.543832 280.060879 
L 196.924147 280.288354 
L 196.336694 280.515829 
L 195.782283 280.743304 
L 195.26156 280.970779 
L 194.774998 281.198254 
L 194.322893 281.425729 
L 193.905364 281.653204 
L 193.522344 281.880679 
L 193.173581 282.108154 
L 192.858639 282.335629 
L 192.576894 282.563104 
L 192.32754 282.790579 
L 192.109591 283.018054 
L 191.921887 283.245529 
L 191.7631 283.473004 
L 191.631743 283.700479 
L 191.526184 283.927954 
L 191.44465 284.155429 
L 191.38525 284.382904 
L 191.345984 284.610379 
L 191.324762 284.837854 
L 191.319421 285.065329 
L 191.327746 285.292804 
L 191.347486 285.520279 
L 191.376378 285.747754 
L 191.412167 285.975229 
L 191.452625 286.202704 
L 191.495573 286.430179 
L 191.538901 286.657654 
L 191.58059 286.885129 
L 191.618726 287.112604 
L 191.651519 287.340079 
L 191.677322 287.567554 
L 191.69464 287.79503 
L 191.702144 288.022505 
L 191.698681 288.24998 
L 191.683283 288.477455 
L 191.655169 288.70493 
z
" style="fill:#1f77b4;fill-opacity:0.3;"/>
   </g>
   <g id="PolyCollection_2">
    <path clip-path="url(#p36cc28ebdf)" d="M 441.719112 292.710381 
L 402.630157 292.710381 
L 401.602297 292.437153 
L 400.554561 292.163926 
L 399.489732 291.890699 
L 398.41093 291.617471 
L 397.321622 291.344244 
L 396.225619 291.071017 
L 395.127071 290.797789 
L 394.030453 290.524562 
L 392.940549 290.251335 
L 391.862426 289.978107 
L 390.801408 289.70488 
L 389.763031 289.431653 
L 388.753008 289.158425 
L 387.777172 288.885198 
L 386.841426 288.61197 
L 385.951682 288.338743 
L 385.113795 288.065516 
L 384.333497 287.792288 
L 383.616327 287.519061 
L 382.967559 287.245834 
L 382.392134 286.972606 
L 381.894586 286.699379 
L 381.478978 286.426152 
L 381.148841 286.152924 
L 380.90711 285.879697 
L 380.756082 285.60647 
L 380.697362 285.333242 
L 380.731838 285.060015 
L 380.859649 284.786788 
L 381.080172 284.51356 
L 381.392017 284.240333 
L 381.793034 283.967106 
L 382.280326 283.693878 
L 382.850285 283.420651 
L 383.498622 283.147424 
L 384.220421 282.874196 
L 385.010192 282.600969 
L 385.86194 282.327741 
L 386.769237 282.054514 
L 387.725295 281.781287 
L 388.723056 281.508059 
L 389.755273 281.234832 
L 390.814594 280.961605 
L 391.893656 280.688377 
L 392.985164 280.41515 
L 394.081973 280.141923 
L 395.177171 279.868695 
L 396.264145 279.595468 
L 397.336651 279.322241 
L 398.388869 279.049013 
L 399.415457 278.775786 
L 400.411585 278.502559 
L 401.372977 278.229331 
L 402.295925 277.956104 
L 403.177305 277.682877 
L 404.014583 277.409649 
L 404.80581 277.136422 
L 405.549608 276.863195 
L 406.24515 276.589967 
L 406.892135 276.31674 
L 407.490754 276.043512 
L 408.041653 275.770285 
L 408.54589 275.497058 
L 409.004893 275.22383 
L 409.420414 274.950603 
L 409.79448 274.677376 
L 410.129348 274.404148 
L 410.427456 274.130921 
L 410.691382 273.857694 
L 410.923802 273.584466 
L 411.127447 273.311239 
L 411.305071 273.038012 
L 411.459416 272.764784 
L 411.593189 272.491557 
L 411.709029 272.21833 
L 411.809495 271.945102 
L 411.897046 271.671875 
L 411.974027 271.398648 
L 412.042662 271.12542 
L 412.105046 270.852193 
L 412.163142 270.578965 
L 412.218778 270.305738 
L 412.27365 270.032511 
L 412.329321 269.759283 
L 412.387223 269.486056 
L 412.448666 269.212829 
L 412.514832 268.939601 
L 412.586789 268.666374 
L 412.665485 268.393147 
L 412.751759 268.119919 
L 412.846335 267.846692 
L 412.949834 267.573465 
L 413.062766 267.300237 
L 413.185537 267.02701 
L 413.318446 266.753783 
L 413.461689 266.480555 
L 413.615355 266.207328 
L 413.779431 265.934101 
L 413.953798 265.660873 
L 430.395472 265.660873 
L 430.395472 265.660873 
L 430.569839 265.934101 
L 430.733914 266.207328 
L 430.887581 266.480555 
L 431.030823 266.753783 
L 431.163733 267.02701 
L 431.286503 267.300237 
L 431.399435 267.573465 
L 431.502934 267.846692 
L 431.597511 268.119919 
L 431.683784 268.393147 
L 431.762481 268.666374 
L 431.834437 268.939601 
L 431.900604 269.212829 
L 431.962046 269.486056 
L 432.019949 269.759283 
L 432.075619 270.032511 
L 432.130491 270.305738 
L 432.186127 270.578965 
L 432.244223 270.852193 
L 432.306607 271.12542 
L 432.375242 271.398648 
L 432.452223 271.671875 
L 432.539774 271.945102 
L 432.640241 272.21833 
L 432.756081 272.491557 
L 432.889853 272.764784 
L 433.044199 273.038012 
L 433.221823 273.311239 
L 433.425468 273.584466 
L 433.657887 273.857694 
L 433.921814 274.130921 
L 434.219922 274.404148 
L 434.554789 274.677376 
L 434.928855 274.950603 
L 435.344377 275.22383 
L 435.80338 275.497058 
L 436.307617 275.770285 
L 436.858515 276.043512 
L 437.457134 276.31674 
L 438.104119 276.589967 
L 438.799661 276.863195 
L 439.543459 277.136422 
L 440.334686 277.409649 
L 441.171965 277.682877 
L 442.053345 277.956104 
L 442.976292 278.229331 
L 443.937684 278.502559 
L 444.933813 278.775786 
L 445.9604 279.049013 
L 447.012618 279.322241 
L 448.085124 279.595468 
L 449.172098 279.868695 
L 450.267296 280.141923 
L 451.364106 280.41515 
L 452.455613 280.688377 
L 453.534675 280.961605 
L 454.593997 281.234832 
L 455.626213 281.508059 
L 456.623974 281.781287 
L 457.580033 282.054514 
L 458.487329 282.327741 
L 459.339077 282.600969 
L 460.128849 282.874196 
L 460.850647 283.147424 
L 461.498984 283.420651 
L 462.068943 283.693878 
L 462.556236 283.967106 
L 462.957252 284.240333 
L 463.269097 284.51356 
L 463.48962 284.786788 
L 463.617431 285.060015 
L 463.651907 285.333242 
L 463.593188 285.60647 
L 463.442159 285.879697 
L 463.200429 286.152924 
L 462.870291 286.426152 
L 462.454684 286.699379 
L 461.957135 286.972606 
L 461.38171 287.245834 
L 460.732943 287.519061 
L 460.015773 287.792288 
L 459.235475 288.065516 
L 458.397588 288.338743 
L 457.507844 288.61197 
L 456.572098 288.885198 
L 455.596262 289.158425 
L 454.586238 289.431653 
L 453.547861 289.70488 
L 452.486843 289.978107 
L 451.408721 290.251335 
L 450.318817 290.524562 
L 449.222198 290.797789 
L 448.12365 291.071017 
L 447.027648 291.344244 
L 445.93834 291.617471 
L 444.859538 291.890699 
L 443.794708 292.163926 
L 442.746973 292.437153 
L 441.719112 292.710381 
z
" style="fill:#1f77b4;fill-opacity:0.3;"/>
   </g>
   <g id="PolyCollection_3">
    <path clip-path="url(#p36cc28ebdf)" d="M 667.085746 317.641575 
L 651.289497 317.641575 
L 651.139417 317.220252 
L 650.991508 316.798929 
L 650.843499 316.377606 
L 650.692826 315.956282 
L 650.536656 315.534959 
L 650.371913 315.113636 
L 650.195321 314.692313 
L 650.003436 314.27099 
L 649.7927 313.849666 
L 649.559489 313.428343 
L 649.300168 313.00702 
L 649.011148 312.585697 
L 648.688946 312.164373 
L 648.330247 311.74305 
L 647.931963 311.321727 
L 647.491296 310.900404 
L 647.005794 310.47908 
L 646.473405 310.057757 
L 645.892531 309.636434 
L 645.262071 309.215111 
L 644.581463 308.793788 
L 643.850715 308.372464 
L 643.070434 307.951141 
L 642.241837 307.529818 
L 641.366765 307.108495 
L 640.44768 306.687171 
L 639.487652 306.265848 
L 638.490347 305.844525 
L 637.459987 305.423202 
L 636.401323 305.001878 
L 635.319581 304.580555 
L 634.220409 304.159232 
L 633.109819 303.737909 
L 631.994115 303.316585 
L 630.879821 302.895262 
L 629.773606 302.473939 
L 628.682203 302.052616 
L 627.612326 301.631293 
L 626.570595 301.209969 
L 625.563448 300.788646 
L 624.597073 300.367323 
L 623.677329 299.946 
L 622.80968 299.524676 
L 621.999136 299.103353 
L 621.250195 298.68203 
L 620.566801 298.260707 
L 619.952306 297.839383 
L 619.409441 297.41806 
L 618.940301 296.996737 
L 618.546331 296.575414 
L 618.228334 296.154091 
L 617.986477 295.732767 
L 617.820311 295.311444 
L 617.728799 294.890121 
L 617.710349 294.468798 
L 617.762859 294.047474 
L 617.883758 293.626151 
L 618.070064 293.204828 
L 618.318434 292.783505 
L 618.625222 292.362181 
L 618.986541 291.940858 
L 619.398316 291.519535 
L 619.856348 291.098212 
L 620.356368 290.676889 
L 620.894092 290.255565 
L 621.465271 289.834242 
L 622.06574 289.412919 
L 622.691462 288.991596 
L 623.338564 288.570272 
L 624.003375 288.148949 
L 624.68245 287.727626 
L 625.372599 287.306303 
L 626.0709 286.884979 
L 626.774716 286.463656 
L 627.481701 286.042333 
L 628.189805 285.62101 
L 628.897271 285.199686 
L 629.602631 284.778363 
L 630.304695 284.35704 
L 631.002536 283.935717 
L 631.695478 283.514394 
L 632.383073 283.09307 
L 633.065077 282.671747 
L 633.741432 282.250424 
L 634.412234 281.829101 
L 635.07771 281.407777 
L 635.738188 280.986454 
L 636.394072 280.565131 
L 637.045811 280.143808 
L 637.693877 279.722484 
L 638.338732 279.301161 
L 638.980812 278.879838 
L 639.620499 278.458515 
L 640.258105 278.037192 
L 640.893852 277.615868 
L 641.527857 277.194545 
L 642.160124 276.773222 
L 642.790535 276.351899 
L 643.418843 275.930575 
L 674.956401 275.930575 
L 674.956401 275.930575 
L 675.584708 276.351899 
L 676.215119 276.773222 
L 676.847387 277.194545 
L 677.481392 277.615868 
L 678.117138 278.037192 
L 678.754744 278.458515 
L 679.394432 278.879838 
L 680.036512 279.301161 
L 680.681367 279.722484 
L 681.329432 280.143808 
L 681.981172 280.565131 
L 682.637056 280.986454 
L 683.297534 281.407777 
L 683.96301 281.829101 
L 684.633812 282.250424 
L 685.310167 282.671747 
L 685.992171 283.09307 
L 686.679765 283.514394 
L 687.372707 283.935717 
L 688.070549 284.35704 
L 688.772612 284.778363 
L 689.477972 285.199686 
L 690.185438 285.62101 
L 690.893543 286.042333 
L 691.600528 286.463656 
L 692.304344 286.884979 
L 693.002645 287.306303 
L 693.692794 287.727626 
L 694.371869 288.148949 
L 695.03668 288.570272 
L 695.683782 288.991596 
L 696.309504 289.412919 
L 696.909973 289.834242 
L 697.481151 290.255565 
L 698.018875 290.676889 
L 698.518895 291.098212 
L 698.976928 291.519535 
L 699.388703 291.940858 
L 699.750021 292.362181 
L 700.05681 292.783505 
L 700.305179 293.204828 
L 700.491485 293.626151 
L 700.612385 294.047474 
L 700.664894 294.468798 
L 700.646445 294.890121 
L 700.554933 295.311444 
L 700.388767 295.732767 
L 700.14691 296.154091 
L 699.828913 296.575414 
L 699.434943 296.996737 
L 698.965802 297.41806 
L 698.422937 297.839383 
L 697.808443 298.260707 
L 697.125049 298.68203 
L 696.376108 299.103353 
L 695.565563 299.524676 
L 694.697915 299.946 
L 693.77817 300.367323 
L 692.811795 300.788646 
L 691.804649 301.209969 
L 690.762917 301.631293 
L 689.693041 302.052616 
L 688.601637 302.473939 
L 687.495422 302.895262 
L 686.381129 303.316585 
L 685.265424 303.737909 
L 684.154834 304.159232 
L 683.055663 304.580555 
L 681.97392 305.001878 
L 680.915256 305.423202 
L 679.884897 305.844525 
L 678.887591 306.265848 
L 677.927564 306.687171 
L 677.008478 307.108495 
L 676.133406 307.529818 
L 675.30481 307.951141 
L 674.524528 308.372464 
L 673.793781 308.793788 
L 673.113173 309.215111 
L 672.482713 309.636434 
L 671.901839 310.057757 
L 671.36945 310.47908 
L 670.883947 310.900404 
L 670.443281 311.321727 
L 670.044997 311.74305 
L 669.686298 312.164373 
L 669.364095 312.585697 
L 669.075075 313.00702 
L 668.815754 313.428343 
L 668.582543 313.849666 
L 668.371808 314.27099 
L 668.179923 314.692313 
L 668.00333 315.113636 
L 667.838588 315.534959 
L 667.682417 315.956282 
L 667.531745 316.377606 
L 667.383736 316.798929 
L 667.235826 317.220252 
L 667.085746 317.641575 
z
" style="fill:#1f77b4;fill-opacity:0.3;"/>
   </g>
   <g id="PolyCollection_4">
    <path clip-path="url(#p36cc28ebdf)" d="M 919.601283 368.032014 
L 872.799934 368.032014 
L 872.261757 367.49134 
L 871.742241 366.950665 
L 871.241927 366.409991 
L 870.761154 365.869317 
L 870.300054 365.328642 
L 869.85855 364.787968 
L 869.436355 364.247294 
L 869.032979 363.706619 
L 868.647733 363.165945 
L 868.279735 362.625271 
L 867.927931 362.084597 
L 867.591099 361.543922 
L 867.267878 361.003248 
L 866.956776 360.462574 
L 866.656202 359.921899 
L 866.364484 359.381225 
L 866.079899 358.840551 
L 865.800693 358.299876 
L 865.525117 357.759202 
L 865.251448 357.218528 
L 864.978019 356.677853 
L 864.703248 356.137179 
L 864.42566 355.596505 
L 864.143918 355.05583 
L 863.85684 354.515156 
L 863.563424 353.974482 
L 863.262863 353.433807 
L 862.954563 352.893133 
L 862.638156 352.352459 
L 862.313504 351.811784 
L 861.980708 351.27111 
L 861.640109 350.730436 
L 861.292283 350.189761 
L 860.938037 349.649087 
L 860.578399 349.108413 
L 860.214602 348.567739 
L 859.848071 348.027064 
L 859.480398 347.48639 
L 859.113324 346.945716 
L 858.74871 346.405041 
L 858.388515 345.864367 
L 858.034759 345.323693 
L 857.689505 344.783018 
L 857.354817 344.242344 
L 857.032739 343.70167 
L 856.725265 343.160995 
L 856.434304 342.620321 
L 856.161663 342.079647 
L 855.909015 341.538972 
L 855.677884 340.998298 
L 855.46962 340.457624 
L 855.285387 339.916949 
L 855.12615 339.376275 
L 854.992669 338.835601 
L 854.885488 338.294926 
L 854.804941 337.754252 
L 854.751151 337.213578 
L 854.724041 336.672903 
L 854.723336 336.132229 
L 854.748586 335.591555 
L 854.799177 335.05088 
L 854.874349 334.510206 
L 854.973222 333.969532 
L 855.094814 333.428858 
L 855.238069 332.888183 
L 855.401879 332.347509 
L 855.585111 331.806835 
L 855.786628 331.26616 
L 856.005319 330.725486 
L 856.240118 330.184812 
L 856.490023 329.644137 
L 856.75412 329.103463 
L 857.031595 328.562789 
L 857.321749 328.022114 
L 857.624011 327.48144 
L 857.93794 326.940766 
L 858.263235 326.400091 
L 858.599732 325.859417 
L 858.947404 325.318743 
L 859.306353 324.778068 
L 859.676802 324.237394 
L 860.059086 323.69672 
L 860.453636 323.156045 
L 860.860963 322.615371 
L 861.281639 322.074697 
L 861.716281 321.534022 
L 862.165528 320.993348 
L 862.630018 320.452674 
L 863.110373 319.912 
L 863.607173 319.371325 
L 864.120936 318.830651 
L 864.6521 318.289977 
L 865.201007 317.749302 
L 865.767883 317.208628 
L 866.352826 316.667954 
L 866.955795 316.127279 
L 867.576597 315.586605 
L 868.214885 315.045931 
L 868.87015 314.505256 
L 923.531068 314.505256 
L 923.531068 314.505256 
L 924.186333 315.045931 
L 924.824621 315.586605 
L 925.445423 316.127279 
L 926.048391 316.667954 
L 926.633334 317.208628 
L 927.20021 317.749302 
L 927.749117 318.289977 
L 928.280282 318.830651 
L 928.794045 319.371325 
L 929.290844 319.912 
L 929.771199 320.452674 
L 930.23569 320.993348 
L 930.684936 321.534022 
L 931.119578 322.074697 
L 931.540255 322.615371 
L 931.947581 323.156045 
L 932.342131 323.69672 
L 932.724416 324.237394 
L 933.094865 324.778068 
L 933.453813 325.318743 
L 933.801485 325.859417 
L 934.137982 326.400091 
L 934.463277 326.940766 
L 934.777207 327.48144 
L 935.079468 328.022114 
L 935.369623 328.562789 
L 935.647097 329.103463 
L 935.911194 329.644137 
L 936.1611 330.184812 
L 936.395898 330.725486 
L 936.614589 331.26616 
L 936.816107 331.806835 
L 936.999338 332.347509 
L 937.163148 332.888183 
L 937.306403 333.428858 
L 937.427996 333.969532 
L 937.526869 334.510206 
L 937.602041 335.05088 
L 937.652631 335.591555 
L 937.677881 336.132229 
L 937.677177 336.672903 
L 937.650066 337.213578 
L 937.596277 337.754252 
L 937.51573 338.294926 
L 937.408549 338.835601 
L 937.275067 339.376275 
L 937.115831 339.916949 
L 936.931598 340.457624 
L 936.723334 340.998298 
L 936.492202 341.538972 
L 936.239555 342.079647 
L 935.966914 342.620321 
L 935.675953 343.160995 
L 935.368478 343.70167 
L 935.046401 344.242344 
L 934.711713 344.783018 
L 934.366458 345.323693 
L 934.012703 345.864367 
L 933.652507 346.405041 
L 933.287894 346.945716 
L 932.92082 347.48639 
L 932.553147 348.027064 
L 932.186615 348.567739 
L 931.822819 349.108413 
L 931.46318 349.649087 
L 931.108935 350.189761 
L 930.761108 350.730436 
L 930.420509 351.27111 
L 930.087713 351.811784 
L 929.763061 352.352459 
L 929.446654 352.893133 
L 929.138355 353.433807 
L 928.837794 353.974482 
L 928.544377 354.515156 
L 928.257299 355.05583 
L 927.975557 355.596505 
L 927.69797 356.137179 
L 927.423198 356.677853 
L 927.149769 357.218528 
L 926.8761 357.759202 
L 926.600524 358.299876 
L 926.321319 358.840551 
L 926.036733 359.381225 
L 925.745016 359.921899 
L 925.444442 360.462574 
L 925.13334 361.003248 
L 924.810118 361.543922 
L 924.473287 362.084597 
L 924.121482 362.625271 
L 923.753485 363.165945 
L 923.368238 363.706619 
L 922.964862 364.247294 
L 922.542668 364.787968 
L 922.101163 365.328642 
L 921.640063 365.869317 
L 921.15929 366.409991 
L 920.658976 366.950665 
L 920.13946 367.49134 
L 919.601283 368.032014 
z
" style="fill:#1f77b4;fill-opacity:0.3;"/>
   </g>
   <g id="PolyCollection_5">
    <path clip-path="url(#p36cc28ebdf)" d="M 1042.396066 433.247847 
L 987.018139 433.247847 
L 986.056631 432.656628 
L 985.112182 432.065409 
L 984.188055 431.474191 
L 983.287438 430.882972 
L 982.41341 430.291754 
L 981.568917 429.700535 
L 980.756737 429.109316 
L 979.97946 428.518098 
L 979.239457 427.926879 
L 978.538857 427.33566 
L 977.87952 426.744442 
L 977.263023 426.153223 
L 976.690633 425.562004 
L 976.163299 424.970786 
L 975.681635 424.379567 
L 975.245916 423.788349 
L 974.856068 423.19713 
L 974.511673 422.605911 
L 974.21197 422.014693 
L 973.955863 421.423474 
L 973.741936 420.832255 
L 973.568472 420.241037 
L 973.433469 419.649818 
L 973.334674 419.058599 
L 973.269607 418.467381 
L 973.2356 417.876162 
L 973.22983 417.284944 
L 973.249361 416.693725 
L 973.291189 416.102506 
L 973.35228 415.511288 
L 973.429622 414.920069 
L 973.520263 414.32885 
L 973.62136 413.737632 
L 973.730222 413.146413 
L 973.844349 412.555194 
L 973.96147 411.963976 
L 974.07958 411.372757 
L 974.196972 410.781539 
L 974.312256 410.19032 
L 974.424385 409.599101 
L 974.532668 409.007883 
L 974.636778 408.416664 
L 974.736753 407.825445 
L 974.832994 407.234227 
L 974.926251 406.643008 
L 975.017609 406.051789 
L 975.10846 405.460571 
L 975.200481 404.869352 
L 975.295591 404.278134 
L 975.395922 403.686915 
L 975.503769 403.095696 
L 975.621547 402.504478 
L 975.751747 401.913259 
L 975.896881 401.32204 
L 976.059438 400.730822 
L 976.241833 400.139603 
L 976.44636 399.548384 
L 976.675151 398.957166 
L 976.930129 398.365947 
L 977.212976 397.774729 
L 977.525099 397.18351 
L 977.867603 396.592291 
L 978.241269 396.001073 
L 978.646542 395.409854 
L 979.083518 394.818635 
L 979.551945 394.227417 
L 980.051229 393.636198 
L 980.580438 393.044979 
L 981.138327 392.453761 
L 981.72335 391.862542 
L 982.333697 391.271324 
L 982.967317 390.680105 
L 983.621955 390.088886 
L 984.295193 389.497668 
L 984.984481 388.906449 
L 985.687187 388.31523 
L 986.40063 387.724012 
L 987.122124 387.132793 
L 987.849014 386.541574 
L 988.578716 385.950356 
L 989.308747 385.359137 
L 990.03676 384.767919 
L 990.760564 384.1767 
L 991.478155 383.585481 
L 992.187726 382.994263 
L 992.887684 382.403044 
L 993.576658 381.811825 
L 994.253505 381.220607 
L 994.917303 380.629388 
L 995.567353 380.038169 
L 996.203166 379.446951 
L 996.824449 378.855732 
L 997.431094 378.264514 
L 998.023157 377.673295 
L 998.600837 377.082076 
L 999.164455 376.490858 
L 999.714432 375.899639 
L 1000.251267 375.30842 
L 1000.775509 374.717202 
L 1028.638695 374.717202 
L 1028.638695 374.717202 
L 1029.162938 375.30842 
L 1029.699772 375.899639 
L 1030.24975 376.490858 
L 1030.813368 377.082076 
L 1031.391047 377.673295 
L 1031.98311 378.264514 
L 1032.589756 378.855732 
L 1033.211039 379.446951 
L 1033.846851 380.038169 
L 1034.496901 380.629388 
L 1035.1607 381.220607 
L 1035.837546 381.811825 
L 1036.526521 382.403044 
L 1037.226479 382.994263 
L 1037.93605 383.585481 
L 1038.65364 384.1767 
L 1039.377445 384.767919 
L 1040.105457 385.359137 
L 1040.835489 385.950356 
L 1041.56519 386.541574 
L 1042.292081 387.132793 
L 1043.013574 387.724012 
L 1043.727017 388.31523 
L 1044.429723 388.906449 
L 1045.119012 389.497668 
L 1045.792249 390.088886 
L 1046.446888 390.680105 
L 1047.080508 391.271324 
L 1047.690854 391.862542 
L 1048.275878 392.453761 
L 1048.833766 393.044979 
L 1049.362976 393.636198 
L 1049.862259 394.227417 
L 1050.330687 394.818635 
L 1050.767663 395.409854 
L 1051.172935 396.001073 
L 1051.546602 396.592291 
L 1051.889106 397.18351 
L 1052.201229 397.774729 
L 1052.484076 398.365947 
L 1052.739054 398.957166 
L 1052.967844 399.548384 
L 1053.172372 400.139603 
L 1053.354766 400.730822 
L 1053.517323 401.32204 
L 1053.662457 401.913259 
L 1053.792657 402.504478 
L 1053.910436 403.095696 
L 1054.018282 403.686915 
L 1054.118613 404.278134 
L 1054.213724 404.869352 
L 1054.305744 405.460571 
L 1054.396596 406.051789 
L 1054.487954 406.643008 
L 1054.581211 407.234227 
L 1054.677452 407.825445 
L 1054.777427 408.416664 
L 1054.881537 409.007883 
L 1054.98982 409.599101 
L 1055.101949 410.19032 
L 1055.217233 410.781539 
L 1055.334624 411.372757 
L 1055.452735 411.963976 
L 1055.569856 412.555194 
L 1055.683982 413.146413 
L 1055.792844 413.737632 
L 1055.893941 414.32885 
L 1055.984583 414.920069 
L 1056.061924 415.511288 
L 1056.123016 416.102506 
L 1056.164844 416.693725 
L 1056.184375 417.284944 
L 1056.178605 417.876162 
L 1056.144597 418.467381 
L 1056.07953 419.058599 
L 1055.980735 419.649818 
L 1055.845733 420.241037 
L 1055.672268 420.832255 
L 1055.458342 421.423474 
L 1055.202235 422.014693 
L 1054.902531 422.605911 
L 1054.558136 423.19713 
L 1054.168288 423.788349 
L 1053.732569 424.379567 
L 1053.250906 424.970786 
L 1052.723572 425.562004 
L 1052.151182 426.153223 
L 1051.534684 426.744442 
L 1050.875348 427.33566 
L 1050.174747 427.926879 
L 1049.434745 428.518098 
L 1048.657468 429.109316 
L 1047.845288 429.700535 
L 1047.000794 430.291754 
L 1046.126766 430.882972 
L 1045.226149 431.474191 
L 1044.302023 432.065409 
L 1043.357573 432.656628 
L 1042.396066 433.247847 
z
" style="fill:#1f77b4;fill-opacity:0.3;"/>
   </g>
   <g id="matplotlib.axis_1">
    <g id="xtick_1">
     <g id="line2d_1">
      <path clip-path="url(#p36cc28ebdf)" d="M 185.161648 758.198047 
L 185.161648 16.698047 
" style="fill:none;stroke:#b0b0b0;stroke-linecap:square;stroke-width:0.8;"/>
     </g>
     <g id="line2d_2">
      <defs>
       <path d="M 0 0 
L 0 3.5 
" id="m202eada401" style="stroke:#000000;stroke-width:0.8;"/>
      </defs>
      <g>
       <use style="stroke:#000000;stroke-width:0.8;" x="185.161648" xlink:href="#m202eada401" y="758.198047"/>
      </g>
     </g>
     <g id="text_1">
      <!-- 1.0 -->
      <defs>
       <path d="M 12.40625 8.296875 
L 28.515625 8.296875 
L 28.515625 63.921875 
L 10.984375 60.40625 
L 10.984375 69.390625 
L 28.421875 72.90625 
L 38.28125 72.90625 
L 38.28125 8.296875 
L 54.390625 8.296875 
L 54.390625 0 
L 12.40625 0 
z
" id="DejaVuSans-49"/>
       <path d="M 10.6875 12.40625 
L 21 12.40625 
L 21 0 
L 10.6875 0 
z
" id="DejaVuSans-46"/>
       <path d="M 31.78125 66.40625 
Q 24.171875 66.40625 20.328125 58.90625 
Q 16.5 51.421875 16.5 36.375 
Q 16.5 21.390625 20.328125 13.890625 
Q 24.171875 6.390625 31.78125 6.390625 
Q 39.453125 6.390625 43.28125 13.890625 
Q 47.125 21.390625 47.125 36.375 
Q 47.125 51.421875 43.28125 58.90625 
Q 39.453125 66.40625 31.78125 66.40625 
z
M 31.78125 74.21875 
Q 44.046875 74.21875 50.515625 64.515625 
Q 56.984375 54.828125 56.984375 36.375 
Q 56.984375 17.96875 50.515625 8.265625 
Q 44.046875 -1.421875 31.78125 -1.421875 
Q 19.53125 -1.421875 13.0625 8.265625 
Q 6.59375 17.96875 6.59375 36.375 
Q 6.59375 54.828125 13.0625 64.515625 
Q 19.53125 74.21875 31.78125 74.21875 
z
" id="DejaVuSans-48"/>
      </defs>
      <g transform="translate(165.282741 784.194141)scale(0.25 -0.25)">
       <use xlink:href="#DejaVuSans-49"/>
       <use x="63.623047" xlink:href="#DejaVuSans-46"/>
       <use x="95.410156" xlink:href="#DejaVuSans-48"/>
      </g>
     </g>
    </g>
    <g id="xtick_2">
     <g id="line2d_3">
      <path clip-path="url(#p36cc28ebdf)" d="M 422.174635 758.198047 
L 422.174635 16.698047 
" style="fill:none;stroke:#b0b0b0;stroke-linecap:square;stroke-width:0.8;"/>
     </g>
     <g id="line2d_4">
      <g>
       <use style="stroke:#000000;stroke-width:0.8;" x="422.174635" xlink:href="#m202eada401" y="758.198047"/>
      </g>
     </g>
     <g id="text_2">
      <!-- 0.75 -->
      <defs>
       <path d="M 8.203125 72.90625 
L 55.078125 72.90625 
L 55.078125 68.703125 
L 28.609375 0 
L 18.3125 0 
L 43.21875 64.59375 
L 8.203125 64.59375 
z
" id="DejaVuSans-55"/>
       <path d="M 10.796875 72.90625 
L 49.515625 72.90625 
L 49.515625 64.59375 
L 19.828125 64.59375 
L 19.828125 46.734375 
Q 21.96875 47.46875 24.109375 47.828125 
Q 26.265625 48.1875 28.421875 48.1875 
Q 40.625 48.1875 47.75 41.5 
Q 54.890625 34.8125 54.890625 23.390625 
Q 54.890625 11.625 47.5625 5.09375 
Q 40.234375 -1.421875 26.90625 -1.421875 
Q 22.3125 -1.421875 17.546875 -0.640625 
Q 12.796875 0.140625 7.71875 1.703125 
L 7.71875 11.625 
Q 12.109375 9.234375 16.796875 8.0625 
Q 21.484375 6.890625 26.703125 6.890625 
Q 35.15625 6.890625 40.078125 11.328125 
Q 45.015625 15.765625 45.015625 23.390625 
Q 45.015625 31 40.078125 35.4375 
Q 35.15625 39.890625 26.703125 39.890625 
Q 22.75 39.890625 18.8125 39.015625 
Q 14.890625 38.140625 10.796875 36.28125 
z
" id="DejaVuSans-53"/>
      </defs>
      <g transform="translate(394.342603 784.194141)scale(0.25 -0.25)">
       <use xlink:href="#DejaVuSans-48"/>
       <use x="63.623047" xlink:href="#DejaVuSans-46"/>
       <use x="95.410156" xlink:href="#DejaVuSans-55"/>
       <use x="159.033203" xlink:href="#DejaVuSans-53"/>
      </g>
     </g>
    </g>
    <g id="xtick_3">
     <g id="line2d_5">
      <path clip-path="url(#p36cc28ebdf)" d="M 659.187622 758.198047 
L 659.187622 16.698047 
" style="fill:none;stroke:#b0b0b0;stroke-linecap:square;stroke-width:0.8;"/>
     </g>
     <g id="line2d_6">
      <g>
       <use style="stroke:#000000;stroke-width:0.8;" x="659.187622" xlink:href="#m202eada401" y="758.198047"/>
      </g>
     </g>
     <g id="text_3">
      <!-- 0.5 -->
      <g transform="translate(639.308716 784.194141)scale(0.25 -0.25)">
       <use xlink:href="#DejaVuSans-48"/>
       <use x="63.623047" xlink:href="#DejaVuSans-46"/>
       <use x="95.410156" xlink:href="#DejaVuSans-53"/>
      </g>
     </g>
    </g>
    <g id="xtick_4">
     <g id="line2d_7">
      <path clip-path="url(#p36cc28ebdf)" d="M 896.200609 758.198047 
L 896.200609 16.698047 
" style="fill:none;stroke:#b0b0b0;stroke-linecap:square;stroke-width:0.8;"/>
     </g>
     <g id="line2d_8">
      <g>
       <use style="stroke:#000000;stroke-width:0.8;" x="896.200609" xlink:href="#m202eada401" y="758.198047"/>
      </g>
     </g>
     <g id="text_4">
      <!-- 0.25 -->
      <defs>
       <path d="M 19.1875 8.296875 
L 53.609375 8.296875 
L 53.609375 0 
L 7.328125 0 
L 7.328125 8.296875 
Q 12.9375 14.109375 22.625 23.890625 
Q 32.328125 33.6875 34.8125 36.53125 
Q 39.546875 41.84375 41.421875 45.53125 
Q 43.3125 49.21875 43.3125 52.78125 
Q 43.3125 58.59375 39.234375 62.25 
Q 35.15625 65.921875 28.609375 65.921875 
Q 23.96875 65.921875 18.8125 64.3125 
Q 13.671875 62.703125 7.8125 59.421875 
L 7.8125 69.390625 
Q 13.765625 71.78125 18.9375 73 
Q 24.125 74.21875 28.421875 74.21875 
Q 39.75 74.21875 46.484375 68.546875 
Q 53.21875 62.890625 53.21875 53.421875 
Q 53.21875 48.921875 51.53125 44.890625 
Q 49.859375 40.875 45.40625 35.40625 
Q 44.1875 33.984375 37.640625 27.21875 
Q 31.109375 20.453125 19.1875 8.296875 
z
" id="DejaVuSans-50"/>
      </defs>
      <g transform="translate(868.368578 784.194141)scale(0.25 -0.25)">
       <use xlink:href="#DejaVuSans-48"/>
       <use x="63.623047" xlink:href="#DejaVuSans-46"/>
       <use x="95.410156" xlink:href="#DejaVuSans-50"/>
       <use x="159.033203" xlink:href="#DejaVuSans-53"/>
      </g>
     </g>
    </g>
    <g id="xtick_5">
     <g id="line2d_9">
      <path clip-path="url(#p36cc28ebdf)" d="M 1014.707102 758.198047 
L 1014.707102 16.698047 
" style="fill:none;stroke:#b0b0b0;stroke-linecap:square;stroke-width:0.8;"/>
     </g>
     <g id="line2d_10">
      <g>
       <use style="stroke:#000000;stroke-width:0.8;" x="1014.707102" xlink:href="#m202eada401" y="758.198047"/>
      </g>
     </g>
     <g id="text_5">
      <!-- 0.125 -->
      <g transform="translate(978.921946 784.194141)scale(0.25 -0.25)">
       <use xlink:href="#DejaVuSans-48"/>
       <use x="63.623047" xlink:href="#DejaVuSans-46"/>
       <use x="95.410156" xlink:href="#DejaVuSans-49"/>
       <use x="159.033203" xlink:href="#DejaVuSans-50"/>
       <use x="222.65625" xlink:href="#DejaVuSans-53"/>
      </g>
     </g>
    </g>
    <g id="text_6">
     <!-- Amount of training data -->
     <defs>
      <path d="M 34.1875 63.1875 
L 20.796875 26.90625 
L 47.609375 26.90625 
z
M 28.609375 72.90625 
L 39.796875 72.90625 
L 67.578125 0 
L 57.328125 0 
L 50.6875 18.703125 
L 17.828125 18.703125 
L 11.1875 0 
L 0.78125 0 
z
" id="DejaVuSans-65"/>
      <path d="M 52 44.1875 
Q 55.375 50.25 60.0625 53.125 
Q 64.75 56 71.09375 56 
Q 79.640625 56 84.28125 50.015625 
Q 88.921875 44.046875 88.921875 33.015625 
L 88.921875 0 
L 79.890625 0 
L 79.890625 32.71875 
Q 79.890625 40.578125 77.09375 44.375 
Q 74.3125 48.1875 68.609375 48.1875 
Q 61.625 48.1875 57.5625 43.546875 
Q 53.515625 38.921875 53.515625 30.90625 
L 53.515625 0 
L 44.484375 0 
L 44.484375 32.71875 
Q 44.484375 40.625 41.703125 44.40625 
Q 38.921875 48.1875 33.109375 48.1875 
Q 26.21875 48.1875 22.15625 43.53125 
Q 18.109375 38.875 18.109375 30.90625 
L 18.109375 0 
L 9.078125 0 
L 9.078125 54.6875 
L 18.109375 54.6875 
L 18.109375 46.1875 
Q 21.1875 51.21875 25.484375 53.609375 
Q 29.78125 56 35.6875 56 
Q 41.65625 56 45.828125 52.96875 
Q 50 49.953125 52 44.1875 
z
" id="DejaVuSans-109"/>
      <path d="M 30.609375 48.390625 
Q 23.390625 48.390625 19.1875 42.75 
Q 14.984375 37.109375 14.984375 27.296875 
Q 14.984375 17.484375 19.15625 11.84375 
Q 23.34375 6.203125 30.609375 6.203125 
Q 37.796875 6.203125 41.984375 11.859375 
Q 46.1875 17.53125 46.1875 27.296875 
Q 46.1875 37.015625 41.984375 42.703125 
Q 37.796875 48.390625 30.609375 48.390625 
z
M 30.609375 56 
Q 42.328125 56 49.015625 48.375 
Q 55.71875 40.765625 55.71875 27.296875 
Q 55.71875 13.875 49.015625 6.21875 
Q 42.328125 -1.421875 30.609375 -1.421875 
Q 18.84375 -1.421875 12.171875 6.21875 
Q 5.515625 13.875 5.515625 27.296875 
Q 5.515625 40.765625 12.171875 48.375 
Q 18.84375 56 30.609375 56 
z
" id="DejaVuSans-111"/>
      <path d="M 8.5 21.578125 
L 8.5 54.6875 
L 17.484375 54.6875 
L 17.484375 21.921875 
Q 17.484375 14.15625 20.5 10.265625 
Q 23.53125 6.390625 29.59375 6.390625 
Q 36.859375 6.390625 41.078125 11.03125 
Q 45.3125 15.671875 45.3125 23.6875 
L 45.3125 54.6875 
L 54.296875 54.6875 
L 54.296875 0 
L 45.3125 0 
L 45.3125 8.40625 
Q 42.046875 3.421875 37.71875 1 
Q 33.40625 -1.421875 27.6875 -1.421875 
Q 18.265625 -1.421875 13.375 4.4375 
Q 8.5 10.296875 8.5 21.578125 
z
M 31.109375 56 
z
" id="DejaVuSans-117"/>
      <path d="M 54.890625 33.015625 
L 54.890625 0 
L 45.90625 0 
L 45.90625 32.71875 
Q 45.90625 40.484375 42.875 44.328125 
Q 39.84375 48.1875 33.796875 48.1875 
Q 26.515625 48.1875 22.3125 43.546875 
Q 18.109375 38.921875 18.109375 30.90625 
L 18.109375 0 
L 9.078125 0 
L 9.078125 54.6875 
L 18.109375 54.6875 
L 18.109375 46.1875 
Q 21.34375 51.125 25.703125 53.5625 
Q 30.078125 56 35.796875 56 
Q 45.21875 56 50.046875 50.171875 
Q 54.890625 44.34375 54.890625 33.015625 
z
" id="DejaVuSans-110"/>
      <path d="M 18.3125 70.21875 
L 18.3125 54.6875 
L 36.8125 54.6875 
L 36.8125 47.703125 
L 18.3125 47.703125 
L 18.3125 18.015625 
Q 18.3125 11.328125 20.140625 9.421875 
Q 21.96875 7.515625 27.59375 7.515625 
L 36.8125 7.515625 
L 36.8125 0 
L 27.59375 0 
Q 17.1875 0 13.234375 3.875 
Q 9.28125 7.765625 9.28125 18.015625 
L 9.28125 47.703125 
L 2.6875 47.703125 
L 2.6875 54.6875 
L 9.28125 54.6875 
L 9.28125 70.21875 
z
" id="DejaVuSans-116"/>
      <path id="DejaVuSans-32"/>
      <path d="M 37.109375 75.984375 
L 37.109375 68.5 
L 28.515625 68.5 
Q 23.6875 68.5 21.796875 66.546875 
Q 19.921875 64.59375 19.921875 59.515625 
L 19.921875 54.6875 
L 34.71875 54.6875 
L 34.71875 47.703125 
L 19.921875 47.703125 
L 19.921875 0 
L 10.890625 0 
L 10.890625 47.703125 
L 2.296875 47.703125 
L 2.296875 54.6875 
L 10.890625 54.6875 
L 10.890625 58.5 
Q 10.890625 67.625 15.140625 71.796875 
Q 19.390625 75.984375 28.609375 75.984375 
z
" id="DejaVuSans-102"/>
      <path d="M 41.109375 46.296875 
Q 39.59375 47.171875 37.8125 47.578125 
Q 36.03125 48 33.890625 48 
Q 26.265625 48 22.1875 43.046875 
Q 18.109375 38.09375 18.109375 28.8125 
L 18.109375 0 
L 9.078125 0 
L 9.078125 54.6875 
L 18.109375 54.6875 
L 18.109375 46.1875 
Q 20.953125 51.171875 25.484375 53.578125 
Q 30.03125 56 36.53125 56 
Q 37.453125 56 38.578125 55.875 
Q 39.703125 55.765625 41.0625 55.515625 
z
" id="DejaVuSans-114"/>
      <path d="M 34.28125 27.484375 
Q 23.390625 27.484375 19.1875 25 
Q 14.984375 22.515625 14.984375 16.5 
Q 14.984375 11.71875 18.140625 8.90625 
Q 21.296875 6.109375 26.703125 6.109375 
Q 34.1875 6.109375 38.703125 11.40625 
Q 43.21875 16.703125 43.21875 25.484375 
L 43.21875 27.484375 
z
M 52.203125 31.203125 
L 52.203125 0 
L 43.21875 0 
L 43.21875 8.296875 
Q 40.140625 3.328125 35.546875 0.953125 
Q 30.953125 -1.421875 24.3125 -1.421875 
Q 15.921875 -1.421875 10.953125 3.296875 
Q 6 8.015625 6 15.921875 
Q 6 25.140625 12.171875 29.828125 
Q 18.359375 34.515625 30.609375 34.515625 
L 43.21875 34.515625 
L 43.21875 35.40625 
Q 43.21875 41.609375 39.140625 45 
Q 35.0625 48.390625 27.6875 48.390625 
Q 23 48.390625 18.546875 47.265625 
Q 14.109375 46.140625 10.015625 43.890625 
L 10.015625 52.203125 
Q 14.9375 54.109375 19.578125 55.046875 
Q 24.21875 56 28.609375 56 
Q 40.484375 56 46.34375 49.84375 
Q 52.203125 43.703125 52.203125 31.203125 
z
" id="DejaVuSans-97"/>
      <path d="M 9.421875 54.6875 
L 18.40625 54.6875 
L 18.40625 0 
L 9.421875 0 
z
M 9.421875 75.984375 
L 18.40625 75.984375 
L 18.40625 64.59375 
L 9.421875 64.59375 
z
" id="DejaVuSans-105"/>
      <path d="M 45.40625 27.984375 
Q 45.40625 37.75 41.375 43.109375 
Q 37.359375 48.484375 30.078125 48.484375 
Q 22.859375 48.484375 18.828125 43.109375 
Q 14.796875 37.75 14.796875 27.984375 
Q 14.796875 18.265625 18.828125 12.890625 
Q 22.859375 7.515625 30.078125 7.515625 
Q 37.359375 7.515625 41.375 12.890625 
Q 45.40625 18.265625 45.40625 27.984375 
z
M 54.390625 6.78125 
Q 54.390625 -7.171875 48.1875 -13.984375 
Q 42 -20.796875 29.203125 -20.796875 
Q 24.46875 -20.796875 20.265625 -20.09375 
Q 16.0625 -19.390625 12.109375 -17.921875 
L 12.109375 -9.1875 
Q 16.0625 -11.328125 19.921875 -12.34375 
Q 23.78125 -13.375 27.78125 -13.375 
Q 36.625 -13.375 41.015625 -8.765625 
Q 45.40625 -4.15625 45.40625 5.171875 
L 45.40625 9.625 
Q 42.625 4.78125 38.28125 2.390625 
Q 33.9375 0 27.875 0 
Q 17.828125 0 11.671875 7.65625 
Q 5.515625 15.328125 5.515625 27.984375 
Q 5.515625 40.671875 11.671875 48.328125 
Q 17.828125 56 27.875 56 
Q 33.9375 56 38.28125 53.609375 
Q 42.625 51.21875 45.40625 46.390625 
L 45.40625 54.6875 
L 54.390625 54.6875 
z
" id="DejaVuSans-103"/>
      <path d="M 45.40625 46.390625 
L 45.40625 75.984375 
L 54.390625 75.984375 
L 54.390625 0 
L 45.40625 0 
L 45.40625 8.203125 
Q 42.578125 3.328125 38.25 0.953125 
Q 33.9375 -1.421875 27.875 -1.421875 
Q 17.96875 -1.421875 11.734375 6.484375 
Q 5.515625 14.40625 5.515625 27.296875 
Q 5.515625 40.1875 11.734375 48.09375 
Q 17.96875 56 27.875 56 
Q 33.9375 56 38.25 53.625 
Q 42.578125 51.265625 45.40625 46.390625 
z
M 14.796875 27.296875 
Q 14.796875 17.390625 18.875 11.75 
Q 22.953125 6.109375 30.078125 6.109375 
Q 37.203125 6.109375 41.296875 11.75 
Q 45.40625 17.390625 45.40625 27.296875 
Q 45.40625 37.203125 41.296875 42.84375 
Q 37.203125 48.484375 30.078125 48.484375 
Q 22.953125 48.484375 18.875 42.84375 
Q 14.796875 37.203125 14.796875 27.296875 
z
" id="DejaVuSans-100"/>
     </defs>
     <g transform="translate(450.268359 812.389453)scale(0.25 -0.25)">
      <use xlink:href="#DejaVuSans-65"/>
      <use x="68.408203" xlink:href="#DejaVuSans-109"/>
      <use x="165.820312" xlink:href="#DejaVuSans-111"/>
      <use x="227.001953" xlink:href="#DejaVuSans-117"/>
      <use x="290.380859" xlink:href="#DejaVuSans-110"/>
      <use x="353.759766" xlink:href="#DejaVuSans-116"/>
      <use x="392.96875" xlink:href="#DejaVuSans-32"/>
      <use x="424.755859" xlink:href="#DejaVuSans-111"/>
      <use x="485.9375" xlink:href="#DejaVuSans-102"/>
      <use x="521.142578" xlink:href="#DejaVuSans-32"/>
      <use x="552.929688" xlink:href="#DejaVuSans-116"/>
      <use x="592.138672" xlink:href="#DejaVuSans-114"/>
      <use x="633.251953" xlink:href="#DejaVuSans-97"/>
      <use x="694.53125" xlink:href="#DejaVuSans-105"/>
      <use x="722.314453" xlink:href="#DejaVuSans-110"/>
      <use x="785.693359" xlink:href="#DejaVuSans-105"/>
      <use x="813.476562" xlink:href="#DejaVuSans-110"/>
      <use x="876.855469" xlink:href="#DejaVuSans-103"/>
      <use x="940.332031" xlink:href="#DejaVuSans-32"/>
      <use x="972.119141" xlink:href="#DejaVuSans-100"/>
      <use x="1035.595703" xlink:href="#DejaVuSans-97"/>
      <use x="1096.875" xlink:href="#DejaVuSans-116"/>
      <use x="1136.083984" xlink:href="#DejaVuSans-97"/>
     </g>
    </g>
   </g>
   <g id="matplotlib.axis_2">
    <g id="ytick_1">
     <g id="line2d_11">
      <path clip-path="url(#p36cc28ebdf)" d="M 98.059375 758.198047 
L 1101.809375 758.198047 
" style="fill:none;stroke:#b0b0b0;stroke-linecap:square;stroke-width:0.8;"/>
     </g>
     <g id="line2d_12">
      <defs>
       <path d="M 0 0 
L -3.5 0 
" id="m2f483a7796" style="stroke:#000000;stroke-width:0.8;"/>
      </defs>
      <g>
       <use style="stroke:#000000;stroke-width:0.8;" x="98.059375" xlink:href="#m2f483a7796" y="758.198047"/>
      </g>
     </g>
     <g id="text_7">
      <!-- 0.65 -->
      <defs>
       <path d="M 33.015625 40.375 
Q 26.375 40.375 22.484375 35.828125 
Q 18.609375 31.296875 18.609375 23.390625 
Q 18.609375 15.53125 22.484375 10.953125 
Q 26.375 6.390625 33.015625 6.390625 
Q 39.65625 6.390625 43.53125 10.953125 
Q 47.40625 15.53125 47.40625 23.390625 
Q 47.40625 31.296875 43.53125 35.828125 
Q 39.65625 40.375 33.015625 40.375 
z
M 52.59375 71.296875 
L 52.59375 62.3125 
Q 48.875 64.0625 45.09375 64.984375 
Q 41.3125 65.921875 37.59375 65.921875 
Q 27.828125 65.921875 22.671875 59.328125 
Q 17.53125 52.734375 16.796875 39.40625 
Q 19.671875 43.65625 24.015625 45.921875 
Q 28.375 48.1875 33.59375 48.1875 
Q 44.578125 48.1875 50.953125 41.515625 
Q 57.328125 34.859375 57.328125 23.390625 
Q 57.328125 12.15625 50.6875 5.359375 
Q 44.046875 -1.421875 33.015625 -1.421875 
Q 20.359375 -1.421875 13.671875 8.265625 
Q 6.984375 17.96875 6.984375 36.375 
Q 6.984375 53.65625 15.1875 63.9375 
Q 23.390625 74.21875 37.203125 74.21875 
Q 40.921875 74.21875 44.703125 73.484375 
Q 48.484375 72.75 52.59375 71.296875 
z
" id="DejaVuSans-54"/>
      </defs>
      <g transform="translate(35.395313 767.696094)scale(0.25 -0.25)">
       <use xlink:href="#DejaVuSans-48"/>
       <use x="63.623047" xlink:href="#DejaVuSans-46"/>
       <use x="95.410156" xlink:href="#DejaVuSans-54"/>
       <use x="159.033203" xlink:href="#DejaVuSans-53"/>
      </g>
     </g>
    </g>
    <g id="ytick_2">
     <g id="line2d_13">
      <path clip-path="url(#p36cc28ebdf)" d="M 98.059375 652.269475 
L 1101.809375 652.269475 
" style="fill:none;stroke:#b0b0b0;stroke-linecap:square;stroke-width:0.8;"/>
     </g>
     <g id="line2d_14">
      <g>
       <use style="stroke:#000000;stroke-width:0.8;" x="98.059375" xlink:href="#m2f483a7796" y="652.269475"/>
      </g>
     </g>
     <g id="text_8">
      <!-- 0.70 -->
      <g transform="translate(35.395313 661.767522)scale(0.25 -0.25)">
       <use xlink:href="#DejaVuSans-48"/>
       <use x="63.623047" xlink:href="#DejaVuSans-46"/>
       <use x="95.410156" xlink:href="#DejaVuSans-55"/>
       <use x="159.033203" xlink:href="#DejaVuSans-48"/>
      </g>
     </g>
    </g>
    <g id="ytick_3">
     <g id="line2d_15">
      <path clip-path="url(#p36cc28ebdf)" d="M 98.059375 546.340904 
L 1101.809375 546.340904 
" style="fill:none;stroke:#b0b0b0;stroke-linecap:square;stroke-width:0.8;"/>
     </g>
     <g id="line2d_16">
      <g>
       <use style="stroke:#000000;stroke-width:0.8;" x="98.059375" xlink:href="#m2f483a7796" y="546.340904"/>
      </g>
     </g>
     <g id="text_9">
      <!-- 0.75 -->
      <g transform="translate(35.395313 555.838951)scale(0.25 -0.25)">
       <use xlink:href="#DejaVuSans-48"/>
       <use x="63.623047" xlink:href="#DejaVuSans-46"/>
       <use x="95.410156" xlink:href="#DejaVuSans-55"/>
       <use x="159.033203" xlink:href="#DejaVuSans-53"/>
      </g>
     </g>
    </g>
    <g id="ytick_4">
     <g id="line2d_17">
      <path clip-path="url(#p36cc28ebdf)" d="M 98.059375 440.412333 
L 1101.809375 440.412333 
" style="fill:none;stroke:#b0b0b0;stroke-linecap:square;stroke-width:0.8;"/>
     </g>
     <g id="line2d_18">
      <g>
       <use style="stroke:#000000;stroke-width:0.8;" x="98.059375" xlink:href="#m2f483a7796" y="440.412333"/>
      </g>
     </g>
     <g id="text_10">
      <!-- 0.80 -->
      <defs>
       <path d="M 31.78125 34.625 
Q 24.75 34.625 20.71875 30.859375 
Q 16.703125 27.09375 16.703125 20.515625 
Q 16.703125 13.921875 20.71875 10.15625 
Q 24.75 6.390625 31.78125 6.390625 
Q 38.8125 6.390625 42.859375 10.171875 
Q 46.921875 13.96875 46.921875 20.515625 
Q 46.921875 27.09375 42.890625 30.859375 
Q 38.875 34.625 31.78125 34.625 
z
M 21.921875 38.8125 
Q 15.578125 40.375 12.03125 44.71875 
Q 8.5 49.078125 8.5 55.328125 
Q 8.5 64.0625 14.71875 69.140625 
Q 20.953125 74.21875 31.78125 74.21875 
Q 42.671875 74.21875 48.875 69.140625 
Q 55.078125 64.0625 55.078125 55.328125 
Q 55.078125 49.078125 51.53125 44.71875 
Q 48 40.375 41.703125 38.8125 
Q 48.828125 37.15625 52.796875 32.3125 
Q 56.78125 27.484375 56.78125 20.515625 
Q 56.78125 9.90625 50.3125 4.234375 
Q 43.84375 -1.421875 31.78125 -1.421875 
Q 19.734375 -1.421875 13.25 4.234375 
Q 6.78125 9.90625 6.78125 20.515625 
Q 6.78125 27.484375 10.78125 32.3125 
Q 14.796875 37.15625 21.921875 38.8125 
z
M 18.3125 54.390625 
Q 18.3125 48.734375 21.84375 45.5625 
Q 25.390625 42.390625 31.78125 42.390625 
Q 38.140625 42.390625 41.71875 45.5625 
Q 45.3125 48.734375 45.3125 54.390625 
Q 45.3125 60.0625 41.71875 63.234375 
Q 38.140625 66.40625 31.78125 66.40625 
Q 25.390625 66.40625 21.84375 63.234375 
Q 18.3125 60.0625 18.3125 54.390625 
z
" id="DejaVuSans-56"/>
      </defs>
      <g transform="translate(35.395313 449.910379)scale(0.25 -0.25)">
       <use xlink:href="#DejaVuSans-48"/>
       <use x="63.623047" xlink:href="#DejaVuSans-46"/>
       <use x="95.410156" xlink:href="#DejaVuSans-56"/>
       <use x="159.033203" xlink:href="#DejaVuSans-48"/>
      </g>
     </g>
    </g>
    <g id="ytick_5">
     <g id="line2d_19">
      <path clip-path="url(#p36cc28ebdf)" d="M 98.059375 334.483761 
L 1101.809375 334.483761 
" style="fill:none;stroke:#b0b0b0;stroke-linecap:square;stroke-width:0.8;"/>
     </g>
     <g id="line2d_20">
      <g>
       <use style="stroke:#000000;stroke-width:0.8;" x="98.059375" xlink:href="#m2f483a7796" y="334.483761"/>
      </g>
     </g>
     <g id="text_11">
      <!-- 0.85 -->
      <g transform="translate(35.395313 343.981808)scale(0.25 -0.25)">
       <use xlink:href="#DejaVuSans-48"/>
       <use x="63.623047" xlink:href="#DejaVuSans-46"/>
       <use x="95.410156" xlink:href="#DejaVuSans-56"/>
       <use x="159.033203" xlink:href="#DejaVuSans-53"/>
      </g>
     </g>
    </g>
    <g id="ytick_6">
     <g id="line2d_21">
      <path clip-path="url(#p36cc28ebdf)" d="M 98.059375 228.55519 
L 1101.809375 228.55519 
" style="fill:none;stroke:#b0b0b0;stroke-linecap:square;stroke-width:0.8;"/>
     </g>
     <g id="line2d_22">
      <g>
       <use style="stroke:#000000;stroke-width:0.8;" x="98.059375" xlink:href="#m2f483a7796" y="228.55519"/>
      </g>
     </g>
     <g id="text_12">
      <!-- 0.90 -->
      <defs>
       <path d="M 10.984375 1.515625 
L 10.984375 10.5 
Q 14.703125 8.734375 18.5 7.8125 
Q 22.3125 6.890625 25.984375 6.890625 
Q 35.75 6.890625 40.890625 13.453125 
Q 46.046875 20.015625 46.78125 33.40625 
Q 43.953125 29.203125 39.59375 26.953125 
Q 35.25 24.703125 29.984375 24.703125 
Q 19.046875 24.703125 12.671875 31.3125 
Q 6.296875 37.9375 6.296875 49.421875 
Q 6.296875 60.640625 12.9375 67.421875 
Q 19.578125 74.21875 30.609375 74.21875 
Q 43.265625 74.21875 49.921875 64.515625 
Q 56.59375 54.828125 56.59375 36.375 
Q 56.59375 19.140625 48.40625 8.859375 
Q 40.234375 -1.421875 26.421875 -1.421875 
Q 22.703125 -1.421875 18.890625 -0.6875 
Q 15.09375 0.046875 10.984375 1.515625 
z
M 30.609375 32.421875 
Q 37.25 32.421875 41.125 36.953125 
Q 45.015625 41.5 45.015625 49.421875 
Q 45.015625 57.28125 41.125 61.84375 
Q 37.25 66.40625 30.609375 66.40625 
Q 23.96875 66.40625 20.09375 61.84375 
Q 16.21875 57.28125 16.21875 49.421875 
Q 16.21875 41.5 20.09375 36.953125 
Q 23.96875 32.421875 30.609375 32.421875 
z
" id="DejaVuSans-57"/>
      </defs>
      <g transform="translate(35.395313 238.053237)scale(0.25 -0.25)">
       <use xlink:href="#DejaVuSans-48"/>
       <use x="63.623047" xlink:href="#DejaVuSans-46"/>
       <use x="95.410156" xlink:href="#DejaVuSans-57"/>
       <use x="159.033203" xlink:href="#DejaVuSans-48"/>
      </g>
     </g>
    </g>
    <g id="ytick_7">
     <g id="line2d_23">
      <path clip-path="url(#p36cc28ebdf)" d="M 98.059375 122.626618 
L 1101.809375 122.626618 
" style="fill:none;stroke:#b0b0b0;stroke-linecap:square;stroke-width:0.8;"/>
     </g>
     <g id="line2d_24">
      <g>
       <use style="stroke:#000000;stroke-width:0.8;" x="98.059375" xlink:href="#m2f483a7796" y="122.626618"/>
      </g>
     </g>
     <g id="text_13">
      <!-- 0.95 -->
      <g transform="translate(35.395313 132.124665)scale(0.25 -0.25)">
       <use xlink:href="#DejaVuSans-48"/>
       <use x="63.623047" xlink:href="#DejaVuSans-46"/>
       <use x="95.410156" xlink:href="#DejaVuSans-57"/>
       <use x="159.033203" xlink:href="#DejaVuSans-53"/>
      </g>
     </g>
    </g>
    <g id="ytick_8">
     <g id="line2d_25">
      <path clip-path="url(#p36cc28ebdf)" d="M 98.059375 16.698047 
L 1101.809375 16.698047 
" style="fill:none;stroke:#b0b0b0;stroke-linecap:square;stroke-width:0.8;"/>
     </g>
     <g id="line2d_26">
      <g>
       <use style="stroke:#000000;stroke-width:0.8;" x="98.059375" xlink:href="#m2f483a7796" y="16.698047"/>
      </g>
     </g>
     <g id="text_14">
      <!-- 1.00 -->
      <g transform="translate(35.395313 26.196094)scale(0.25 -0.25)">
       <use xlink:href="#DejaVuSans-49"/>
       <use x="63.623047" xlink:href="#DejaVuSans-46"/>
       <use x="95.410156" xlink:href="#DejaVuSans-48"/>
       <use x="159.033203" xlink:href="#DejaVuSans-48"/>
      </g>
     </g>
    </g>
    <g id="text_15">
     <!-- Accuracy of the trained model -->
     <defs>
      <path d="M 48.78125 52.59375 
L 48.78125 44.1875 
Q 44.96875 46.296875 41.140625 47.34375 
Q 37.3125 48.390625 33.40625 48.390625 
Q 24.65625 48.390625 19.8125 42.84375 
Q 14.984375 37.3125 14.984375 27.296875 
Q 14.984375 17.28125 19.8125 11.734375 
Q 24.65625 6.203125 33.40625 6.203125 
Q 37.3125 6.203125 41.140625 7.25 
Q 44.96875 8.296875 48.78125 10.40625 
L 48.78125 2.09375 
Q 45.015625 0.34375 40.984375 -0.53125 
Q 36.96875 -1.421875 32.421875 -1.421875 
Q 20.0625 -1.421875 12.78125 6.34375 
Q 5.515625 14.109375 5.515625 27.296875 
Q 5.515625 40.671875 12.859375 48.328125 
Q 20.21875 56 33.015625 56 
Q 37.15625 56 41.109375 55.140625 
Q 45.0625 54.296875 48.78125 52.59375 
z
" id="DejaVuSans-99"/>
      <path d="M 32.171875 -5.078125 
Q 28.375 -14.84375 24.75 -17.8125 
Q 21.140625 -20.796875 15.09375 -20.796875 
L 7.90625 -20.796875 
L 7.90625 -13.28125 
L 13.1875 -13.28125 
Q 16.890625 -13.28125 18.9375 -11.515625 
Q 21 -9.765625 23.484375 -3.21875 
L 25.09375 0.875 
L 2.984375 54.6875 
L 12.5 54.6875 
L 29.59375 11.921875 
L 46.6875 54.6875 
L 56.203125 54.6875 
z
" id="DejaVuSans-121"/>
      <path d="M 54.890625 33.015625 
L 54.890625 0 
L 45.90625 0 
L 45.90625 32.71875 
Q 45.90625 40.484375 42.875 44.328125 
Q 39.84375 48.1875 33.796875 48.1875 
Q 26.515625 48.1875 22.3125 43.546875 
Q 18.109375 38.921875 18.109375 30.90625 
L 18.109375 0 
L 9.078125 0 
L 9.078125 75.984375 
L 18.109375 75.984375 
L 18.109375 46.1875 
Q 21.34375 51.125 25.703125 53.5625 
Q 30.078125 56 35.796875 56 
Q 45.21875 56 50.046875 50.171875 
Q 54.890625 44.34375 54.890625 33.015625 
z
" id="DejaVuSans-104"/>
      <path d="M 56.203125 29.59375 
L 56.203125 25.203125 
L 14.890625 25.203125 
Q 15.484375 15.921875 20.484375 11.0625 
Q 25.484375 6.203125 34.421875 6.203125 
Q 39.59375 6.203125 44.453125 7.46875 
Q 49.3125 8.734375 54.109375 11.28125 
L 54.109375 2.78125 
Q 49.265625 0.734375 44.1875 -0.34375 
Q 39.109375 -1.421875 33.890625 -1.421875 
Q 20.796875 -1.421875 13.15625 6.1875 
Q 5.515625 13.8125 5.515625 26.8125 
Q 5.515625 40.234375 12.765625 48.109375 
Q 20.015625 56 32.328125 56 
Q 43.359375 56 49.78125 48.890625 
Q 56.203125 41.796875 56.203125 29.59375 
z
M 47.21875 32.234375 
Q 47.125 39.59375 43.09375 43.984375 
Q 39.0625 48.390625 32.421875 48.390625 
Q 24.90625 48.390625 20.390625 44.140625 
Q 15.875 39.890625 15.1875 32.171875 
z
" id="DejaVuSans-101"/>
      <path d="M 9.421875 75.984375 
L 18.40625 75.984375 
L 18.40625 0 
L 9.421875 0 
z
" id="DejaVuSans-108"/>
     </defs>
     <g transform="translate(26.196094 576.832813)rotate(-90)scale(0.25 -0.25)">
      <use xlink:href="#DejaVuSans-65"/>
      <use x="68.392578" xlink:href="#DejaVuSans-99"/>
      <use x="123.373047" xlink:href="#DejaVuSans-99"/>
      <use x="178.353516" xlink:href="#DejaVuSans-117"/>
      <use x="241.732422" xlink:href="#DejaVuSans-114"/>
      <use x="282.845703" xlink:href="#DejaVuSans-97"/>
      <use x="344.125" xlink:href="#DejaVuSans-99"/>
      <use x="399.105469" xlink:href="#DejaVuSans-121"/>
      <use x="458.285156" xlink:href="#DejaVuSans-32"/>
      <use x="490.072266" xlink:href="#DejaVuSans-111"/>
      <use x="551.253906" xlink:href="#DejaVuSans-102"/>
      <use x="586.458984" xlink:href="#DejaVuSans-32"/>
      <use x="618.246094" xlink:href="#DejaVuSans-116"/>
      <use x="657.455078" xlink:href="#DejaVuSans-104"/>
      <use x="720.833984" xlink:href="#DejaVuSans-101"/>
      <use x="782.357422" xlink:href="#DejaVuSans-32"/>
      <use x="814.144531" xlink:href="#DejaVuSans-116"/>
      <use x="853.353516" xlink:href="#DejaVuSans-114"/>
      <use x="894.466797" xlink:href="#DejaVuSans-97"/>
      <use x="955.746094" xlink:href="#DejaVuSans-105"/>
      <use x="983.529297" xlink:href="#DejaVuSans-110"/>
      <use x="1046.908203" xlink:href="#DejaVuSans-101"/>
      <use x="1108.431641" xlink:href="#DejaVuSans-100"/>
      <use x="1171.908203" xlink:href="#DejaVuSans-32"/>
      <use x="1203.695312" xlink:href="#DejaVuSans-109"/>
      <use x="1301.107422" xlink:href="#DejaVuSans-111"/>
      <use x="1362.289062" xlink:href="#DejaVuSans-100"/>
      <use x="1425.765625" xlink:href="#DejaVuSans-101"/>
      <use x="1487.289062" xlink:href="#DejaVuSans-108"/>
     </g>
    </g>
   </g>
   <g id="LineCollection_1">
    <path clip-path="url(#p36cc28ebdf)" d="M 164.423011 272.57395 
L 205.900284 272.57395 
" style="fill:none;stroke:#1f77b4;stroke-width:1.5;"/>
    <path clip-path="url(#p36cc28ebdf)" d="M 401.435998 282.619118 
L 442.913271 282.619118 
" style="fill:none;stroke:#1f77b4;stroke-width:1.5;"/>
    <path clip-path="url(#p36cc28ebdf)" d="M 638.448985 293.948431 
L 679.926258 293.948431 
" style="fill:none;stroke:#1f77b4;stroke-width:1.5;"/>
    <path clip-path="url(#p36cc28ebdf)" d="M 875.461972 339.849297 
L 916.939245 339.849297 
" style="fill:none;stroke:#1f77b4;stroke-width:1.5;"/>
    <path clip-path="url(#p36cc28ebdf)" d="M 993.968466 408.174715 
L 1035.445739 408.174715 
" style="fill:none;stroke:#1f77b4;stroke-width:1.5;"/>
   </g>
   <g id="LineCollection_2">
    <path clip-path="url(#p36cc28ebdf)" d="M 164.423011 266.184904 
L 205.900284 266.184904 
" style="fill:none;stroke:#1f77b4;stroke-width:1.5;"/>
    <path clip-path="url(#p36cc28ebdf)" d="M 401.435998 265.660873 
L 442.913271 265.660873 
" style="fill:none;stroke:#1f77b4;stroke-width:1.5;"/>
    <path clip-path="url(#p36cc28ebdf)" d="M 638.448985 275.930575 
L 679.926258 275.930575 
" style="fill:none;stroke:#1f77b4;stroke-width:1.5;"/>
    <path clip-path="url(#p36cc28ebdf)" d="M 875.461972 314.505256 
L 916.939245 314.505256 
" style="fill:none;stroke:#1f77b4;stroke-width:1.5;"/>
    <path clip-path="url(#p36cc28ebdf)" d="M 993.968466 374.717202 
L 1035.445739 374.717202 
" style="fill:none;stroke:#1f77b4;stroke-width:1.5;"/>
   </g>
   <g id="LineCollection_3">
    <path clip-path="url(#p36cc28ebdf)" d="M 164.423011 288.70493 
L 205.900284 288.70493 
" style="fill:none;stroke:#1f77b4;stroke-width:1.5;"/>
    <path clip-path="url(#p36cc28ebdf)" d="M 401.435998 292.710381 
L 442.913271 292.710381 
" style="fill:none;stroke:#1f77b4;stroke-width:1.5;"/>
    <path clip-path="url(#p36cc28ebdf)" d="M 638.448985 317.641575 
L 679.926258 317.641575 
" style="fill:none;stroke:#1f77b4;stroke-width:1.5;"/>
    <path clip-path="url(#p36cc28ebdf)" d="M 875.461972 368.032014 
L 916.939245 368.032014 
" style="fill:none;stroke:#1f77b4;stroke-width:1.5;"/>
    <path clip-path="url(#p36cc28ebdf)" d="M 993.968466 433.247847 
L 1035.445739 433.247847 
" style="fill:none;stroke:#1f77b4;stroke-width:1.5;"/>
   </g>
   <g id="LineCollection_4">
    <path clip-path="url(#p36cc28ebdf)" d="M 185.161648 288.70493 
L 185.161648 266.184904 
" style="fill:none;stroke:#1f77b4;stroke-width:1.5;"/>
    <path clip-path="url(#p36cc28ebdf)" d="M 422.174635 292.710381 
L 422.174635 265.660873 
" style="fill:none;stroke:#1f77b4;stroke-width:1.5;"/>
    <path clip-path="url(#p36cc28ebdf)" d="M 659.187622 317.641575 
L 659.187622 275.930575 
" style="fill:none;stroke:#1f77b4;stroke-width:1.5;"/>
    <path clip-path="url(#p36cc28ebdf)" d="M 896.200609 368.032014 
L 896.200609 314.505256 
" style="fill:none;stroke:#1f77b4;stroke-width:1.5;"/>
    <path clip-path="url(#p36cc28ebdf)" d="M 1014.707102 433.247847 
L 1014.707102 374.717202 
" style="fill:none;stroke:#1f77b4;stroke-width:1.5;"/>
   </g>
   <g id="patch_3">
    <path d="M 98.059375 758.198047 
L 98.059375 16.698047 
" style="fill:none;stroke:#000000;stroke-linecap:square;stroke-linejoin:miter;stroke-width:0.8;"/>
   </g>
   <g id="patch_4">
    <path d="M 1101.809375 758.198047 
L 1101.809375 16.698047 
" style="fill:none;stroke:#000000;stroke-linecap:square;stroke-linejoin:miter;stroke-width:0.8;"/>
   </g>
   <g id="patch_5">
    <path d="M 98.059375 758.198047 
L 1101.809375 758.198047 
" style="fill:none;stroke:#000000;stroke-linecap:square;stroke-linejoin:miter;stroke-width:0.8;"/>
   </g>
   <g id="patch_6">
    <path d="M 98.059375 16.698047 
L 1101.809375 16.698047 
" style="fill:none;stroke:#000000;stroke-linecap:square;stroke-linejoin:miter;stroke-width:0.8;"/>
   </g>
  </g>
 </g>
 <defs>
  <clipPath id="p36cc28ebdf">
   <rect height="741.5" width="1003.75" x="98.059375" y="16.698047"/>
  </clipPath>
 </defs>
</svg>
